<svg id="Capa_1" enable-background="new 0 0 511.979 511.979" height="512" viewBox="0 0 511.979 511.979" width="512" xmlns="http://www.w3.org/2000/svg"><g id="XMLID_19_"><path id="XMLID_534_" d="m487.362 221.132c-13.566-13.566-35.562-13.566-49.129 0l53.592-53.592c13.567-13.567 13.567-35.562 0-49.129-13.566-13.567-35.562-13.567-49.129 0l-122.339 122.34 42.533-42.533 110.665-110.665c13.567-13.567 13.567-35.562 0-49.129-13.566-13.566-35.562-13.566-49.129 0l-110.664 110.664-42.533 42.533 122.338-122.338c13.566-13.567 13.566-35.562 0-49.129-13.567-13.566-35.562-13.566-49.129 0l-127.685 127.685c26.443-26.443 26.443-69.316 0-95.76-5.066-5.066-13.28-5.066-18.346 0l-110.607 110.607c-12.064 12.064-19.767 27.801-21.894 44.729l-13.116 104.388-42.79 42.789 147.387 147.387 43.066-43.066c64.914-1.563 126.737-28.048 172.651-73.962l4.75-4.75 109.725-109.725c13.567-13.566 13.567-35.562 0-49.129z" fill="#ffd0c7"/><circle id="XMLID_1479_" cx="132.21" cy="223.058" fill="#ff9171" r="24"/><circle id="XMLID_1504_" cx="319.373" cy="143.674" fill="#ffd88e" r="23"/><circle id="XMLID_1488_" cx="244.963" cy="371.167" fill="#ff9171" r="28.21"/><ellipse id="XMLID_1501_" cx="128" cy="342.957" fill="#b7eabc" rx="28.21" ry="28.21" transform="matrix(.928 -.374 .374 .928 -118.898 72.689)"/><circle id="XMLID_1485_" cx="298.413" cy="263.843" fill="#b7eabc" r="31.737"/><g id="XMLID_639_"><path id="XMLID_643_" d="m494.434 214.061c-6.464-6.464-14.432-10.526-22.787-12.2l27.25-27.25c17.443-17.444 17.443-45.827 0-63.272-6.464-6.464-14.432-10.526-22.786-12.199l4.517-4.517c17.443-17.444 17.443-45.827 0-63.272-17.445-17.444-45.827-17.443-63.271 0l-4.517 4.517c-1.673-8.355-5.736-16.323-12.2-22.787-17.445-17.444-45.827-17.443-63.271 0l-90.93 90.93c1.099-21.229-6.434-42.825-22.613-59.005-8.957-8.956-23.531-8.956-32.488 0l-110.609 110.609c-13.565 13.565-22.353 31.519-24.745 50.553l-12.689 100.987-40.366 40.366c-3.905 3.905-3.905 10.237 0 14.143 1.952 1.953 4.512 2.929 7.071 2.929s5.119-.976 7.071-2.929l42.789-42.79c1.571-1.571 2.574-3.62 2.851-5.825l13.117-104.388c1.841-14.648 8.604-28.465 19.044-38.904l110.606-110.607c.72-.72 1.54-.871 2.102-.871.561 0 1.382.151 2.102.871 22.502 22.502 22.502 59.115 0 81.617l-18.749 18.749c-3.678 3.678-3.889 9.508-.638 13.436l-.002.002c22.032 26.689 20.193 65.268-4.279 89.739l-1.694 1.694c-3.905 3.905-3.905 10.237 0 14.143 1.953 1.953 4.512 2.929 7.071 2.929s5.119-.976 7.071-2.929l1.694-1.694c15.297-15.298 24.289-35.624 25.32-57.233.884-18.544-4.174-36.696-14.326-52.018l140.36-140.36c9.645-9.646 25.34-9.647 34.986 0s9.646 25.341 0 34.987l-52.097 52.097c-4.51-2.318-9.616-3.635-15.026-3.635-18.196 0-33 14.804-33 33 0 5.41 1.317 10.516 3.635 15.027l-25.85 25.85c-3.905 3.905-3.905 10.237 0 14.143 1.953 1.953 4.512 2.929 7.071 2.929s5.119-.976 7.071-2.929l25.787-25.787c4.574 2.401 9.772 3.768 15.286 3.768 18.196 0 33-14.804 33-33 0-5.514-1.367-10.712-3.768-15.286l82.893-82.893c9.645-9.647 25.34-9.646 34.986 0s9.646 25.341 0 34.987l-147.226 147.225c-6.139-3.555-13.255-5.602-20.845-5.602-23.014 0-41.737 18.723-41.737 41.737s18.723 41.737 41.737 41.737 41.737-18.723 41.737-41.737c0-8.187-2.379-15.824-6.467-22.275l116.085-116.085c9.645-9.647 25.34-9.646 34.986 0s9.646 25.341 0 34.987l-122.339 122.338c-3.905 3.905-3.905 10.237 0 14.143.244.244.498.473.76.686 3.666 2.99 8.957 2.99 12.624 0 .262-.214.515-.442.759-.686l68.747-68.747c4.672-4.673 10.885-7.246 17.493-7.246s12.821 2.573 17.493 7.246l.216.216c9.646 9.645 9.646 25.34 0 34.986l-77.905 77.905c-3.905 3.905-3.905 10.237 0 14.143 1.952 1.953 4.512 2.929 7.071 2.929s5.119-.977 7.071-2.929l77.905-77.905c8.45-8.45 13.103-19.685 13.103-31.635 0-11.951-4.654-23.186-13.103-31.636zm-175.061-57.387c-7.168 0-13-5.831-13-13 0-7.168 5.832-13 13-13s13 5.832 13 13-5.832 13-13 13zm-20.96 128.906c-11.986 0-21.737-9.751-21.737-21.737s9.751-21.737 21.737-21.737 21.737 9.751 21.737 21.737-9.751 21.737-21.737 21.737z"/><path id="XMLID_645_" d="m338.136 401.839c-40.269 29.595-87.962 45.873-137.924 47.077-2.568.062-5.014 1.109-6.831 2.926l-43.066 43.066c-3.905 3.905-3.905 10.237 0 14.143 1.953 1.953 4.512 2.929 7.071 2.929s5.119-.976 7.071-2.929l40.267-40.268c52.608-2.061 102.753-19.593 145.254-50.827 4.45-3.271 5.407-9.53 2.136-13.98-3.269-4.451-9.529-5.407-13.978-2.137z"/><path id="XMLID_648_" d="m132.21 257.058c18.747 0 34-15.252 34-34s-15.253-34-34-34c-18.748 0-34 15.252-34 34s15.252 34 34 34zm0-48c7.72 0 14 6.28 14 14s-6.28 14-14 14-14-6.28-14-14 6.28-14 14-14z"/><path id="XMLID_651_" d="m283.173 371.167c0-21.069-17.141-38.21-38.21-38.21s-38.21 17.141-38.21 38.21 17.141 38.21 38.21 38.21 38.21-17.141 38.21-38.21zm-56.42 0c0-10.04 8.169-18.21 18.21-18.21s18.21 8.169 18.21 18.21-8.169 18.21-18.21 18.21-18.21-8.169-18.21-18.21z"/><path id="XMLID_655_" d="m166.21 342.958c0-21.069-17.141-38.21-38.21-38.21s-38.21 17.141-38.21 38.21 17.141 38.21 38.21 38.21 38.21-17.142 38.21-38.21zm-38.21 18.209c-10.041 0-18.21-8.169-18.21-18.21s8.169-18.21 18.21-18.21 18.21 8.169 18.21 18.21-8.169 18.21-18.21 18.21z"/><path id="XMLID_657_" d="m337.22 352.049c1.86-1.86 2.93-4.44 2.93-7.07s-1.07-5.21-2.93-7.07-4.44-2.93-7.07-2.93-5.21 1.07-7.07 2.93-2.93 4.44-2.93 7.07 1.07 5.21 2.93 7.07 4.44 2.93 7.07 2.93 5.21-1.07 7.07-2.93z"/><path id="XMLID_659_" d="m377.85 370.199c-2.63 0-5.211 1.07-7.07 2.93-1.86 1.86-2.93 4.44-2.93 7.07 0 2.64 1.07 5.21 2.93 7.07s4.44 2.93 7.07 2.93c2.64 0 5.21-1.07 7.07-2.93 1.87-1.86 2.93-4.44 2.93-7.07s-1.06-5.21-2.93-7.07c-1.86-1.86-4.43-2.93-7.07-2.93z"/></g></g></svg>