<svg id="Capa_1" enable-background="new 0 0 512 512" height="512" viewBox="0 0 512 512" width="512" xmlns="http://www.w3.org/2000/svg"><g id="XMLID_15_"><path id="XMLID_1174_" d="m226.346 187.5v152.273c0 18.912-11.559 35.902-29.15 42.846l-58.562 23.118c-30.229 11.933-62.978-10.347-62.978-42.846v-69.25c0-70.922 57.494-128.416 128.416-128.416 12.302.001 22.274 9.974 22.274 22.275z" fill="#d3d8e3"/><path id="XMLID_1616_" d="m482 50h-452c-11.046 0-20 8.954-20 20v372c0 11.046 8.954 20 20 20h452c11.046 0 20-8.954 20-20v-372c0-11.046-8.954-20-20-20z" fill="#9ea6bf"/><path id="XMLID_1171_" d="m329.557 206-51.557-51.557v-51.443h-44v51.443l-51.557 51.557 31.114 31.113 42.443-42.443 42.443 42.443z" fill="#e7e9ef"/><path id="XMLID_1168_" d="m226.346 187.5v152.273c0 18.912-11.559 35.902-29.15 42.846l-58.562 23.118c-30.229 11.933-62.978-10.347-62.978-42.846v-69.25c0-70.922 57.494-128.416 128.416-128.416 12.302.001 22.274 9.974 22.274 22.275z" fill="#cfd3df"/><g id="XMLID_2243_"><ellipse id="XMLID_2244_" cx="204.346" cy="243.966" fill="#e7e9ef" rx="22" ry="22" transform="matrix(.707 -.707 .707 .707 -112.658 215.95)"/></g><g id="XMLID_2248_"><ellipse id="XMLID_2249_" cx="140.558" cy="331.754" fill="#e7e9ef" rx="22" ry="22" transform="matrix(.383 -.924 .924 .383 -219.732 334.657)"/></g><path id="XMLID_1152_" d="m285.654 187.5v152.273c0 18.912 11.559 35.902 29.15 42.846l58.562 23.118c30.229 11.933 62.978-10.347 62.978-42.846v-69.25c0-70.922-57.494-128.416-128.416-128.416-12.302.001-22.274 9.974-22.274 22.275z" fill="#d3d8e3"/><path id="XMLID_1024_" d="m285.654 187.5v152.273c0 18.912 11.559 35.902 29.15 42.846l58.562 23.118c30.229 11.933 62.978-10.347 62.978-42.846v-69.25c0-70.922-57.494-128.416-128.416-128.416-12.302.001-22.274 9.974-22.274 22.275z" fill="#cfd3df"/><g id="XMLID_959_"><ellipse id="XMLID_1023_" cx="356.333" cy="256" fill="#e7e9ef" rx="22" ry="22" transform="matrix(.707 -.707 .707 .707 -76.652 326.946)"/></g><g id="XMLID_49_"><g id="XMLID_551_"><ellipse id="XMLID_953_" cx="307.654" cy="331.754" fill="#e7e9ef" rx="22" ry="22" transform="matrix(.383 -.924 .924 .383 -116.581 489.033)"/></g><g id="XMLID_1280_"><path id="XMLID_1281_" d="m482 40h-452c-16.542 0-30 13.458-30 30v372c0 16.542 13.458 30 30 30h181c5.523 0 10-4.478 10-10s-4.477-10-10-10h-181c-5.514 0-10-4.486-10-10v-372c0-5.514 4.486-10 10-10h452c5.514 0 10 4.486 10 10v372c0 5.514-4.486 10-10 10h-181c-5.522 0-10 4.478-10 10s4.478 10 10 10h181c16.542 0 30-13.458 30-30v-372c0-16.542-13.458-30-30-30z"/><path id="XMLID_1282_" d="m137 266c2.63 0 5.21-1.07 7.069-2.931 1.861-1.859 2.931-4.439 2.931-7.069s-1.07-5.21-2.931-7.07c-1.859-1.86-4.439-2.93-7.069-2.93s-5.21 1.069-7.07 2.93c-1.86 1.86-2.93 4.44-2.93 7.07s1.069 5.21 2.93 7.069c1.86 1.861 4.44 2.931 7.07 2.931z"/><path id="XMLID_1283_" d="m64 113h79.667c5.522 0 10-4.478 10-10s-4.478-10-10-10h-79.667c-5.522 0-10 4.478-10 10s4.478 10 10 10z"/><path id="XMLID_1284_" d="m64 157h29c5.522 0 10-4.477 10-10s-4.478-10-10-10h-29c-5.522 0-10 4.477-10 10s4.478 10 10 10z"/><path id="XMLID_1285_" d="m256 452c-2.63 0-5.21 1.069-7.07 2.93-1.86 1.86-2.93 4.44-2.93 7.07s1.069 5.21 2.93 7.069c1.86 1.86 4.44 2.931 7.07 2.931s5.21-1.07 7.069-2.931c1.861-1.859 2.931-4.439 2.931-7.069s-1.07-5.21-2.931-7.07c-1.859-1.861-4.439-2.93-7.069-2.93z"/><path id="XMLID_1288_" d="m140.558 299.755c-17.645 0-32 14.355-32 32s14.355 32 32 32 32-14.355 32-32-14.356-32-32-32zm0 44c-6.617 0-12-5.383-12-12s5.383-12 12-12 12 5.383 12 12-5.383 12-12 12z"/><path id="XMLID_1291_" d="m356.333 288c17.645 0 32-14.355 32-32s-14.355-32-32-32-32 14.355-32 32 14.356 32 32 32zm0-44c6.617 0 12 5.383 12 12s-5.383 12-12 12-12-5.383-12-12 5.383-12 12-12z"/><path id="XMLID_1292_" d="m375.81 339.93c-1.859 1.86-2.92 4.44-2.92 7.07s1.061 5.21 2.92 7.069c1.87 1.86 4.44 2.931 7.08 2.931 2.63 0 5.2-1.07 7.07-2.931 1.859-1.859 2.93-4.439 2.93-7.069s-1.07-5.21-2.93-7.07c-1.87-1.86-4.44-2.93-7.07-2.93-2.64 0-5.21 1.069-7.08 2.93z"/><path id="XMLID_1298_" d="m275.654 339.773c0 23.172 13.926 43.641 35.478 52.147l58.562 23.118c6.657 2.628 13.643 3.922 20.593 3.922 11.089 0 22.089-3.293 31.529-9.716 15.358-10.449 24.527-27.777 24.527-46.353v-69.249c0-76.323-62.093-138.416-138.416-138.416-4.425 0-8.644.896-12.487 2.515l-7.44-7.44v-47.301c0-5.522-4.478-10-10-10h-44c-5.523 0-10 4.478-10 10v47.301l-7.441 7.441c-3.843-1.619-8.062-2.515-12.487-2.515-76.323 0-138.416 62.093-138.416 138.416v69.249c0 18.576 9.169 35.904 24.527 46.353 9.441 6.423 20.439 9.716 31.529 9.716 6.949 0 13.937-1.294 20.593-3.922l58.562-23.118c21.552-8.507 35.478-28.976 35.478-52.147v-111.307l19.655-19.655 19.654 19.654zm20-8.018c0-6.617 5.383-12 12-12s12 5.383 12 12-5.383 12-12 12-12-5.383-12-12zm130.69-38.112v69.249c0 12.128-5.751 22.996-15.777 29.817-10.028 6.822-22.248 8.181-33.528 3.726l-58.562-23.118c-5.466-2.158-10.153-5.525-13.846-9.71.996.094 2.004.147 3.025.147 17.645 0 32-14.355 32-32s-14.355-32-32-32c-4.243 0-8.292.837-12 2.343v-114.597c0-6.768 5.506-12.273 12.273-12.273 65.294 0 118.415 53.121 118.415 118.416zm-232.82 79.674-58.562 23.118c-11.28 4.453-23.501 3.095-33.528-3.726-10.026-6.821-15.777-17.69-15.777-29.817v-69.249c0-65.295 53.121-118.416 118.416-118.416 6.768 0 12.273 5.506 12.273 12.273v26.809c-3.708-1.506-7.757-2.343-12-2.343-17.645 0-32 14.355-32 32s14.355 32 32 32c4.243 0 8.292-.837 12-2.343v66.151c0 14.905-8.958 28.072-22.822 33.543zm22.822-129.351c0 6.617-5.383 12-12 12s-12-5.383-12-12 5.383-12 12-12 12 5.383 12 12zm46.725-56.367c-3.906-3.904-10.236-3.904-14.143 0l-12.583 12.583v-12.682c0-6.08-1.692-11.772-4.627-16.633l9.353-9.353c1.875-1.876 2.929-4.419 2.929-7.071v-41.443h24v41.443c0 2.652 1.054 5.195 2.929 7.071l9.353 9.353c-2.935 4.861-4.627 10.552-4.627 16.633v12.682z"/></g></g></g></svg>