<svg id="Capa_1" enable-background="new 0 0 512 512" height="512" viewBox="0 0 512 512" width="512" xmlns="http://www.w3.org/2000/svg"><g id="XMLID_2059_"><g id="XMLID_2069_"><g id="XMLID_2085_"><path id="XMLID_632_" d="m170 223.101v-28.309c0-37.118 30.09-67.208 67.208-67.208h18.792 18.792c37.118 0 67.208 30.09 67.208 67.208v28.309z" fill="#b7eabc"/></g><g id="XMLID_2084_"><path d="m256 127.602c19.048 0 34.49-15.441 34.49-34.49v-8.622c0-19.049-15.442-34.49-34.49-34.49-19.048 0-34.49 15.441-34.49 34.49v8.622c0 19.048 15.442 34.49 34.49 34.49z" fill="#f2b394"/></g></g><g id="XMLID_2063_"><g id="XMLID_2538_"><path d="m10 502v-26.992c0-35.392 28.691-64.082 64.082-64.082h17.918 17.918c35.392 0 64.082 28.691 64.082 64.082v26.992z" fill="#ff5c7d"/></g><g id="XMLID_2068_"><path d="m92 410.925c18.162 0 32.885-14.723 32.885-32.885v-8.221c0-18.162-14.723-32.885-32.885-32.885-18.162 0-32.885 14.723-32.885 32.885v8.221c0 18.162 14.723 32.885 32.885 32.885z" fill="#d0a084"/></g></g><g id="XMLID_2058_"><g id="XMLID_2450_"><path id="XMLID_325_" d="m174 502v-26.992c0-35.392 28.691-64.082 64.082-64.082h17.918 17.918c35.392 0 64.082 28.691 64.082 64.082v26.992z" fill="#b7eabc"/></g><g id="XMLID_2062_"><path d="m256 410.925c18.162 0 32.885-14.723 32.885-32.885v-8.221c0-18.162-14.723-32.885-32.885-32.885-18.162 0-32.885 14.723-32.885 32.885v8.221c0 18.162 14.723 32.885 32.885 32.885z" fill="#f2b394"/></g></g><g id="XMLID_2048_"><g id="XMLID_2055_"><path id="XMLID_140_" d="m338 502v-26.992c0-35.392 28.691-64.082 64.082-64.082h17.918 17.918c35.392 0 64.082 28.691 64.082 64.082v26.992z" fill="#a0c8ff"/></g><g id="XMLID_2051_"><path d="m420 410.925c18.162 0 32.885-14.723 32.885-32.885v-8.221c0-18.162-14.723-32.885-32.885-32.885-18.162 0-32.885 14.723-32.885 32.885v8.221c0 18.162 14.723 32.885 32.885 32.885z" fill="#f2b394"/></g></g><g id="XMLID_2531_"><circle id="XMLID_119_" cx="405.484" cy="66" fill="#ff9171" r="36"/></g><g id="XMLID_1977_"><g id="XMLID_2532_"><circle id="XMLID_31_" cx="106.516" cy="66" fill="#ff9171" r="36"/></g><g id="XMLID_58_"><path id="XMLID_355_" d="m160 194.792v28.309c0 5.522 4.477 10 10 10h76.127v33.679c-3.916-2.912-9.471-2.603-13.025.95-3.905 3.905-3.905 10.237 0 14.143l15.953 15.953c1.953 1.952 4.512 2.929 7.071 2.929s5.118-.977 7.071-2.929l15.953-15.953c3.905-3.905 3.905-10.237 0-14.143-3.554-3.552-9.108-3.861-13.024-.95v-33.679h75.874c5.522 0 10-4.478 10-10v-28.309c0-36.736-25.798-67.541-60.223-75.302 5.462-7.388 8.712-16.505 8.712-26.377v-8.623c0-24.532-19.958-44.49-44.489-44.49s-44.489 19.958-44.489 44.489v8.623c0 9.869 3.233 18.995 8.692 26.382-34.415 7.77-60.203 38.57-60.203 75.298zm71.511-110.303c0-13.503 10.985-24.489 24.489-24.489s24.489 10.986 24.489 24.489v8.623c0 13.503-10.985 24.489-24.489 24.489s-24.489-10.986-24.489-24.489zm5.697 53.095h37.584c31.545 0 57.208 25.663 57.208 57.208v18.309h-152v-18.309c0-31.545 25.663-57.208 57.208-57.208z"/><path id="XMLID_384_" d="m454.912 402.915c5.017-7.02 7.974-15.608 7.974-24.875v-8.222c0-23.646-19.238-42.885-42.886-42.885s-42.886 19.238-42.886 42.885v8.222c0 9.268 2.96 17.854 7.978 24.875-20.066 4.729-37 17.63-47.092 34.994-10.092-17.363-27.025-30.265-47.091-34.994 5.017-7.021 7.977-15.607 7.977-24.875v-8.222c0-23.646-19.238-42.885-42.886-42.885s-42.886 19.238-42.886 42.885v8.222c0 9.268 2.964 17.853 7.982 24.874-20.068 4.728-37.004 17.63-47.097 34.995-10.091-17.363-27.024-30.264-47.09-34.994 5.017-7.021 7.975-15.608 7.975-24.875v-8.222c0-23.646-19.238-42.885-42.886-42.885s-42.886 19.238-42.886 42.885v8.222c0 9.267 2.959 17.854 7.976 24.875-32.681 7.703-57.088 37.092-57.088 72.093v26.992c0 5.522 4.477 10 10 10h201.001c5.522 0 10-4.478 10-10s-4.478-10-10-10h-27.001v-16.992c0-29.821 24.261-54.082 54.082-54.082h35.836c29.821 0 54.082 24.261 54.082 54.082v16.992h-26.996c-5.522 0-10 4.478-10 10s4.478 10 10 10h200.996c5.522 0 10-4.478 10-10v-26.992c0-35-24.406-64.389-57.088-72.093zm-385.798-33.097c0-12.619 10.267-22.885 22.886-22.885s22.886 10.266 22.886 22.885v8.222c0 12.619-10.267 22.886-22.886 22.886s-22.886-10.267-22.886-22.886zm-49.114 105.19c0-29.821 24.261-54.082 54.082-54.082h35.836c29.821 0 54.082 24.261 54.082 54.082v16.992h-144zm213.114-105.19c0-12.619 10.267-22.885 22.886-22.885s22.886 10.266 22.886 22.885v8.222c0 12.619-10.267 22.886-22.886 22.886s-22.886-10.267-22.886-22.886zm164 0c0-12.619 10.267-22.885 22.886-22.885s22.886 10.266 22.886 22.885v8.222c0 12.619-10.267 22.886-22.886 22.886s-22.886-10.267-22.886-22.886zm94.886 122.182h-144v-16.992c0-29.821 24.261-54.082 54.082-54.082h35.836c29.821 0 54.082 24.261 54.082 54.082z"/><path id="XMLID_405_" d="m256 492c-2.63 0-5.21 1.069-7.07 2.93-1.86 1.86-2.93 4.44-2.93 7.07s1.069 5.21 2.93 7.069c1.86 1.86 4.44 2.931 7.07 2.931s5.21-1.07 7.069-2.931c1.861-1.859 2.931-4.439 2.931-7.069s-1.07-5.21-2.931-7.07c-1.859-1.861-4.439-2.93-7.069-2.93z"/><path id="XMLID_411_" d="m349.483 76h11.108c1.177 5.285 3.264 10.228 6.09 14.659l-7.867 7.867c-3.905 3.905-3.905 10.237 0 14.143 1.953 1.952 4.512 2.929 7.071 2.929 2.56 0 5.118-.977 7.071-2.929l7.867-7.867c4.432 2.826 9.374 4.914 14.659 6.09v11.108c0 5.522 4.478 10 10 10s10-4.478 10-10v-11.108c5.285-1.177 10.228-3.264 14.659-6.09l7.868 7.867c1.953 1.952 4.512 2.929 7.071 2.929 2.56 0 5.119-.977 7.071-2.929 3.905-3.906 3.905-10.237 0-14.143l-7.868-7.868c2.827-4.431 4.914-9.374 6.09-14.659h11.108c5.522 0 10-4.478 10-10s-4.478-10-10-10h-11.108c-1.177-5.285-3.264-10.228-6.09-14.659l7.868-7.867c3.905-3.905 3.905-10.236 0-14.142-3.905-3.903-10.236-3.904-14.142 0l-7.869 7.867c-4.432-2.826-9.375-4.914-14.66-6.091v-11.107c0-5.523-4.478-10-10-10s-10 4.477-10 10v11.108c-5.285 1.177-10.228 3.264-14.659 6.09l-7.867-7.867c-3.906-3.904-10.236-3.904-14.142 0-3.905 3.905-3.905 10.237 0 14.142l7.867 7.867c-2.826 4.432-4.914 9.374-6.09 14.659h-11.108c-5.522 0-10 4.478-10 10s4.48 10.001 10.002 10.001zm56-36c14.337 0 26 11.663 26 26s-11.663 26-26 26-26-11.663-26-26 11.664-26 26-26z"/><path id="XMLID_418_" d="m50.517 76h11.108c1.176 5.285 3.264 10.227 6.09 14.659l-7.868 7.868c-3.905 3.905-3.905 10.237 0 14.143 1.953 1.952 4.512 2.929 7.071 2.929 2.56 0 5.118-.977 7.071-2.929l7.868-7.868c4.432 2.827 9.374 4.914 14.66 6.091v11.107c0 5.522 4.478 10 10 10s10-4.478 10-10v-11.108c5.285-1.177 10.228-3.264 14.659-6.09l7.868 7.867c1.953 1.952 4.512 2.929 7.071 2.929s5.119-.977 7.071-2.929c3.905-3.906 3.905-10.237 0-14.143l-7.867-7.867c2.826-4.432 4.913-9.374 6.09-14.66h11.108c5.522 0 10-4.478 10-10s-4.478-10-10-10h-11.108c-1.177-5.285-3.264-10.228-6.091-14.66l7.868-7.867c3.905-3.905 3.905-10.236 0-14.142-3.905-3.903-10.236-3.904-14.142 0l-7.868 7.867c-4.432-2.826-9.374-4.914-14.659-6.09v-11.107c0-5.523-4.478-10-10-10s-10 4.477-10 10v11.108c-5.285 1.177-10.228 3.264-14.66 6.091l-7.868-7.868c-3.906-3.904-10.236-3.904-14.143 0-3.905 3.905-3.905 10.237 0 14.142l7.868 7.868c-2.826 4.431-4.914 9.374-6.09 14.659h-11.107c-5.523 0-10 4.478-10 10s4.477 10 10 10zm56-36c14.337 0 26 11.663 26 26s-11.663 26-26 26-26-11.663-26-26 11.663-26 26-26z"/></g></g></g></svg>