<svg id="Capa_1" enable-background="new 0 0 512 512" height="512" viewBox="0 0 512 512" width="512" xmlns="http://www.w3.org/2000/svg"><g id="XMLID_524_"><path id="XMLID_2229_" d="m416 502h-320c-22.091 0-40-17.909-40-40v-392c0-22.091 17.909-40 40-40h320c22.091 0 40 17.909 40 40v392c0 22.091-17.909 40-40 40z" fill="#a0c8ff"/><path id="XMLID_2226_" d="m100 74h312v384h-312z" fill="#fff"/><path id="XMLID_2224_" d="m336 74h-160v-42.5c0-11.874 9.626-21.5 21.5-21.5h117c11.874 0 21.5 9.626 21.5 21.5z" fill="#ffd88e"/><circle id="XMLID_549_" cx="256" cy="209.999" fill="#ff9171" r="56"/><g id="XMLID_441_"><path id="XMLID_538_" d="m416 20h-72.183c-4.605-11.696-16.006-20-29.317-20h-117c-13.311 0-24.712 8.304-29.317 20h-72.183c-27.57 0-50 22.43-50 50v392c0 27.57 22.43 50 50 50h320c27.57 0 50-22.43 50-50v-392c0-27.57-22.43-50-50-50zm-218.5 0h117c6.341 0 11.5 5.159 11.5 11.5v32.5h-140v-32.5c0-6.341 5.159-11.5 11.5-11.5zm248.5 442c0 16.542-13.458 30-30 30h-320c-16.542 0-30-13.458-30-30v-392c0-16.542 13.458-30 30-30h70v24h-66c-5.522 0-10 4.477-10 10v146.999c0 5.523 4.478 10 10 10s10-4.477 10-10v-136.999h292v364h-292v-137c0-5.523-4.478-10-10-10s-10 4.477-10 10v147c0 5.523 4.478 10 10 10h312c5.522 0 10-4.477 10-10v-384c0-5.523-4.478-10-10-10h-66v-24h70c16.542 0 30 13.458 30 30z"/><path id="XMLID_555_" d="m100 276c2.63 0 5.21-1.07 7.069-2.93 1.86-1.86 2.931-4.44 2.931-7.07s-1.07-5.21-2.931-7.07c-1.859-1.86-4.439-2.93-7.069-2.93s-5.21 1.07-7.07 2.93-2.93 4.44-2.93 7.07 1.069 5.21 2.93 7.07c1.86 1.86 4.44 2.93 7.07 2.93z"/><path id="XMLID_558_" d="m160 233.999c5.523 0 10-4.477 10-10v-4h20.757c1.641 10.746 5.889 20.641 12.066 29.034l-14.705 14.705-2.828-2.828c-3.906-3.905-10.236-3.905-14.142 0-3.905 3.905-3.905 10.237 0 14.143l19.799 19.799c1.953 1.953 4.512 2.929 7.071 2.929 2.56 0 5.118-.976 7.071-2.929 3.905-3.905 3.905-10.237 0-14.143l-2.828-2.828 14.705-14.705c8.393 6.177 18.289 10.426 29.034 12.066v20.757h-4c-5.523 0-10 4.477-10 10s4.477 10 10 10h28c5.522 0 10-4.477 10-10s-4.478-10-10-10h-4v-20.757c10.746-1.64 20.641-5.889 29.034-12.066l14.705 14.705-2.828 2.828c-3.905 3.905-3.905 10.237 0 14.143 1.953 1.953 4.512 2.929 7.071 2.929 2.56 0 5.118-.976 7.071-2.929l19.799-19.799c3.905-3.905 3.905-10.237 0-14.143-3.906-3.905-10.236-3.905-14.143 0l-2.828 2.828-14.705-14.705c6.177-8.393 10.426-18.289 12.066-29.034h20.758v4c0 5.523 4.478 10 10 10s10-4.477 10-10v-28c0-5.523-4.478-10-10-10s-10 4.477-10 10v4h-20.757c-1.641-10.746-5.889-20.641-12.066-29.035l14.705-14.705 2.828 2.828c1.953 1.953 4.512 2.929 7.071 2.929s5.118-.976 7.071-2.929c3.905-3.905 3.905-10.237 0-14.143l-19.799-19.799c-3.906-3.905-10.236-3.905-14.143 0-3.905 3.905-3.905 10.237 0 14.143l2.828 2.828-14.705 14.705c-8.393-6.177-18.289-10.426-29.034-12.066v-20.757h4c5.522 0 10-4.477 10-10s-4.478-10-10-10h-28c-5.523 0-10 4.477-10 10s4.477 10 10 10h4v20.757c-10.746 1.64-20.641 5.889-29.034 12.066l-14.705-14.705 2.828-2.828c3.905-3.905 3.905-10.237 0-14.143-3.906-3.905-10.236-3.905-14.143 0l-19.799 19.799c-3.905 3.905-3.905 10.237 0 14.143 1.953 1.953 4.512 2.929 7.071 2.929 2.56 0 5.118-.976 7.071-2.929l2.828-2.828 14.705 14.705c-6.177 8.393-10.426 18.289-12.066 29.035h-20.755v-4c0-5.523-4.477-10-10-10s-10 4.477-10 10v28c0 5.524 4.477 10 10 10zm96-70c25.364 0 46 20.636 46 46 0 25.362-20.632 45.996-45.994 46-.002 0-.004 0-.004 0s-.006 0-.008 0c-25.361-.003-45.994-20.638-45.994-46 0-25.364 20.636-46 46-46z"/><path id="XMLID_559_" d="m160 360h192c5.522 0 10-4.477 10-10s-4.478-10-10-10h-192c-5.523 0-10 4.477-10 10 0 5.522 4.477 10 10 10z"/><path id="XMLID_560_" d="m160 404h192c5.522 0 10-4.477 10-10s-4.478-10-10-10h-192c-5.523 0-10 4.477-10 10s4.477 10 10 10z"/></g></g></svg>