<?xml version="1.0" encoding="utf-8"?>
<!-- Generator: Adobe Illustrator 24.1.0, SVG Export Plug-In . SVG Version: 6.00 Build 0)  -->
<svg version="1.1" id="Capa_1" xmlns="http://www.w3.org/2000/svg" xmlns:xlink="http://www.w3.org/1999/xlink" x="0px" y="0px"
	 viewBox="0 0 512 512" style="enable-background:new 0 0 512 512;" xml:space="preserve">
<style type="text/css">
	.st0{fill:#FFFFFF;}
	.st1{fill:#ED163C;}
	.st2{fill:#FFD88E;}
	.st3{fill:#F2B394;}
	.st4{fill:#8690AF;}
	.st5{fill:#A0C8FF;}
</style>
<g id="XMLID_27_">
	<path id="XMLID_1587_" class="st0" d="M64.6,284v217.7h383.5V284L256.5,123.8L64.6,284z"/>
	<g id="XMLID_1944_">
		<path id="XMLID_1945_" class="st1" d="M463,292.6L256.3,119.4L49.6,292.6l-39-46.5L256.3,40.3L502,246L463,292.6z"/>
	</g>
	<path id="XMLID_2040_" class="st2" d="M219.3,501.7h156.9V464c0-31.1-25.2-56.3-56.3-56.3H290h-67.3h-29.8
		c-31.1,0-56.3,25.2-56.3,56.3v37.7h156.9H219.3z"/>
	<path id="XMLID_2039_" class="st3" d="M306.1,294.9v37.8c0,32.3-22.3,54.6-49.8,54.6c-27.5,0-49.8-22.3-49.8-49.8v-42.6
		L306.1,294.9z"/>
	<path id="XMLID_2038_" class="st3" d="M281.2,381.9v27.3c0,13.8-11.2,24.9-24.9,24.9c-13.8,0-24.9-11.2-24.9-24.9v-27.3H281.2z"/>
	<path id="XMLID_2184_" class="st4" d="M248.1,242.7h68.4v28.6c0,23-18.6,41.6-41.6,41.6h-68.4v-28.6
		C206.5,261.4,225.2,242.7,248.1,242.7L248.1,242.7z"/>
	<path id="XMLID_2605_" class="st5" d="M111.7,240.6C51.1,221.4,10,165.1,10,101.5V40.6l101.7-30.3l101.7,30.3v60.9
		C213.4,165.1,172.3,221.4,111.7,240.6z"/>
	<g id="XMLID_364_">
		<path id="XMLID_365_" d="M99.2,149.8c2,2,4.5,2.9,7.1,2.9c2.6,0,5.1-1,7.1-2.9l34.5-34.5c3.9-3.9,3.9-10.2,0-14.1
			c-3.9-3.9-10.2-3.9-14.1,0l-27.5,27.5l-16.3-16.3c-3.9-3.9-10.2-3.9-14.1,0c-3.9,3.9-3.9,10.2,0,14.1L99.2,149.8z"/>
		<path id="XMLID_366_" d="M512,245.2c-0.2-2.6-1.5-5.1-3.5-6.8L425,168.5c-4.2-3.5-10.5-3-14.1,1.2c-3.5,4.2-3,10.5,1.2,14.1
			l75.7,63.4l-26.1,31.2L262.7,111.8c-3.7-3.1-9.1-3.1-12.8,0l-30.6,25.7c2.7-11.7,4.2-23.7,4.2-35.9V80.9l32.9-27.6l87,72.8
			c1.9,1.6,4.1,2.3,6.4,2.3c2.9,0,5.7-1.2,7.7-3.6c3.5-4.2,3-10.5-1.2-14.1l-93.4-78.2c-3.7-3.1-9.1-3.1-12.8,0l-26.5,22.2V40.6
			c0-4.4-2.9-8.3-7.1-9.6L114.6,0.7c-1.9-0.6-3.8-0.6-5.7,0L7.1,31C2.9,32.3,0,36.2,0,40.6v60.9c0,33.3,10.4,65.2,30.1,92.1
			c3.5,4.8,7.3,9.4,11.3,13.7L4.2,238.4c-2,1.7-3.3,4.1-3.5,6.8c-0.2,2.6,0.6,5.3,2.3,7.3L42,299c1.7,2,4.1,3.3,6.8,3.5
			c0.3,0,0.6,0,0.9,0c1.8,0,3.5-0.5,5-1.3v200.5c0,5.5,4.5,10,10,10h383.5c5.5,0,10-4.5,10-10V301.2c1.5,0.9,3.3,1.3,5,1.3
			c2.9,0,5.7-1.2,7.7-3.6l39-46.5C511.4,250.4,512.2,247.8,512,245.2L512,245.2z M20,101.5V48l91.7-27.3L203.5,48v53.5
			c0,58.4-36.7,109.7-91.7,128.6C56.7,211.2,20,159.9,20,101.5z M50.9,278.5l-26.1-31.2l31.2-26.1c11,9.2,23.2,16.8,36.3,22.7
			L50.9,278.5z M366.2,491.7H146.5V464c0-25.6,20.8-46.4,46.4-46.4h29.6c3.8,15.2,17.5,26.5,33.9,26.5c16.3,0,30.1-11.3,33.9-26.5
			h29.6c25.6,0,46.4,20.8,46.4,46.4V491.7z M275,322.9c7.5,0,14.7-1.6,21.2-4.6v14.4c0,25.8-16.7,44.6-39.8,44.6
			c-22,0-39.8-17.9-39.8-39.8v-14.6H275z M216.5,302.9v-18.6c0-17.4,14.2-31.6,31.6-31.6h58.5v18.6c0,17.4-14.2,31.6-31.6,31.6
			L216.5,302.9z M271.3,395.4v13.8c0,8.2-6.7,14.9-14.9,14.9c-8.2,0-14.9-6.7-14.9-14.9v-13.8c4.8,1.2,9.8,1.9,14.9,1.9
			C261.5,397.3,266.5,396.6,271.3,395.4z M438.1,491.7h-51.9V464c0-36.6-29.8-66.3-66.3-66.3h-28.6v-11.8
			c15.3-11.5,24.9-30.6,24.9-53.1v-30.3c6.5-8.7,10.4-19.4,10.4-31.1v-28.6c0-5.5-4.5-10-10-10h-68.4c-28.5,0-51.6,23.1-51.6,51.6
			v53.1c0,20,9.8,37.6,24.9,48.5v11.6h-28.6c-36.6,0-66.3,29.8-66.3,66.3v27.7H74.6v-207l42-35.1c31-10.3,57.5-29.6,76.8-56
			c4.2-5.7,8-11.7,11.3-17.8l51.7-43.3l181.8,152.2V491.7z"/>
		<path id="XMLID_439_" d="M384.2,157.3c2.6,0,5.2-1.1,7.1-2.9c1.9-1.9,2.9-4.4,2.9-7.1s-1.1-5.2-2.9-7.1c-1.9-1.9-4.4-2.9-7.1-2.9
			s-5.2,1.1-7.1,2.9c-1.9,1.9-2.9,4.4-2.9,7.1s1.1,5.2,2.9,7.1C379,156.3,381.5,157.3,384.2,157.3z"/>
	</g>
</g>
</svg>
