<svg id="Capa_1" enable-background="new 0 0 512 512" height="512" viewBox="0 0 512 512" width="512" xmlns="http://www.w3.org/2000/svg"><g id="XMLID_54_"><g id="XMLID_1859_"><path id="XMLID_1093_" d="m347.822 119.98v-18.159c0-50.711-41.11-91.821-91.822-91.821-50.712 0-91.822 41.11-91.822 91.822v18.159h183.644z" fill="#a0c8ff"/></g><g id="XMLID_1582_"><path id="XMLID_1092_" d="m301.2 252.5v57.391h60.467c66.458 0 120.333 53.875 120.333 120.333v71.776h-452v-71.776c0-66.458 53.875-120.333 120.333-120.333h61.045v-57.391z" fill="#a0c8ff"/></g><g id="XMLID_1689_"><path id="XMLID_1091_" d="m211.378 262.155h89.822v47.736h-89.822z" fill="#dfedff"/></g><g id="XMLID_1511_"><path id="XMLID_1008_" d="m290.316 262.155h-68.632c-26.973 0-48.84-21.866-48.84-48.84v-52.648h166.311v52.648c0 26.973-21.866 48.84-48.839 48.84z" fill="#dfedff"/></g><g id="XMLID_496_"><path id="XMLID_17_" d="m158.599 107.275v16.388c0 28.879 23.411 52.289 52.289 52.289 19.232 0 36.029-10.391 45.111-25.857 9.082 15.467 25.879 25.857 45.111 25.857 28.879 0 52.289-23.411 52.289-52.289v-16.388z" fill="#fff"/></g><g id="XMLID_658_"><ellipse id="XMLID_18_" cx="256" cy="212.976" fill="#8690af" rx="37.024" ry="37.024" transform="matrix(.987 -.16 .16 .987 -30.809 43.757)"/></g><g id="XMLID_1617_"><path d="m236.334 309.891h40v192.109h-40z" fill="#faf7f5"/></g><g id="XMLID_1596_"><circle id="XMLID_305_" cx="66" cy="184" fill="#ff9171" r="36"/></g><g id="XMLID_1598_"><g id="XMLID_2426_"><circle id="XMLID_132_" cx="446" cy="184" fill="#ff9171" r="36"/></g><g id="XMLID_1094_"><path id="XMLID_1095_" d="m236.334 440.945c-5.523 0-10 4.478-10 10v51.055c0 5.522 4.477 10 10 10 5.522 0 10-4.478 10-10v-51.055c0-5.522-4.478-10-10-10z"/><path id="XMLID_1098_" d="m361.667 299.891h-50.467v-31.141c17.802-6.732 31.578-22.869 36.238-42.913 4.839-.699 8.561-4.852 8.561-9.885 0-4.419-2.87-8.162-6.845-9.484v-43.202c8.895-10.772 14.245-24.575 14.245-39.603v-16.388c0-3.96-2.308-7.372-5.646-8.992-1.871-54.512-46.793-98.283-101.753-98.283s-99.882 43.771-101.754 98.283c-3.338 1.62-5.646 5.032-5.646 8.992v16.388c0 15.028 5.35 28.831 14.245 39.603v43.202c-3.975 1.322-6.845 5.065-6.845 9.484 0 5.033 3.722 9.186 8.561 9.885 4.711 20.26 18.735 36.528 36.817 43.126v30.928h-51.045c-71.866 0-130.333 58.466-130.333 130.333v71.776c0 5.522 4.478 10 10 10s10-4.478 10-10v-71.776c0-60.838 49.495-110.333 110.333-110.333h76.001v41.054c0 5.522 4.477 10 10 10 5.522 0 10-4.478 10-10v-41.054h20v182.109c0 5.522 4.477 10 10 10 5.522 0 10-4.478 10-10v-182.109h75.333c60.838 0 110.333 49.495 110.333 110.333v71.776c0 5.522 4.478 10 10 10s10-4.478 10-10v-71.776c0-71.867-58.467-130.333-130.333-130.333zm-68.989-47.737h-10.71c9.186-6.108 16.102-15.358 19.221-26.202h25.427c-5.341 15.325-18.535 26.202-33.938 26.202zm-83.175-46.202h-26.658v-26.697c8.435 4.273 17.959 6.697 28.044 6.697 2.337 0 4.657-.145 6.953-.406-4.271 5.925-7.206 12.872-8.339 20.406zm92.994 0c-1.133-7.534-4.068-14.482-8.339-20.406 2.296.261 4.616.406 6.953.406 10.085 0 19.609-2.424 28.044-6.697v26.697zm40.903-88.677v6.388c0 23.318-18.971 42.289-42.289 42.289-14.929 0-28.91-8.016-36.488-20.92-1.796-3.058-5.077-4.936-8.623-4.936s-6.827 1.878-8.623 4.936c-7.578 12.904-21.56 20.92-36.488 20.92-23.318 0-42.289-18.971-42.289-42.289v-6.388zm-87.4 68.677c14.9 0 27.023 12.123 27.023 27.024s-12.123 27.024-27.023 27.024-27.023-12.123-27.023-27.024 12.123-27.024 27.023-27.024zm0-165.952c43.591 0 79.321 34.266 81.69 77.275h-163.379c2.368-43.009 38.098-77.275 81.689-77.275zm-70.615 205.952h25.427c3.119 10.844 10.035 20.094 19.221 26.202h-10.71c-15.404 0-28.598-10.877-33.938-26.202zm35.993 73.939v-27.736h69.822v27.736z"/><path id="XMLID_1106_" d="m236.33 415.95c2.64 0 5.21-1.07 7.069-2.931 1.87-1.87 2.931-4.439 2.931-7.069 0-2.641-1.061-5.221-2.931-7.07-1.85-1.87-4.43-2.93-7.069-2.93-2.63 0-5.21 1.06-7.07 2.93-1.86 1.86-2.93 4.43-2.93 7.07 0 2.63 1.069 5.199 2.93 7.069 1.87 1.861 4.44 2.931 7.07 2.931z"/><path id="XMLID_1122_" d="m33.474 230.669 7.868-7.867c4.431 2.826 9.374 4.914 14.659 6.09v11.108c0 5.523 4.478 10 10 10s10-4.477 10-10v-11.108c5.285-1.177 10.228-3.264 14.66-6.091l7.867 7.867c1.953 1.953 4.512 2.929 7.071 2.929s5.118-.977 7.071-2.929c3.905-3.905 3.905-10.237 0-14.142l-7.867-7.868c2.826-4.432 4.914-9.374 6.09-14.659h11.107c5.522 0 10-4.477 10-10s-4.478-10-10-10h-11.108c-1.177-5.285-3.264-10.228-6.09-14.659l7.867-7.868c3.905-3.905 3.905-10.237 0-14.142-3.906-3.905-10.238-3.905-14.143.001l-7.867 7.867c-4.432-2.826-9.374-4.914-14.66-6.091v-11.107c0-5.523-4.478-10-10-10s-10 4.477-10 10v11.108c-5.285 1.177-10.228 3.264-14.659 6.09l-7.868-7.867c-3.906-3.905-10.236-3.905-14.142 0-3.905 3.905-3.905 10.237 0 14.143l7.867 7.868c-2.826 4.431-4.914 9.374-6.091 14.659h-11.106c-5.523 0-10 4.477-10 10s4.477 10 10 10h11.108c1.177 5.285 3.264 10.228 6.091 14.659l-7.867 7.868c-3.905 3.905-3.905 10.237 0 14.143 1.953 1.953 4.512 2.929 7.071 2.929 2.559-.002 5.118-.978 7.071-2.931zm32.526-72.669c14.337 0 26 11.664 26 26s-11.663 26-26 26-26-11.664-26-26 11.663-26 26-26z"/><path id="XMLID_1125_" d="m502 174h-11.108c-1.177-5.285-3.264-10.228-6.091-14.659l7.867-7.868c3.905-3.905 3.905-10.237 0-14.142-3.906-3.905-10.238-3.905-14.143.001l-7.867 7.867c-4.432-2.826-9.374-4.914-14.66-6.091v-11.108c0-5.523-4.478-10-10-10s-10 4.477-10 10v11.108c-5.285 1.177-10.228 3.264-14.659 6.09l-7.867-7.867c-3.906-3.905-10.236-3.905-14.143 0-3.905 3.905-3.905 10.237 0 14.143l7.867 7.868c-2.826 4.431-4.914 9.374-6.091 14.659h-11.105c-5.522 0-10 4.477-10 10s4.478 10 10 10h11.108c1.177 5.285 3.264 10.228 6.091 14.659l-7.867 7.868c-3.905 3.905-3.905 10.237 0 14.143 1.953 1.953 4.512 2.929 7.071 2.929 2.56 0 5.118-.976 7.071-2.929l7.867-7.867c4.431 2.826 9.374 4.914 14.659 6.09v11.106c0 5.523 4.478 10 10 10s10-4.477 10-10v-11.108c5.285-1.177 10.228-3.264 14.66-6.091l7.867 7.867c1.953 1.953 4.512 2.929 7.071 2.929s5.118-.977 7.071-2.929c3.905-3.905 3.905-10.237 0-14.142l-7.867-7.868c2.826-4.432 4.914-9.374 6.091-14.659h11.107c5.522 0 10-4.477 10-10s-4.478-9.999-10-9.999zm-56 36c-14.337 0-26-11.664-26-26s11.663-26 26-26 26 11.664 26 26-11.663 26-26 26z"/></g></g></g></svg>