<svg id="Capa_1" enable-background="new 0 0 511.085 511.085" height="512" viewBox="0 0 511.085 511.085" width="512" xmlns="http://www.w3.org/2000/svg"><g id="XMLID_122_"><circle id="XMLID_2140_" cx="198" cy="198" fill="#a0c8ff" r="188"/><circle id="XMLID_2139_" cx="198" cy="198" fill="#fff" r="137.873"/><path id="XMLID_2065_" d="m351.101 400.22 90.691 90.691c13.564 13.564 35.555 13.564 49.119 0 13.564-13.564 13.564-35.555 0-49.119l-90.691-90.691z" fill="#e7e9ef"/><path id="XMLID_2064_" d="m304.647 323.32h96.633v59.277h-96.633z" fill="#ff5c7d" transform="matrix(.707 -.707 .707 .707 -146.198 352.962)"/><path id="XMLID_2355_" d="m194.339 285c-11.782 0-21.333-9.551-21.333-21.333v-34c0-11.782 9.551-21.333 21.333-21.333 11.782 0 21.333 9.551 21.333 21.333v34c.001 11.782-9.551 21.333-21.333 21.333z" fill="#b7eabc"/><ellipse id="XMLID_2353_" cx="243.006" cy="153.471" fill="#ff5c7d" rx="23.333" ry="23.333" transform="matrix(.924 -.383 .383 .924 -40.233 104.677)"/><ellipse id="XMLID_2352_" cx="144.611" cy="154.927" fill="#ffd88e" rx="23.333" ry="23.333" transform="matrix(.924 -.383 .383 .924 -48.28 67.134)"/><g id="XMLID_59_"><path id="XMLID_141_" d="m245.62 57.965c-5.231-1.777-10.908 1.021-12.687 6.249-1.777 5.229 1.021 10.909 6.249 12.687 51.853 17.628 86.691 66.294 86.691 121.1 0 70.509-57.363 127.873-127.873 127.873s-127.873-57.364-127.873-127.873c0-54.805 34.837-103.47 86.687-121.099 5.229-1.778 8.026-7.458 6.249-12.687-1.778-5.229-7.46-8.027-12.686-6.249-59.963 20.387-100.25 76.662-100.25 140.035 0 81.538 66.336 147.873 147.873 147.873s147.873-66.336 147.873-147.873c0-63.374-40.289-119.65-100.253-140.036z"/><path id="XMLID_803_" d="m497.982 434.721-85.362-85.362 2.537-2.537c1.875-1.876 2.929-4.419 2.929-7.071s-1.054-5.196-2.929-7.071l-42.152-42.152c14.668-27.633 22.995-59.124 22.995-92.527 0-109.178-88.822-198-198-198s-198 88.822-198 198 88.822 198 198 198c33.407 0 64.901-8.328 92.534-22.999l42.15 42.15c1.953 1.953 4.512 2.929 7.071 2.929s5.119-.977 7.071-2.929l2.531-2.531 85.363 85.362c8.449 8.449 19.683 13.102 31.631 13.102 11.949 0 23.182-4.653 31.631-13.102s13.103-19.683 13.103-31.631c0-11.949-4.653-23.182-13.103-31.631zm-477.982-236.72c0-98.15 79.851-178.001 178-178.001s178 79.851 178 178-79.851 178-178 178-178-79.85-178-177.999zm288.223 164.404c21.377-14.378 39.808-32.811 54.186-54.188l31.534 31.534-54.188 54.188zm175.617 121.436c-4.671 4.671-10.882 7.244-17.488 7.244-6.605 0-12.817-2.573-17.488-7.244l-85.364-85.363 34.977-34.977 85.362 85.362c4.672 4.671 7.245 10.882 7.245 17.488.001 6.607-2.572 12.818-7.244 17.49z"/><path id="XMLID_821_" d="m194.339 198.333c-17.277 0-31.333 14.056-31.333 31.334v34c0 17.277 14.056 31.333 31.333 31.333s31.334-14.056 31.334-31.333v-34c0-17.277-14.057-31.334-31.334-31.334zm11.334 65.334c0 6.25-5.084 11.333-11.334 11.333-6.249 0-11.333-5.084-11.333-11.333v-34c0-6.25 5.084-11.334 11.333-11.334 6.25 0 11.334 5.084 11.334 11.334z"/><path id="XMLID_824_" d="m243.006 186.804c18.38 0 33.333-14.953 33.333-33.333s-14.953-33.334-33.333-33.334-33.333 14.953-33.333 33.334c0 18.38 14.953 33.333 33.333 33.333zm0-46.667c7.352 0 13.333 5.981 13.333 13.333s-5.981 13.333-13.333 13.333-13.333-5.981-13.333-13.333c0-7.351 5.981-13.333 13.333-13.333z"/><path id="XMLID_827_" d="m111.278 154.927c0 18.38 14.953 33.333 33.333 33.333s33.333-14.953 33.333-33.333-14.953-33.333-33.333-33.333-33.333 14.953-33.333 33.333zm46.666 0c0 7.352-5.981 13.333-13.333 13.333s-13.333-5.982-13.333-13.333c0-7.352 5.981-13.333 13.333-13.333s13.333 5.981 13.333 13.333z"/><path id="XMLID_828_" d="m248.935 219.929c-3.905 3.905-3.905 10.237 0 14.143l14.5 14.5c1.953 1.953 4.512 2.929 7.071 2.929 2.56 0 5.118-.976 7.071-2.929 3.905-3.905 3.905-10.237 0-14.143l-14.5-14.5c-3.906-3.905-10.236-3.905-14.142 0z"/><path id="XMLID_829_" d="m115.673 224.251c-5.522 0-10 4.477-10 10s4.478 10 10 10h18c5.522 0 10-4.477 10-10s-4.478-10-10-10z"/><path id="XMLID_830_" d="m198.002 70.132c2.63 0 5.21-1.07 7.07-2.93 1.859-1.87 2.93-4.45 2.93-7.08s-1.07-5.2-2.93-7.07c-1.86-1.86-4.44-2.93-7.07-2.93s-5.21 1.07-7.07 2.93c-1.859 1.87-2.93 4.44-2.93 7.07s1.07 5.21 2.93 7.08c1.86 1.86 4.44 2.93 7.07 2.93z"/></g></g></svg>