<svg id="Capa_1" enable-background="new 0 0 512 512" height="512" viewBox="0 0 512 512" width="512" xmlns="http://www.w3.org/2000/svg"><g id="XMLID_268_"><path id="XMLID_1295_" d="m462 50h-412c-22.091 0-40 17.909-40 40v352c0 11.046 8.954 20 20 20h452c11.046 0 20-8.954 20-20v-352c0-22.091-17.909-40-40-40z" fill="#fff"/><path id="XMLID_1428_" d="m462 50h-412c-22.091 0-40 17.909-40 40v72h492v-72c0-22.091-17.909-40-40-40z" fill="#ffd88e"/><path id="XMLID_664_" d="m462 502h-412c-11.046 0-20-8.954-20-20v-20h452v20c0 11.046-8.954 20-20 20z" fill="#fff2a0"/><path id="XMLID_32_" d="m128 90c-12.15 0-22-9.85-22-22v-36c0-12.15 9.85-22 22-22 12.15 0 22 9.85 22 22v36c0 12.15-9.85 22-22 22z" fill="#faf7f5"/><path id="XMLID_35_" d="m384 90c-12.15 0-22-9.85-22-22v-36c0-12.15 9.85-22 22-22 12.15 0 22 9.85 22 22v36c0 12.15-9.85 22-22 22z" fill="#faf7f5"/><g id="XMLID_1513_" fill="#ff5c7d"><g id="XMLID_1496_"><path id="XMLID_1500_" d="m61.25 226h64v64h-64z"/><path id="XMLID_1499_" d="m169.75 226h64v64h-64z"/><path id="XMLID_1498_" d="m278.25 226h64v64h-64z"/><path id="XMLID_1497_" d="m386.75 226h64v64h-64z"/></g><g id="XMLID_1491_"><path id="XMLID_1495_" d="m61.25 334h64v64h-64z"/><path id="XMLID_1494_" d="m169.75 334h64v64h-64z"/><path id="XMLID_1493_" d="m278.25 334h64v64h-64z"/><path id="XMLID_1492_" d="m386.75 334h64v64h-64z"/></g></g><g id="XMLID_317_"><path id="XMLID_445_" d="m125.25 216h-64c-5.522 0-10 4.477-10 10v64c0 5.523 4.478 10 10 10h64c5.523 0 10-4.477 10-10v-64c0-5.523-4.477-10-10-10zm-10 64h-44v-44h44z"/><path id="XMLID_448_" d="m233.75 216h-64c-5.523 0-10 4.477-10 10v64c0 5.523 4.477 10 10 10h64c5.523 0 10-4.477 10-10v-64c0-5.523-4.477-10-10-10zm-10 64h-44v-44h44z"/><path id="XMLID_451_" d="m342.25 216h-64c-5.522 0-10 4.477-10 10v64c0 5.523 4.478 10 10 10h64c5.522 0 10-4.477 10-10v-64c0-5.523-4.478-10-10-10zm-10 64h-44v-44h44z"/><path id="XMLID_454_" d="m450.75 216h-64c-5.522 0-10 4.477-10 10v64c0 5.523 4.478 10 10 10h64c5.522 0 10-4.477 10-10v-64c0-5.523-4.478-10-10-10zm-10 64h-44v-44h44z"/><path id="XMLID_458_" d="m125.25 324h-64c-5.522 0-10 4.477-10 10v64c0 5.523 4.478 10 10 10h64c5.523 0 10-4.477 10-10v-64c0-5.523-4.477-10-10-10zm-10 64h-44v-44h44z"/><path id="XMLID_470_" d="m233.75 324h-64c-5.523 0-10 4.477-10 10v64c0 5.523 4.477 10 10 10h64c5.523 0 10-4.477 10-10v-64c0-5.523-4.477-10-10-10zm-10 64h-44v-44h44z"/><path id="XMLID_473_" d="m342.25 324h-64c-5.522 0-10 4.477-10 10v64c0 5.523 4.478 10 10 10h64c5.522 0 10-4.477 10-10v-64c0-5.523-4.478-10-10-10zm-10 64h-44v-44h44z"/><path id="XMLID_476_" d="m450.75 324h-64c-5.522 0-10 4.477-10 10v64c0 5.523 4.478 10 10 10h64c5.522 0 10-4.477 10-10v-64c0-5.523-4.478-10-10-10zm-10 64h-44v-44h44z"/><path id="XMLID_479_" d="m462 40h-46v-8c0-17.645-14.355-32-32-32s-32 14.355-32 32v8h-192v-8c0-17.645-14.355-32-32-32s-32 14.355-32 32v8h-46c-27.57 0-50 22.43-50 50v352c0 13.036 8.361 24.152 20 28.28v11.72c0 16.542 13.458 30 30 30h412c16.542 0 30-13.458 30-30v-11.72c11.639-4.128 20-15.243 20-28.28v-352c0-27.57-22.43-50-50-50zm-90-8c0-6.617 5.383-12 12-12s12 5.383 12 12v36c0 6.617-5.383 12-12 12s-12-5.383-12-12zm-256 0c0-6.617 5.383-12 12-12s12 5.383 12 12v36c0 6.617-5.383 12-12 12s-12-5.383-12-12zm356 450c0 5.514-4.486 10-10 10h-412c-5.514 0-10-4.486-10-10v-10h432zm10-30h-452c-5.514 0-10-4.486-10-10v-270h191.261c5.523 0 10-4.477 10-10s-4.477-10-10-10h-191.261v-62c0-16.542 13.458-30 30-30h46v8c0 17.645 14.355 32 32 32s32-14.355 32-32v-8h192v8c0 17.645 14.355 32 32 32s32-14.355 32-32v-8h46c16.542 0 30 13.458 30 30v62h-190.738c-5.522 0-10 4.477-10 10s4.478 10 10 10h190.738v270c0 5.514-4.486 10-10 10z"/><path id="XMLID_483_" d="m256.26 152.13c-2.63 0-5.21 1.07-7.07 2.93-1.859 1.86-2.93 4.44-2.93 7.07 0 2.64 1.07 5.21 2.93 7.08 1.86 1.86 4.44 2.92 7.07 2.92s5.21-1.06 7.07-2.92c1.859-1.86 2.93-4.44 2.93-7.08 0-2.63-1.07-5.21-2.93-7.07s-4.44-2.93-7.07-2.93z"/></g></g></svg>