<svg id="Capa_1" enable-background="new 0 0 512 512" height="512" viewBox="0 0 512 512" width="512" xmlns="http://www.w3.org/2000/svg"><g id="XMLID_297_"><g id="XMLID_1333_"><g id="XMLID_1335_"><path id="XMLID_1400_" d="m300.447 362.194-27.759-27.669c-10.683-10.649-16.688-25.113-16.688-40.197v-125.596c0-15.271 12.38-27.652 27.651-27.652 15.272 0 27.652 12.38 27.652 27.652v66.683-47.923-123.769c0-13.151 10.66-23.811 23.811-23.811 13.15 0 23.811 10.66 23.811 23.811v144.383-41.229-133.067c0-13.15 10.661-23.81 23.811-23.81 13.15 0 23.811 10.66 23.811 23.811v133.067 41.229-144.384c0-13.15 10.661-23.811 23.811-23.811 13.15 0 23.811 10.66 23.811 23.811v144.383-72.192c0-13.15 10.66-23.811 23.811-23.811h.209c13.151 0 23.811 10.661 23.811 23.811v165.752c0 15.032-5.963 29.45-16.581 40.09l-20.403 20.446z" fill="#a0c8ff"/></g><path id="XMLID_1334_" d="m468.947 362.208h-172.422c-7.615 0-13.789 6.173-13.789 13.789v28.423c0 7.615 6.173 13.789 13.789 13.789h172.423c7.615 0 13.789-6.173 13.789-13.789v-28.423c-.001-7.616-6.175-13.789-13.79-13.789z" fill="#80b6ff"/></g><path id="XMLID_379_" d="m106 38h-28v-28h-40v28h-28v40h28v28h40v-28h28z" fill="#ff5c7d"/><g id="XMLID_374_"><g id="XMLID_376_"><path id="XMLID_378_" d="m109.75 445.986-27.759-27.669c-10.684-10.649-16.689-25.113-16.689-40.197v-125.595c0-15.271 12.38-27.652 27.651-27.652 15.271 0 27.651 12.38 27.651 27.652v66.683-47.923-123.77c0-13.15 10.66-23.811 23.811-23.811 13.15 0 23.811 10.661 23.811 23.811v144.383-41.228-133.067c0-13.15 10.66-23.811 23.811-23.811 13.15 0 23.811 10.66 23.811 23.811v133.067 41.229-144.384c0-13.15 10.661-23.811 23.811-23.811 13.15 0 23.811 10.661 23.811 23.811v144.383-72.192c0-13.151 10.66-23.811 23.811-23.811h.209c13.15 0 23.811 10.66 23.811 23.811v165.752c0 15.032-5.963 29.45-16.581 40.09l-20.403 20.446z" fill="#bfdbff"/></g><path id="XMLID_375_" d="m278.25 446h-172.422c-7.615 0-13.789 6.173-13.789 13.789v28.423c0 7.615 6.173 13.789 13.789 13.789h172.422c7.615 0 13.789-6.173 13.789-13.789v-28.423c0-7.616-6.173-13.789-13.789-13.789z" fill="#80b6ff"/></g><g id="XMLID_111_"><path id="XMLID_1132_" d="m478.19 102.104h-.21c-4.918 0-9.59 1.065-13.811 2.961v-41.342c0-18.643-15.168-33.811-33.812-33.811-4.928 0-9.608 1.068-13.834 2.972-.494-18.216-15.454-32.884-33.787-32.884s-33.294 14.668-33.788 32.884c-4.226-1.903-8.906-2.972-13.834-2.972-18.644 0-33.812 15.168-33.812 33.811v71.765c-5.268-2.809-11.276-4.407-17.651-4.407-4.553 0-9.036.838-13.235 2.417-5.337-11.665-17.111-19.793-30.755-19.793-4.928 0-9.608 1.069-13.835 2.972-.494-18.216-15.454-32.885-33.787-32.885s-33.294 14.669-33.788 32.884c-4.226-1.903-8.906-2.972-13.834-2.972-18.644 0-33.812 15.168-33.812 33.811v71.764c-5.269-2.809-11.276-4.407-17.651-4.407-20.761 0-37.651 16.89-37.651 37.651v125.597c0 17.612 7.154 34.845 19.629 47.28l15.951 15.899c-5.389 4.365-8.843 11.03-8.843 18.49v28.422c0 13.117 10.671 23.789 23.788 23.789h172.422c13.117 0 23.789-10.672 23.789-23.789v-28.422c0-7.476-3.47-14.154-8.88-18.518l8.641-8.659c1.412-1.415 2.742-2.889 4.01-4.404h163.138c13.117 0 23.789-10.672 23.789-23.789v-28.423c0-7.476-3.47-14.154-8.88-18.518l8.641-8.658c12.576-12.602 19.502-29.348 19.502-47.153v-165.752c0-18.644-15.167-33.811-33.81-33.811zm-176.887 66.628v20.125c-4.22-1.897-8.892-2.961-13.811-2.961h-.209c-4.919 0-9.591 1.065-13.811 2.962v-34.553c2.951-2.096 6.463-3.224 10.18-3.224 9.733 0 17.651 7.918 17.651 17.651zm-19.264 319.479c0 2.089-1.7 3.789-3.789 3.789h-172.423c-2.089 0-3.788-1.7-3.788-3.789v-28.422c0-2.089 1.699-3.789 3.788-3.789h41.212c5.522 0 10-4.478 10-10s-4.478-10-10-10h-33.142l-24.847-24.765c-8.737-8.71-13.748-20.779-13.748-33.115v-125.596c0-9.733 7.918-17.651 17.651-17.651s17.651 7.919 17.651 17.651v66.683c0 5.522 4.478 10 10 10s10-4.478 10-10v-171.691c0-7.615 6.196-13.811 13.812-13.811 7.615 0 13.81 6.196 13.81 13.811v144.383c0 5.522 4.478 10 10 10 5.523 0 10-4.478 10-10v-174.296c0-7.615 6.196-13.811 13.812-13.811 7.615 0 13.811 6.196 13.811 13.811v174.295c0 5.522 4.478 10 10 10 5.523 0 10-4.478 10-10v-144.382c0-7.615 6.196-13.811 13.812-13.811 7.615 0 13.811 6.196 13.811 13.811v144.383c0 5.522 4.477 10 10 10 5.522 0 10-4.478 10-10v-72.191c0-7.615 6.196-13.811 13.811-13.811h.209c7.615 0 13.811 6.196 13.811 13.811v165.752c0 12.471-4.851 24.2-13.659 33.026l-17.479 17.514h-33.127c-5.523 0-10 4.478-10 10s4.477 10 10 10h41.212c2.089 0 3.789 1.7 3.789 3.789zm190.697-83.792c0 2.089-1.7 3.789-3.789 3.789h-151.609c2.603-7.198 3.965-14.869 3.965-22.749v-13.251h147.645c2.089 0 3.789 1.699 3.789 3.788v28.423zm19.264-102.752c0 12.47-4.851 24.199-13.659 33.026l-17.478 17.515h-139.56v-288.485c0-7.615 6.196-13.811 13.812-13.811 7.615 0 13.811 6.196 13.811 13.811v144.383c0 5.523 4.478 10 10 10s10-4.477 10-10v-174.295c0-7.615 6.196-13.811 13.811-13.811s13.811 6.196 13.811 13.811v174.295c0 5.523 4.478 10 10 10s10-4.477 10-10v-144.383c0-7.615 6.195-13.811 13.81-13.811s13.812 6.196 13.812 13.811v144.383c0 5.523 4.478 10 10 10s10-4.477 10-10v-72.191c0-7.615 6.195-13.811 13.811-13.811h.21c7.615 0 13.81 6.196 13.81 13.811v165.752z"/><path id="XMLID_1138_" d="m88 106v-18h18c5.522 0 10-4.477 10-10v-40c0-5.523-4.478-10-10-10h-18v-18c0-5.523-4.478-10-10-10h-40c-5.522 0-10 4.477-10 10v18h-18c-5.523 0-10 4.477-10 10v40c0 5.523 4.477 10 10 10h18v18c0 5.523 4.478 10 10 10h40c5.522 0 10-4.477 10-10zm-20-28v18h-20v-18c0-5.523-4.478-10-10-10h-18v-20h18c5.522 0 10-4.477 10-10v-18h20v18c0 5.523 4.478 10 10 10h18v20h-18c-5.522 0-10 4.477-10 10z"/><path id="XMLID_1139_" d="m192.04 436c-2.641 0-5.21 1.069-7.07 2.93-1.86 1.86-2.93 4.44-2.93 7.07s1.069 5.21 2.93 7.069c1.86 1.86 4.441 2.931 7.07 2.931 2.63 0 5.21-1.07 7.069-2.931 1.86-1.859 2.931-4.439 2.931-7.069s-1.07-5.21-2.931-7.07c-1.859-1.861-4.439-2.93-7.069-2.93z"/></g></g></svg>