<svg id="Capa_1" data-name="Capa 1" xmlns="http://www.w3.org/2000/svg" viewBox="0 0 512 512"><defs><style>.cls-1{fill:#ed163c;}</style></defs><circle class="cls-1" cx="256.4" cy="204.47" r="119.1"/><path d="M278.4,420a10,10,0,0,0-10,10v72a10,10,0,0,0,20,0V430A10,10,0,0,0,278.4,420Z" transform="translate(0.7 -0.03)"/><path d="M57.3,487.43A18.33,18.33,0,0,1,44.6,492c-14,0-25.3-11.7-25.3-26s11.4-26,25.3-26a25.32,25.32,0,0,1,12.6,3.4,10,10,0,1,0,10.2-17.2A44.54,44.54,0,0,0,44.7,420C19.6,420-.7,440.63-.7,466s20.3,46,45.3,46a38.29,38.29,0,0,0,26.1-9.7,10,10,0,0,0-13.4-14.9Z" transform="translate(0.7 -0.03)"/><path d="M241.6,420.63a10,10,0,0,0-12.6,6.3l-15.7,47.4-16.5-47.6a10,10,0,0,0-18.9,6.5l24.6,71a11.58,11.58,0,0,0,11,7.7h.1a11.82,11.82,0,0,0,11-7.9l23.5-70.8a10.24,10.24,0,0,0-6.5-12.6Z" transform="translate(0.7 -0.03)"/><path d="M130.5,420.13a34.72,34.72,0,0,0-34.7,34.7v22.5a34.7,34.7,0,0,0,69.4,0v-22.5a34.65,34.65,0,0,0-34.7-34.7Zm14.7,57.2a14.7,14.7,0,0,1-29.4,0v-22.5a14.7,14.7,0,0,1,29.4,0Z" transform="translate(0.7 -0.03)"/><path d="M416.3,420H403.7a10,10,0,0,0,0,20h2.6v62a10,10,0,0,0,20,0V430A10,10,0,0,0,416.3,420Z" transform="translate(0.7 -0.03)"/><path d="M511.3,451.43a30.8,30.8,0,1,0-31.3,30.8,60.17,60.17,0,0,1-10.5,11.6,10,10,0,0,0-2,14,10.13,10.13,0,0,0,8,4,9.63,9.63,0,0,0,6-2c1-.8,25.2-19.1,29.5-53.6A36.36,36.36,0,0,0,511.3,451.43Zm-41.6,0a10.8,10.8,0,1,1,10.8,10.8A10.82,10.82,0,0,1,469.7,451.43Z" transform="translate(0.7 -0.03)"/><path d="M422.6,176.43a28.19,28.19,0,0,0-26.3,18.1H383.8a128.5,128.5,0,0,0-10.2-41.2,10,10,0,0,0-18.3,7.9A109.1,109.1,0,0,1,339,274.13l-6.3-6.3a10,10,0,1,0-14.1,14.1l6.3,6.3a109,109,0,0,1-139.4,0l1-1a10,10,0,0,0-14.1-14.1l-1,1a109,109,0,0,1,0-139.4l8.2,8.2a9.82,9.82,0,0,0,7.1,2.9,10.24,10.24,0,0,0,7.1-2.9,10,10,0,0,0,0-14.1l-8.2-8.2a109.22,109.22,0,0,1,112.5-16.5,10,10,0,0,0,7.8-18.4,127.11,127.11,0,0,0-40.7-9.9V63.63a32.6,32.6,0,1,0-20,0v12.2a128.9,128.9,0,0,0-73.9,30.7l-8-8a30.45,30.45,0,0,0,3.2-13.8,31.1,31.1,0,1,0-31.1,31.1,32.15,32.15,0,0,0,13.8-3.2l8,8a128.9,128.9,0,0,0-30.7,73.9H114a28.1,28.1,0,1,0,0,20h12.5a128.9,128.9,0,0,0,30.7,73.9L142,303.63a30.45,30.45,0,0,0-13.8-3.2,31.1,31.1,0,1,0,31.1,31.1,32.15,32.15,0,0,0-3.2-13.8l15.2-15.2a128.9,128.9,0,0,0,73.9,30.7v12.5a28.1,28.1,0,1,0,20,0v-12.5a128.9,128.9,0,0,0,73.9-30.7l7.3,7.3a30.45,30.45,0,0,0-3.2,13.8,31.1,31.1,0,1,0,31.1-31.1,32.15,32.15,0,0,0-13.8,3.2l-7.3-7.3a128.9,128.9,0,0,0,30.7-73.9h12.4a28.12,28.12,0,1,0,26.3-38.1ZM255.1,20a12.6,12.6,0,1,1-12.6,12.6A12.61,12.61,0,0,1,255.1,20ZM135.3,95.93a11.1,11.1,0,1,1,11.1-11.1A11.14,11.14,0,0,1,135.3,95.93ZM87.6,212.63a8.1,8.1,0,1,1,8.1-8.1A8.07,8.07,0,0,1,87.6,212.63Zm40.5,130.1a11.1,11.1,0,1,1,11.1-11.1A11.14,11.14,0,0,1,128.1,342.73Zm127,37.4a8.1,8.1,0,1,1,8.1-8.1,8.07,8.07,0,0,1-8.1,8.1Zm119.1-67.6a11.1,11.1,0,1,1-11.1,11.1A11.14,11.14,0,0,1,374.2,312.53Zm48.4-99.9a8.1,8.1,0,1,1,8.1-8.1A8.07,8.07,0,0,1,422.6,212.63Z" transform="translate(0.7 -0.03)"/><path d="M169.3,204.53a31.1,31.1,0,1,0,31.1-31.1A31.13,31.13,0,0,0,169.3,204.53Zm42.2,0a11.1,11.1,0,1,1-11.1-11.1A11.14,11.14,0,0,1,211.5,204.53Z" transform="translate(0.7 -0.03)"/><path d="M276.3,131.23a31.1,31.1,0,1,0,31.1,31.1A31.13,31.13,0,0,0,276.3,131.23Zm0,42.2a11.1,11.1,0,1,1,11.1-11.1A11.14,11.14,0,0,1,276.3,173.43Z" transform="translate(0.7 -0.03)"/><path d="M267.7,228.13a31.1,31.1,0,1,0,31.1,31.1A31.13,31.13,0,0,0,267.7,228.13Zm0,42.2a11.1,11.1,0,1,1,11.1-11.1A11.14,11.14,0,0,1,267.7,270.33Z" transform="translate(0.7 -0.03)"/><path d="M386,104.73a31.1,31.1,0,1,0-31.1-31.1A31.13,31.13,0,0,0,386,104.73Zm0-42.2a11.1,11.1,0,1,1-11.1,11.1A11.14,11.14,0,0,1,386,62.53Z" transform="translate(0.7 -0.03)"/><path d="M339.1,130.23a10.52,10.52,0,0,0,7.1-2.9,9.9,9.9,0,0,0,2.9-7.1,10.52,10.52,0,0,0-2.9-7.1,9.9,9.9,0,0,0-7.1-2.9,10.33,10.33,0,0,0-7.1,2.9,9.9,9.9,0,0,0-2.9,7.1,9.9,9.9,0,0,0,10,10Z" transform="translate(0.7 -0.03)"/><path d="M334.6,420H318.4a10.33,10.33,0,0,0-7.1,2.9,9.9,9.9,0,0,0-2.9,7.1v72a10.09,10.09,0,0,0,3.1,7.1,9.84,9.84,0,0,0,7,2.9h.1c.4,0,11-.1,16.8-.2,22.2-.4,38.3-19.7,38.3-45.8,0-27.5-15.7-46-39.1-46Zm.4,71.8c-1.8,0-4.2.1-6.5.1,0-8.4-.1-43.1-.1-51.9h6.2c17.7,0,19.1,19.9,19.1,26C353.7,478.73,347.9,491.63,335,491.83Z" transform="translate(0.7 -0.03)"/></svg>