<svg id="Capa_1" enable-background="new 0 0 512 512" height="512" viewBox="0 0 512 512" width="512" xmlns="http://www.w3.org/2000/svg"><g id="XMLID_468_"><g id="XMLID_1754_"><path id="XMLID_3224_" d="m296.781 104.461c1.114-3.799 1.712-7.818 1.712-11.978 0-23.463-19.02-42.483-42.483-42.483s-42.483 19.02-42.483 42.483c0 4.159.597 8.178 1.711 11.976z" fill="#ffd88e"/><path id="XMLID_3223_" d="m256 92.483c-41.606 0-75.333 33.728-75.333 75.333v63.37c0 41.605 33.728 75.333 75.333 75.333 41.605 0 75.333-33.728 75.333-75.333v-63.37c0-41.605-33.728-75.333-75.333-75.333z" fill="#ffd0c7"/><path id="XMLID_3222_" d="m277.475 95.607-10.804 54.398 64.662 27.588v-9.777c0-34.141-22.718-62.961-53.858-72.209z" fill="#ffd88e"/><path id="XMLID_3221_" d="m256 92.483c-41.605 0-75.333 33.728-75.333 75.333v7.252h28.781c38.995 0 70.608-31.612 70.608-70.608v-8.03c-7.557-2.546-15.641-3.947-24.056-3.947z" fill="#ffd88e"/><g id="XMLID_3219_"><path id="XMLID_3220_" d="m216 292.09v25.492c0 11.782-9.551 21.334-21.334 21.334-84.315 0-152.666 68.351-152.666 152.666v10.418h428v-10.418c0-84.315-68.351-152.666-152.666-152.666-11.783 0-21.334-9.552-21.334-21.334v-25.652z" fill="#ff9171"/></g><path id="XMLID_3218_" d="m201.483 341.732c30.109 30.109 78.925 30.109 109.034 0l3.66-3.05c-10.285-1.526-18.177-10.39-18.177-21.1v-25.652l-80 .16v25.492c0 11.296-8.78 20.535-19.887 21.28z" fill="#ffd0c7"/><path id="XMLID_3213_" d="m256.001 306.52c41.595 0 75.315-33.72 75.315-75.315v-5.7c-20.165 10.587-44.772 9.725-64.213-2.587-6.758-4.28-15.447-4.279-22.204 0-19.441 12.312-44.048 13.174-64.212 2.587v5.7c-.001 41.596 33.719 75.315 75.314 75.315z" fill="#a0c8ff"/><g fill="#ff9171"><circle id="XMLID_3080_" cx="66" cy="66" r="36"/><circle id="XMLID_3069_" cx="446" cy="200" r="36"/></g></g><g id="XMLID_220_"><path id="XMLID_1393_" d="m112.669 98.526-7.867-7.867c2.826-4.432 4.914-9.374 6.09-14.659h11.108c5.522 0 10-4.478 10-10s-4.478-10-10-10h-11.108c-1.177-5.285-3.264-10.228-6.09-14.659l7.867-7.867c3.905-3.905 3.905-10.237 0-14.142-3.906-3.904-10.236-3.904-14.143 0l-7.867 7.867c-4.432-2.826-9.374-4.914-14.659-6.09v-11.109c0-5.523-4.478-10-10-10s-10 4.477-10 10v11.108c-5.285 1.177-10.228 3.264-14.659 6.09l-7.867-7.867c-3.906-3.904-10.236-3.904-14.142 0-3.905 3.905-3.905 10.237 0 14.142l7.867 7.867c-2.826 4.432-4.914 9.374-6.09 14.659h-11.109c-5.523.001-10 4.479-10 10.001s4.477 10 10 10h11.108c1.177 5.285 3.264 10.228 6.09 14.659l-7.867 7.867c-3.905 3.905-3.905 10.237 0 14.143 1.953 1.952 4.512 2.929 7.071 2.929 2.56 0 5.118-.977 7.071-2.929l7.867-7.867c4.432 2.826 9.374 4.914 14.659 6.09v11.108c0 5.522 4.478 10 10 10s10-4.478 10-10v-11.108c5.285-1.177 10.228-3.264 14.659-6.09l7.867 7.867c1.953 1.952 4.512 2.929 7.071 2.929 2.56 0 5.118-.977 7.071-2.929 3.907-3.905 3.907-10.237.002-14.143zm-46.669-6.526c-14.337 0-26-11.663-26-26s11.663-26 26-26 26 11.663 26 26-11.663 26-26 26z"/><path id="XMLID_1401_" d="m502 190h-11.108c-1.177-5.285-3.264-10.227-6.091-14.659l7.867-7.867c3.905-3.905 3.905-10.237 0-14.143-3.906-3.904-10.236-3.904-14.143 0l-7.867 7.867c-4.432-2.826-9.374-4.914-14.659-6.09v-11.108c0-5.523-4.478-10-10-10s-10 4.477-10 10v11.108c-5.285 1.177-10.228 3.264-14.659 6.09l-7.867-7.867c-3.906-3.904-10.236-3.904-14.143 0-3.905 3.905-3.905 10.237 0 14.143l7.867 7.867c-2.826 4.432-4.914 9.374-6.091 14.659h-11.106c-5.522 0-10 4.477-10 10s4.478 10 10 10h11.108c1.177 5.285 3.264 10.227 6.091 14.659l-7.867 7.867c-3.905 3.905-3.905 10.237 0 14.143 1.953 1.952 4.512 2.929 7.071 2.929 2.56 0 5.118-.977 7.071-2.929l7.867-7.867c4.432 2.826 9.374 4.914 14.659 6.09v11.108c0 5.522 4.478 10 10 10s10-4.478 10-10v-11.108c5.285-1.177 10.228-3.264 14.659-6.09l7.867 7.867c1.953 1.952 4.512 2.929 7.071 2.929 2.56 0 5.118-.977 7.071-2.929 3.905-3.905 3.905-10.237 0-14.143l-7.867-7.867c2.826-4.432 4.914-9.374 6.091-14.659h11.108c5.522 0 10-4.477 10-10s-4.478-10-10-10zm-56 36c-14.337 0-26-11.663-26-26s11.663-26 26-26 26 11.663 26 26-11.663 26-26 26z"/><path id="XMLID_1462_" d="m317.334 328.916c-6.25 0-11.334-5.084-11.334-11.334v-17.308c21.387-15.522 35.333-40.7 35.333-69.088v-63.37c0-27.525-13.112-52.032-33.404-67.646.373-2.537.564-5.105.564-7.687 0-28.939-23.544-52.483-52.483-52.483-28.938 0-52.482 23.544-52.482 52.483 0 2.577.19 5.141.562 7.672-20.302 15.614-33.422 40.128-33.422 67.661v63.37c0 28.388 13.946 53.566 35.333 69.088v17.308c0 6.25-5.084 11.334-11.334 11.334-26.864 0-53.491 6.69-77.003 19.346-4.862 2.618-6.683 8.683-4.065 13.546 1.807 3.355 5.253 5.262 8.814 5.262 1.6 0 3.224-.385 4.731-1.196 20.568-11.073 43.868-16.933 67.39-16.955 16.436 16.376 38.258 25.396 61.467 25.396s45.03-9.019 61.467-25.396c78.604.071 142.532 64.041 142.532 142.663v10.418c0 5.522 4.478 10 10 10s10-4.478 10-10v-10.418c0-89.694-72.972-162.666-162.666-162.666zm-126.667-143.848h18.781c22.457 0 42.79-9.24 57.421-24.107l54.464 23.238v34.885c-15.971 6.283-34.222 4.671-48.883-4.614-9.995-6.33-22.912-6.329-32.905.001-14.657 9.281-32.908 10.896-48.878 4.615zm130.42-22.719-41.745-17.811c5.636-9.791 9.278-20.862 10.36-32.67 17.468 10.563 29.601 29.074 31.385 50.481zm-65.077-102.349c16.681 0 30.459 12.641 32.274 28.844-9.966-4.089-20.863-6.361-32.284-6.361-11.414 0-22.303 2.269-32.262 6.353 1.819-16.2 15.594-28.836 32.272-28.836zm-.01 42.483c4.833 0 9.54.544 14.078 1.544-.006.145-.022.287-.022.433 0 33.419-27.188 60.608-60.607 60.608h-18.711c1.446-34.753 30.159-62.585 65.262-62.585zm-64.681 137.835c6.297 1.682 12.761 2.526 19.22 2.526 13.848 0 27.662-3.849 39.707-11.477 3.494-2.213 8.01-2.214 11.504-.001 17.664 11.187 39.133 14.238 58.932 8.949-4.456 31.718-31.756 56.206-64.682 56.206-32.925 0-60.224-24.487-64.681-56.203zm24.333 100.51c6.35-5.738 10.348-14.033 10.348-23.246v-6.521c9.339 3.519 19.445 5.459 30 5.459s20.661-1.94 30-5.459v6.521c0 9.212 3.998 17.507 10.348 23.246-11.569 8.745-25.592 13.486-40.348 13.486s-28.779-4.741-40.348-13.486z"/><path id="XMLID_1468_" d="m64.527 411.099c-4.873-2.597-10.931-.749-13.526 4.126-12.431 23.341-19.001 49.745-19.001 76.357v10.418c0 5.522 4.478 10 10 10s10-4.478 10-10v-10.418c0-23.346 5.759-46.498 16.653-66.957 2.597-4.874.749-10.931-4.126-13.526z"/><path id="XMLID_1469_" d="m86.35 374c-2.63 0-5.21 1.069-7.069 2.93-1.86 1.86-2.931 4.44-2.931 7.07s1.07 5.21 2.931 7.069c1.859 1.861 4.439 2.931 7.069 2.931s5.21-1.07 7.07-2.931c1.86-1.859 2.93-4.439 2.93-7.069s-1.069-5.21-2.93-7.07c-1.86-1.861-4.441-2.93-7.07-2.93z"/></g></g></svg>