<svg id="Capa_1" enable-background="new 0 0 512 512" height="512" viewBox="0 0 512 512" width="512" xmlns="http://www.w3.org/2000/svg"><g id="XMLID_101_"><path id="XMLID_1841_" d="m392.516 420.58 28.064-28.064c7.81-7.81 7.81-20.474 0-28.284l-25.301-25.301-56.348 56.348 25.301 25.301c7.81 7.81 20.474 7.81 28.284 0z" fill="#ff5c7d"/><path id="XMLID_1810_" d="m336.168 398.041 61.872-61.872c7.81-7.81 7.81-20.474 0-28.284l-235.901-235.902-90.156 90.157 235.901 235.901c7.811 7.81 20.474 7.81 28.284 0z" fill="#dfedff"/><path id="XMLID_1872_" d="m398.041 307.884-96.951-96.951-90.157 90.157 96.951 96.951c7.81 7.811 20.474 7.811 28.284 0l61.872-61.872c7.811-7.811 7.811-20.474.001-28.285z" fill="#ff5c7d"/><path id="XMLID_1811_" d="m180.418 218.601h120.196v43.828h-120.196z" fill="#8690af" transform="matrix(.707 -.707 .707 .707 -99.625 240.516)"/><path id="XMLID_1783_" d="m61.338 35.44h43.828v95.625h-43.828z" fill="#e7e9ef" transform="matrix(-.707 .707 -.707 -.707 200.989 83.252)"/><path id="XMLID_1782_" d="m149.126 94.702h43.828v152.677h-43.828z" fill="#e7e9ef" transform="matrix(-.707 .707 -.707 -.707 412.928 171.04)"/><g id="XMLID_202_"><path id="XMLID_285_" d="m509.072 494.929-88.381-88.381 6.961-6.961c5.666-5.667 8.787-13.2 8.787-21.214 0-8.013-3.121-15.547-8.787-21.213l-18.671-18.671c7.641-11.634 6.352-27.455-3.868-37.677l-11.81-11.81c-3.904-3.905-10.237-3.905-14.142 0s-3.905 10.237 0 14.142l11.81 11.81c3.899 3.899 3.899 10.244 0 14.142l-61.872 61.872c-3.899 3.899-10.244 3.899-14.142 0l-89.88-89.88 76.015-76.014 14.428 14.428c3.905 3.905 10.238 3.905 14.142 0 3.905-3.905 3.905-10.237 0-14.142l-153.38-153.377 5.123-5.123c3.905-3.905 3.905-10.237 0-14.143-3.905-3.905-10.237-3.905-14.143 0l-34.706 34.706-53.474-53.475 16.877-16.876c3.905-3.905 3.905-10.237 0-14.143-3.905-3.905-10.237-3.905-14.143 0l-78.887 78.887c-3.905 3.905-3.905 10.237 0 14.143 1.953 1.953 4.512 2.929 7.071 2.929s5.119-.976 7.071-2.929l16.876-16.877 53.475 53.475-34.706 34.706c-3.905 3.905-3.905 10.237 0 14.143 1.953 1.953 4.512 2.929 7.071 2.929s5.119-.976 7.071-2.929l5.123-5.123 228.831 228.83c5.848 5.848 13.53 8.772 21.213 8.772 5.743 0 11.486-1.635 16.463-4.904l18.671 18.671c5.666 5.666 13.2 8.787 21.213 8.787 8.014 0 15.547-3.121 21.214-8.787l6.961-6.961 88.381 88.381c1.953 1.953 4.512 2.929 7.071 2.929s5.119-.976 7.071-2.929c3.906-3.906 3.906-10.238.002-14.143zm-298.139-207.982-16.849-16.849 76.015-76.014 16.849 16.849zm-78.376-171.239 93.816 93.816-16.849 16.849-93.816-93.816zm123.399 64.233-15.441 15.44-93.816-93.816 15.44-15.44zm-207.866-115.002 16.85-16.849 53.475 53.475-16.849 16.849zm53.476 81.76 93.816 93.816-15.44 15.44-93.817-93.815zm269.737 266.81-18.23-18.23 42.206-42.206 18.23 18.23c1.889 1.889 2.929 4.4 2.929 7.071s-1.04 5.183-2.929 7.071l-28.064 28.064c-3.898 3.9-10.243 3.899-14.142 0z"/><path id="XMLID_303_" d="m354.41 274.25c2.63 0 5.21-1.07 7.07-2.93s2.93-4.44 2.93-7.07-1.07-5.21-2.93-7.07-4.44-2.93-7.07-2.93c-2.64 0-5.21 1.07-7.07 2.93s-2.93 4.44-2.93 7.07c0 2.64 1.07 5.21 2.93 7.07s4.44 2.93 7.07 2.93z"/></g></g></svg>