<svg id="Capa_1" enable-background="new 0 0 512 512" height="512" viewBox="0 0 512 512" width="512" xmlns="http://www.w3.org/2000/svg"><g id="XMLID_2644_"><g id="XMLID_2264_"><g id="XMLID_3165_"><ellipse id="XMLID_3172_" cx="199.687" cy="138.139" fill="#fff" rx="189.687" ry="128.139"/><circle id="XMLID_3171_" cx="199.687" cy="138.139" fill="#a0c8ff" r="86.361"/><ellipse id="XMLID_3170_" cx="199.687" cy="138.139" fill="#c68a65" rx="43.181" ry="43.181" transform="matrix(.972 -.234 .234 .972 -26.787 50.579)"/></g><path id="XMLID_3201_" d="m227.197 204.564v27.598c0-12.209-9.897-22.106-22.106-22.106-12.209 0-22.106 9.897-22.106 22.106l-.002 121.432c0 3.859-5.518 4.526-6.437.777l-5.995-24.454c-2.84-11.586-14.181-18.983-25.929-16.911-12.494 2.203-20.742 14.238-18.287 26.685l11.603 58.841c4.177 21.182 14.573 40.637 29.861 55.882l23.957 23.889v23.697h120.68v-23.943l15.484-15.44c20.431-20.372 31.913-48.038 31.913-76.89v-105.231c0-12.209-9.897-22.106-22.106-22.106-12.209 0-22.106 9.897-22.106 22.106v-48.334c0-12.209-9.897-22.106-22.106-22.106-12.209 0-22.106 9.897-22.106 22.106v-27.598c0-12.209-9.897-22.106-22.106-22.106-12.209 0-22.106 9.897-22.106 22.106z" fill="#ffd0c7"/><g id="XMLID_3106_"><circle id="XMLID_3163_" cx="402" cy="402" fill="#faf7f5" r="100"/><path id="XMLID_3111_" d="m402 302c-55.229 0-100 44.772-100 100s44.771 100 100 100 100-44.772 100-100-44.771-100-100-100zm-42.427 142.427c-18.492-18.492-22.377-46.046-11.682-68.361.051.053.094.11.147.162l79.639 79.639c.085.085.178.155.264.238-22.317 10.7-49.875 6.815-68.368-11.678zm96.595-16.615c-.072-.074-.134-.156-.208-.229l-79.638-79.639c-.041-.041-.087-.075-.128-.116 22.292-10.618 49.776-6.711 68.232 11.746 18.457 18.458 22.364 45.945 11.742 68.238z" fill="#ff5c7d"/></g><g id="XMLID_2647_"><circle id="XMLID_3102_" cx="36.916" cy="302" fill="#b7eabc" r="20"/></g><g id="XMLID_2288_"><circle id="XMLID_2289_" cx="448" cy="44" fill="#b7eabc" r="20"/></g></g><g id="XMLID_571_"><path id="XMLID_1310_" d="m402 292c-11.187 0-21.987 1.684-32.167 4.802v-16.306c0-17.703-14.403-32.106-32.106-32.106-4.282 0-8.367.849-12.106 2.378v-15.373c32.741-23.785 57.933-56.01 73.029-93.522.964-2.396.964-5.071 0-7.467-15.787-39.23-42.608-72.682-77.563-96.74-35.8-24.642-77.78-37.666-121.4-37.666-35.749 0-71.14 8.979-102.347 25.965-4.851 2.641-6.643 8.713-4.002 13.564 2.641 4.852 8.715 6.644 13.564 4.003 28.282-15.395 60.366-23.532 92.785-23.532 78.452 0 148.218 46.232 178.863 118.138-12.786 29.972-32.772 56.056-58.317 76.246-5.761-8.63-15.585-14.328-26.718-14.328-4.311 0-8.423.86-12.183 2.408-.223-3.436-.989-6.723-2.213-9.782 11.086-16.065 16.929-34.782 16.929-54.542 0-53.134-43.227-96.361-96.361-96.361s-96.362 43.228-96.362 96.361c0 43.439 28.774 80.909 69.695 92.609-.02.469-.036.94-.036 1.414v22.282c-66.883-9.301-125.478-53.867-152.159-116.306 5.926-13.877 13.479-27.059 22.487-39.235 3.285-4.44 2.348-10.702-2.092-13.986-4.441-3.285-10.702-2.349-13.986 2.092-10.822 14.628-19.741 30.574-26.511 47.398-.964 2.395-.964 5.071 0 7.467 14.697 36.52 39.208 68.316 70.883 91.951 29.783 22.223 64.661 36.226 101.378 40.797l-.002 39.056c-7.316-8.223-18.599-12.549-30.097-10.518-8.711 1.535-16.262 6.399-21.262 13.696-5 7.296-6.811 16.094-5.1 24.772l11.603 58.841c4.578 23.217 15.855 44.32 32.611 61.028l21.018 20.958v19.544c0 5.522 4.477 10 10 10s10-4.478 10-10v-23.696c0-2.657-1.058-5.205-2.939-7.081l-23.956-23.889c-13.931-13.891-23.305-31.435-27.111-50.735l-11.603-58.841c-.663-3.362.039-6.771 1.976-9.597 1.937-2.827 4.862-4.711 8.237-5.307 6.544-1.144 12.9 2.997 14.48 9.444l5.995 24.454c1.623 6.618 7.715 10.832 14.475 10.011 6.765-.816 11.674-6.355 11.674-13.169l.002-121.433c0-6.676 5.431-12.106 12.106-12.106s12.106 5.431 12.106 12.106v122.784c0 5.523 4.477 10 10 10s10-4.477 10-10v-150.38c0-6.676 5.431-12.107 12.106-12.107s12.106 5.431 12.106 12.107v150.382c0 5.523 4.477 10 10 10s10-4.477 10-10v-122.785c0-6.676 5.431-12.106 12.106-12.106 5.971 0 10.933 4.349 11.917 10.044-.022.765.033 1.534.189 2.293v116.637c-8.675 15.722-13.621 33.778-13.621 52.97 0 23.285 7.278 44.898 19.671 62.698l-6.296 6.278c-1.881 1.876-2.939 4.424-2.939 7.081v23.943c0 5.522 4.477 10 10 10s10-4.478 10-10v-19.793l2.147-2.141c19.892 19.728 47.255 31.934 77.417 31.934 60.654 0 110-49.346 110-110s-49.346-110-110-110zm-202.313-120.681c-18.296 0-33.181-14.885-33.181-33.181s14.885-33.181 33.181-33.181 33.181 14.885 33.181 33.181-14.885 33.181-33.181 33.181zm38.963 2.963c8.814-9.495 14.218-22.197 14.218-36.144 0-29.324-23.857-53.181-53.181-53.181s-53.181 23.856-53.181 53.181 23.857 53.181 53.181 53.181c8.476 0 16.488-2.003 23.607-5.545-3.444 4.754-5.617 10.483-6.021 16.689-3.759-1.548-7.872-2.408-12.183-2.408-10.059 0-19.048 4.654-24.939 11.917-33.273-8.731-56.826-38.84-56.826-73.834 0-42.105 34.256-76.361 76.362-76.361s76.361 34.256 76.361 76.361c0 13.853-3.623 27.056-10.535 38.729-4.762-2.798-10.3-4.41-16.21-4.41-3.734.001-7.317.648-10.653 1.825zm99.077 94.108c6.675 0 12.106 5.431 12.106 12.107v24.682c-8.873 4.8-17.013 10.787-24.212 17.742v-42.424c0-6.677 5.431-12.107 12.106-12.107zm64.273 223.61c-49.626 0-90-40.374-90-90s40.374-90 90-90 90 40.374 90 90-40.374 90-90 90z"/><path id="XMLID_1372_" d="m451.497 352.503c-20.913-20.914-52.903-26.421-79.603-13.703-2.942 1.401-5.017 4.148-5.56 7.361s.513 6.489 2.831 8.779c.087.086.174.17.263.252l79.273 79.273c.099.109.199.217.303.323 1.898 1.949 4.489 3.023 7.164 3.023.542 0 1.087-.044 1.63-.134 3.228-.533 5.991-2.611 7.397-5.564 12.723-26.7 7.218-58.693-13.698-79.61zm.008 56.482-56.49-56.49c15.267-2.138 31.06 2.869 42.34 14.15s16.285 27.072 14.15 42.34z"/><path id="XMLID_1380_" d="m434.56 448.609-79.269-79.27c-.107-.117-.217-.231-.329-.345-2.294-2.294-5.56-3.33-8.755-2.786-3.198.547-5.932 2.61-7.333 5.535-12.814 26.736-7.337 58.787 13.629 79.754 13.414 13.414 31.364 20.487 49.557 20.487 10.247 0 20.57-2.244 30.204-6.862 2.953-1.416 5.025-4.188 5.548-7.42.523-3.231-.569-6.516-2.924-8.79-.108-.102-.216-.203-.328-.303zm-67.916-11.253c-11.328-11.328-16.326-27.188-14.127-42.506l56.633 56.634c-15.318 2.198-31.177-2.799-42.506-14.128z"/><path id="XMLID_1383_" d="m36.916 272c-16.542 0-30 13.458-30 30s13.458 30 30 30 30-13.458 30-30-13.458-30-30-30zm0 40c-5.514 0-10-4.486-10-10s4.486-10 10-10 10 4.486 10 10-4.486 10-10 10z"/><path id="XMLID_1432_" d="m448 74c16.542 0 30-13.458 30-30s-13.458-30-30-30-30 13.458-30 30 13.458 30 30 30zm0-40c5.514 0 10 4.486 10 10s-4.486 10-10 10-10-4.486-10-10 4.486-10 10-10z"/><path id="XMLID_1433_" d="m65.21 70.48c2.63 0 5.21-1.069 7.07-2.93 1.86-1.86 2.93-4.44 2.93-7.07s-1.07-5.21-2.93-7.069c-1.86-1.87-4.44-2.931-7.07-2.931s-5.21 1.061-7.07 2.931c-1.86 1.859-2.93 4.43-2.93 7.069 0 2.63 1.07 5.21 2.93 7.07s4.44 2.93 7.07 2.93z"/></g></g></svg>