<svg id="Capa_1" enable-background="new 0 0 512 512" height="512" viewBox="0 0 512 512" width="512" xmlns="http://www.w3.org/2000/svg"><g id="XMLID_2516_"><g id="XMLID_2466_"><g id="XMLID_3335_"><circle id="XMLID_3346_" cx="256" cy="256" fill="#a0c8ff" r="180"/><g fill="#b7eabc"><path id="XMLID_3345_" d="m202.819 358.613c-5.451-6.08-13.749-8.764-21.729-7.027l-67.019 15.127c22.083 28.269 52.427 49.766 87.402 60.871l6.988-51.147c.766-6.477-1.289-12.969-5.642-17.824z"/><path id="XMLID_3344_" d="m301.766 173.311c.036 6.725-3.93 12.833-10 15.729l-1.191.568c-17.235 8.224-28.217 25.616-28.225 44.712v.957c-.009 19.039 11.222 36.291 28.844 44.083l1.377.609c10.432 4.613 17.157 14.949 17.147 26.355-.013 15.07 7.627 29.116 20.285 37.294l56.412 36.444c30.725-32.288 49.585-75.972 49.585-124.062 0-39.169-12.518-75.411-33.762-104.958h-78.326c-12.272 0-22.213 9.982-22.146 22.269z"/><path id="XMLID_3343_" d="m76 256c0 17.296 2.446 34.02 6.999 49.852h50.209c21.424 0 42.276-6.922 59.447-19.734 18.32-13.669 21.96-39.664 8.097-57.839-5.459-7.158-8.417-15.911-8.417-24.913 0-15.436 8.23-29.7 21.593-37.427 13.805-7.982 22.307-22.719 22.307-38.665v-50.189c-90.11 9.843-160.235 86.184-160.235 178.915z"/></g></g><g id="XMLID_2160_"><circle id="XMLID_2590_" cx="402" cy="402" fill="#faf7f5" r="100"/><path id="XMLID_2170_" d="m402 302c-55.229 0-100 44.771-100 100s44.771 100 100 100 100-44.772 100-100-44.771-100-100-100zm-42.427 142.427c-18.492-18.492-22.377-46.046-11.682-68.361.051.052.094.11.147.162l79.639 79.639c.085.085.178.155.264.238-22.317 10.7-49.875 6.815-68.368-11.678zm96.595-16.615c-.072-.074-.134-.156-.208-.229l-79.638-79.639c-.041-.041-.087-.075-.128-.116 22.292-10.618 49.776-6.711 68.232 11.746 18.457 18.458 22.364 45.945 11.742 68.238z" fill="#ff5c7d"/></g><g id="XMLID_2109_" fill="#a0c8ff"><path id="XMLID_2157_" d="m105.66 169.127 107.479-107.479c11.815-11.815 11.816-30.971 0-42.787-11.815-11.815-30.972-11.815-42.787 0l-107.479 107.479-40.075 5.884-12.798 37.406h52.37v52.37l37.406-12.798z"/><path id="XMLID_2156_" d="m143.886 130.901 53.738 53.738 18.966-18.966-30.017-77.459z"/><path id="XMLID_2113_" d="m101.099 88.114-53.738-53.738 18.965-18.966 77.46 30.017z"/></g></g><g id="XMLID_1270_"><path id="XMLID_1293_" d="m56.389 381.963c-2.953-4.668-9.13-6.056-13.797-3.105-4.667 2.952-6.058 9.13-3.105 13.797 3.69 5.835 7.667 11.591 11.818 17.109 1.965 2.612 4.963 3.989 7.999 3.989 2.092 0 4.203-.655 6.004-2.01 4.414-3.32 5.3-9.59 1.979-14.003-3.828-5.089-7.495-10.397-10.898-15.777z"/><path id="XMLID_1384_" d="m27.527 315.364c-1.385-5.346-6.839-8.558-12.188-7.173-5.346 1.385-8.558 6.842-7.173 12.189 1.732 6.686 3.764 13.386 6.038 19.91 1.438 4.126 5.307 6.712 9.442 6.712 1.092 0 2.203-.181 3.292-.561 5.215-1.817 7.969-7.518 6.151-12.733-2.095-6.012-3.966-12.184-5.562-18.344z"/><path id="XMLID_1385_" d="m10.348 272.548c5.521-.145 9.879-4.737 9.734-10.259-.055-2.091-.083-4.206-.082-6.287.001-5.522-4.475-10.001-9.998-10.002-.001 0-.001 0-.002 0-5.522 0-9.998 4.476-10 9.998-.001 2.256.029 4.55.089 6.816.142 5.432 4.59 9.737 9.992 9.737.088.001.177 0 .267-.003z"/><path id="XMLID_1386_" d="m119.315 448.411c-5.192-3.694-10.295-7.647-15.168-11.747-4.225-3.555-10.533-3.014-14.09 1.213-3.556 4.225-3.012 10.534 1.213 14.09 5.284 4.446 10.817 8.732 16.447 12.739 1.759 1.252 3.784 1.854 5.79 1.854 3.126 0 6.205-1.462 8.155-4.202 3.203-4.501 2.152-10.744-2.347-13.947z"/><path id="XMLID_1387_" d="m256 492c-6.388 0-12.837-.258-19.169-.767-5.51-.464-10.326 3.662-10.768 9.167s3.662 10.326 9.167 10.768c6.862.553 13.85.832 20.77.832 5.523 0 10-4.478 10-10s-4.477-10-10-10z"/><path id="XMLID_1388_" d="m184.257 480.9c-6.072-1.936-12.137-4.147-18.025-6.57-5.108-2.102-10.951.334-13.054 5.44-2.102 5.107.334 10.951 5.441 13.054 6.392 2.632 12.975 5.03 19.565 7.131 1.01.322 2.033.476 3.039.476 4.236 0 8.17-2.714 9.525-6.966 1.677-5.263-1.229-10.888-6.491-12.565z"/><path id="XMLID_1389_" d="m392.686 63.589c5.192 3.694 10.295 7.647 15.168 11.747 1.875 1.578 4.16 2.349 6.434 2.349 2.849 0 5.679-1.211 7.657-3.562 3.556-4.226 3.012-10.534-1.213-14.09-5.284-4.446-10.817-8.732-16.447-12.739-4.5-3.202-10.743-2.15-13.946 2.349-3.204 4.5-2.153 10.743 2.347 13.946z"/><path id="XMLID_1390_" d="m501.652 239.451c-5.521.145-9.879 4.737-9.734 10.259.055 2.092.082 4.207.082 6.288-.001 5.522 4.475 10.001 9.998 10.002h.002c5.521 0 9.999-4.476 10-9.998.001-2.256-.029-4.55-.089-6.817-.143-5.432-4.59-9.737-9.992-9.737-.088-.001-.177 0-.267.003z"/><path id="XMLID_1392_" d="m327.743 31.1c6.072 1.936 12.137 4.146 18.025 6.57 1.246.513 2.535.756 3.803.756 3.932 0 7.661-2.335 9.251-6.196 2.103-5.107-.333-10.951-5.44-13.054-6.392-2.632-12.975-5.03-19.565-7.131-5.26-1.679-10.887 1.229-12.564 6.49-1.678 5.263 1.228 10.888 6.49 12.565z"/><path id="XMLID_1395_" d="m455.611 130.037c1.903 3.009 5.146 4.655 8.461 4.655 1.828 0 3.678-.501 5.336-1.55 4.667-2.952 6.058-9.13 3.105-13.797-3.691-5.835-7.667-11.591-11.818-17.109-3.319-4.413-9.588-5.299-14.003-1.979-4.414 3.32-5.3 9.59-1.979 14.003 3.829 5.089 7.495 10.397 10.898 15.777z"/><path id="XMLID_1407_" d="m484.473 196.636c1.168 4.506 5.226 7.495 9.674 7.495.83 0 1.674-.105 2.515-.322 5.346-1.385 8.558-6.842 7.173-12.188-1.732-6.687-3.764-13.386-6.038-19.91-1.818-5.215-7.518-7.971-12.734-6.151-5.215 1.817-7.969 7.519-6.151 12.733 2.094 6.011 3.966 12.183 5.561 18.343z"/><path id="XMLID_1408_" d="m256 20c6.388 0 12.837.258 19.168.767.272.022.543.033.812.033 5.16 0 9.537-3.968 9.957-9.2.442-5.505-3.662-10.326-9.167-10.768-6.862-.553-13.849-.832-20.77-.832-5.523 0-10 4.478-10 10s4.477 10 10 10z"/><path id="XMLID_1411_" d="m441.066 299.175c3.274-14.093 4.934-28.575 4.934-43.175 0-23.807-4.35-47.028-12.928-69.02-2.007-5.146-7.806-7.689-12.95-5.683-5.146 2.007-7.69 7.805-5.683 12.95 7.671 19.667 11.561 40.443 11.561 61.753 0 12.777-1.44 25.443-4.238 37.782-6.413-1.168-13.017-1.782-19.762-1.782-31.223 0-59.448 13.077-79.489 34.04-1.821-3.835-2.805-8.061-2.801-12.371l.006-7.336c.013-15.359-9.055-29.298-23.1-35.508l-1.38-.61c-13.911-6.151-22.895-19.862-22.887-34.932v-.953c.007-15.158 8.851-29.17 22.534-35.697l1.188-.567c9.534-4.549 15.694-14.313 15.694-24.877 0-3.244 1.263-6.295 3.557-8.589s5.345-3.558 8.589-3.558h33.332c5.523 0 10-4.478 10-10 0-5.523-4.477-10-10-10h-33.332c-8.586 0-16.659 3.344-22.731 9.416-6.072 6.071-9.416 14.145-9.415 22.73 0 2.898-1.69 5.578-4.309 6.827l-1.188.567c-20.594 9.825-33.909 30.919-33.919 53.737l-.001.953c-.012 22.985 13.648 43.881 34.796 53.231l1.38.61c6.804 3.009 11.197 9.761 11.19 17.2l-.006 7.336c-.009 10.522 3.442 20.751 9.637 29.114-10.975 17.111-17.345 37.444-17.345 59.237 0 6.745.614 13.35 1.782 19.763-12.338 2.798-25.003 4.237-37.782 4.237-14.741 0-29.048-1.889-42.695-5.432l5.086-42.956c1.104-9.325-1.857-18.684-8.126-25.674-7.837-8.743-19.833-12.622-31.301-10.124l-61.014 13.277c-8.643-12.007-15.757-25.183-21.062-39.24h36.32c23.421 0 46.657-7.713 65.427-21.719 11.018-8.221 18.135-20.245 20.041-33.858s-1.636-27.13-9.972-38.06c-4.106-5.384-6.368-12.078-6.368-18.85 0-3.849.682-7.701 1.991-11.323.123-.111.25-.214.368-.332l18.966-18.965c.794-.794 1.416-1.708 1.893-2.682 13.021-10.321 20.682-25.975 20.682-42.789v-40.991c3.24-.182 6.494-.282 9.764-.282 39.908 0 78.694 14.104 109.212 39.715 1.874 1.572 4.154 2.34 6.423 2.34 2.853 0 5.688-1.215 7.665-3.571 3.55-4.231 2.999-10.538-1.232-14.089-34.114-28.628-77.465-44.395-122.068-44.395-12.411 0-24.63 1.189-36.592 3.522l.802-.802c15.695-15.696 15.695-41.234 0-56.93-7.604-7.602-17.712-11.79-28.465-11.79-10.752 0-20.861 4.188-28.465 11.79l-21.958 21.958-71.382-27.662c-3.694-1.432-7.883-.547-10.685 2.253l-18.965 18.966c-3.905 3.905-3.905 10.237 0 14.143l46.667 46.667-28.813 28.813-36.798 5.403c-3.706.544-6.796 3.112-8.009 6.656l-12.798 37.406c-1.045 3.055-.551 6.426 1.326 9.053 1.877 2.626 4.907 4.185 8.135 4.185h42.37v42.369c0 3.229 1.559 6.258 4.185 8.136 1.719 1.229 3.756 1.864 5.816 1.864 1.087 0 2.181-.178 3.236-.538l2.074-.71c-1.108 8.348-1.681 16.789-1.681 25.248 0 43.274 14.552 83.207 39.006 115.186.452.797 1.013 1.513 1.649 2.145 23.322 29.62 55.253 52.155 91.982 63.812.509.205 1.036.378 1.586.498 17.646 5.429 36.375 8.359 55.777 8.359 14.602 0 29.082-1.658 43.175-4.933 15.791 41.424 55.924 70.933 102.825 70.933 60.654 0 110-49.346 110-110 0-46.902-29.509-87.034-70.934-102.825zm-258.272-193.039 22.118 57.075-7.287 7.286-39.596-39.597zm43.442 21.137c0 7.177-2.204 14.021-6.158 19.728l-19.995-51.597c8.535-2.978 17.267-5.246 26.153-6.812zm-48.813-101.34c7.897-7.898 20.747-7.898 28.645 0 7.897 7.897 7.897 20.747 0 28.645l-105.053 105.052h-28.645v-28.645zm-105.053 182.077v-28.38h21.64l-3.242 22.085zm-10.867-173.634 7.287-7.287 57.075 22.117-24.765 24.765zm-37.513 125.254 6.295-18.398 22.085-3.243v21.641zm79.023 59.034c3.543-1.213 6.113-4.304 6.657-8.01l5.402-36.798 28.814-28.814 41.279 41.279c-1.849 5.482-2.829 11.261-2.829 17.043 0 11.128 3.717 22.13 10.465 30.979 5.072 6.65 7.227 14.874 6.068 23.157-1.16 8.283-5.491 15.601-12.195 20.603-15.338 11.445-34.327 17.748-53.467 17.748h-42.478c-3.083-12.787-4.729-26.13-4.729-39.851 0-10.969 1.057-21.904 3.128-32.585zm29.252 153.782 50.954-11.088c4.454-.974 9.112.536 12.156 3.932 2.435 2.715 3.585 6.349 3.156 9.971l-4.618 39c-23.566-9.279-44.57-23.678-61.648-41.815zm269.735 119.554c-49.626 0-90-40.374-90-90s40.374-90 90-90 90 40.374 90 90-40.374 90-90 90z"/><path id="XMLID_1424_" d="m371.893 338.8c-2.942 1.401-5.017 4.148-5.56 7.361s.513 6.489 2.831 8.779c.087.086.174.17.263.252l79.273 79.273c.099.109.199.217.303.323 1.898 1.949 4.489 3.023 7.164 3.023.541 0 1.087-.044 1.63-.134 3.228-.533 5.991-2.611 7.397-5.564 12.723-26.701 7.217-58.694-13.699-79.611-20.912-20.913-52.902-26.42-79.602-13.702zm79.611 70.185-56.49-56.49c15.268-2.138 31.06 2.869 42.34 14.15 11.281 11.281 16.286 27.072 14.15 42.34z"/><path id="XMLID_1427_" d="m434.56 448.609-79.269-79.27c-.107-.117-.217-.231-.329-.345-2.294-2.294-5.561-3.33-8.755-2.786-3.198.547-5.932 2.61-7.333 5.535-12.814 26.736-7.337 58.787 13.629 79.754 13.414 13.414 31.364 20.487 49.557 20.487 10.247 0 20.57-2.244 30.204-6.862 2.953-1.416 5.025-4.188 5.548-7.42.523-3.231-.569-6.516-2.924-8.79-.108-.102-.216-.203-.328-.303zm-67.916-11.253c-11.328-11.328-16.326-27.188-14.127-42.506l56.633 56.634c-15.321 2.198-31.177-2.799-42.506-14.128z"/><path id="XMLID_1429_" d="m395.17 143.97c-1.86 1.86-2.93 4.441-2.93 7.07 0 2.63 1.07 5.21 2.93 7.069 1.86 1.87 4.44 2.931 7.07 2.931s5.21-1.061 7.07-2.931c1.86-1.859 2.93-4.43 2.93-7.069 0-2.63-1.07-5.21-2.93-7.07s-4.44-2.93-7.07-2.93c-2.64 0-5.21 1.069-7.07 2.93z"/></g></g></svg>