<svg id="Capa_1" enable-background="new 0 0 512 512" height="512" viewBox="0 0 512 512" width="512" xmlns="http://www.w3.org/2000/svg"><g id="XMLID_1_"><g id="XMLID_169_"><path id="XMLID_152_" d="m106 405.547c-30.928 0-56-25.072-56-56v-298.899h112v298.899c0 30.928-25.072 56-56 56z" fill="#dfedff"/></g><g id="XMLID_95_"><path id="XMLID_151_" d="m106 405.547c30.928 0 56-25.072 56-56v-153.547h-112v153.547c0 30.928 25.072 56 56 56z" fill="#ff9171"/></g><g id="XMLID_1978_"><path id="XMLID_149_" d="m161.953 98.648h-111.906c-.026 0-.047-.021-.047-.047v-47.906c0-.026.021-.047.047-.047h111.906c.026 0 .047.021.047.047v47.906c0 .026-.021.047-.047.047z" fill="#a0c8ff"/></g><g id="XMLID_94_"><path id="XMLID_148_" d="m258 405.547c-30.928 0-56-25.072-56-56v-298.899h112v298.899c0 30.928-25.072 56-56 56z" fill="#dfedff"/></g><g id="XMLID_93_"><path d="m258 405.547c30.928 0 56-25.072 56-56v-153.547h-112v153.547c0 30.928 25.072 56 56 56z" fill="#ff5c7d"/></g><g id="XMLID_92_"><path id="XMLID_129_" d="m313.953 98.648h-111.906c-.026 0-.047-.021-.047-.047v-47.906c0-.026.021-.047.047-.047h111.906c.026 0 .047.021.047.047v47.906c0 .026-.021.047-.047.047z" fill="#a0c8ff"/></g><g id="XMLID_2387_"><path d="m10 458h344v44h-344z" fill="#ffd88e"/></g><g id="XMLID_2425_"><path id="XMLID_128_" d="m397.383 152.957v151.52c0 7.107 2.104 14.056 6.046 19.969 2.484 3.726 5.498 6.788 8.844 9.215v24.613c0 11.659 9.451 21.111 21.111 21.111 11.659 0 21.111-9.452 21.111-21.111v-24.613c3.345-2.427 6.359-5.488 8.843-9.215 3.942-5.914 6.046-12.862 6.046-19.969v-151.52z" fill="#dfedff"/></g><g id="XMLID_421_"><path id="XMLID_127_" d="m403.429 324.447c2.484 3.726 5.498 6.788 8.843 9.215v24.613c0 11.659 9.452 21.111 21.111 21.111s21.111-9.452 21.111-21.111v-24.613c3.345-2.427 6.359-5.488 8.843-9.215 3.942-5.914 6.046-12.862 6.046-19.969v-73.478h-72v73.478c0 7.107 2.104 14.055 6.046 19.969z" fill="#ff9171"/></g><g id="XMLID_3021_"><g id="XMLID_3023_"><path id="XMLID_125_" d="m393.383 104.773v-54.773c0-22.091 17.909-40 40-40 22.091 0 40 17.909 40 40v54.773z" fill="#a0c8ff"/></g></g><g id="XMLID_3020_"><path id="XMLID_96_" d="m478 152.957h-88c-13.255 0-24-10.745-24-24 0-13.255 10.745-24 24-24h88c13.255 0 24 10.745 24 24 0 13.255-10.745 24-24 24z" fill="#a0c8ff"/></g><g id="XMLID_154_"><path id="XMLID_155_" d="m242 342.08c2.63 0 5.21-1.06 7.07-2.92 1.86-1.87 2.93-4.44 2.93-7.08 0-2.63-1.07-5.2-2.93-7.07-1.86-1.86-4.44-2.93-7.07-2.93s-5.21 1.07-7.07 2.93-2.93 4.44-2.93 7.07c0 2.64 1.07 5.21 2.93 7.08 1.86 1.86 4.44 2.92 7.07 2.92z"/><path id="XMLID_156_" d="m274 298.09c2.63 0 5.21-1.07 7.07-2.93 1.86-1.87 2.93-4.44 2.93-7.08 0-2.63-1.07-5.2-2.93-7.07-1.86-1.86-4.44-2.93-7.07-2.93s-5.21 1.07-7.07 2.93-2.93 4.44-2.93 7.07c0 2.64 1.07 5.22 2.93 7.08s4.44 2.93 7.07 2.93z"/><path id="XMLID_157_" d="m242 254.17c2.63 0 5.21-1.07 7.07-2.93s2.93-4.44 2.93-7.07-1.07-5.21-2.93-7.07-4.44-2.93-7.07-2.93-5.21 1.07-7.07 2.93-2.93 4.44-2.93 7.07 1.07 5.21 2.93 7.07 4.44 2.93 7.07 2.93z"/><path id="XMLID_162_" d="m334 186h-10v-135.305-.047c0-5.523-4.477-10-10-10h-.047-111.906-.047c-5.523 0-10 4.477-10 10v.047 135.305h-20v-135.305-.047c0-5.523-4.477-10-10-10h-.047-111.906-.047c-5.523 0-10 4.477-10 10v.047 135.305h-10c-16.542 0-30 13.458-30 30v286c0 5.523 4.477 10 10 10h344c5.523 0 10-4.477 10-10v-286c0-16.542-13.458-30-30-30zm-122 20h92v143.547c0 25.364-20.636 46-46 46s-46-20.635-46-46zm0-20v-77.352h92v77.352zm0-125.352h92v28h-92zm-152 0h92v28h-92zm0 48h92v77.352h-92zm0 97.352h92v143.547c0 25.364-20.636 46-46 46s-46-20.635-46-46zm284 286h-324v-24h117c5.523 0 10-4.477 10-10s-4.477-10-10-10h-117v-232c0-5.514 4.486-10 10-10h10v143.547c0 36.392 29.607 66 66 66s66-29.607 66-66v-143.547h20v143.547c0 36.392 29.607 66 66 66s66-29.607 66-66v-143.547h10c5.514 0 10 4.486 10 10v232h-116.999c-5.523 0-10 4.477-10 10s4.477 10 10 10h116.999z"/><path id="XMLID_182_" d="m512 128.958c0-16.916-12.419-30.981-28.617-33.57v-45.388c0-27.57-22.43-50-50-50s-50 22.43-50 50v45.609c-15.59 3.088-27.383 16.865-27.383 33.349 0 17.866 13.855 32.547 31.383 33.889v141.631c0 9.111 2.671 17.934 7.726 25.516 2.062 3.093 4.46 5.899 7.164 8.386v19.895c0 17.154 13.956 31.11 31.11 31.11 17.155 0 31.111-13.956 31.111-31.11v-19.895c2.703-2.487 5.102-5.294 7.164-8.387 5.054-7.582 7.725-16.405 7.725-25.516v-141.555c18.108-.729 32.617-15.681 32.617-33.964zm-78.617-108.958c16.542 0 30 13.458 30 30v44.957h-60v-44.957c0-16.542 13.458-30 30-30zm26 142.958v58.042h-52v-58.042zm-4.366 155.942c-1.737 2.605-3.889 4.849-6.395 6.668-2.593 1.881-4.128 4.891-4.128 8.094v24.613c0 6.126-4.984 11.11-11.111 11.11s-11.11-4.984-11.11-11.11v-24.613c0-3.203-1.535-6.213-4.127-8.094-2.507-1.819-4.659-4.062-6.396-6.668-2.857-4.286-4.367-9.273-4.367-14.423v-63.477h52v63.478c0 5.149-1.509 10.137-4.366 14.422zm22.983-175.942h-88c-7.72 0-14-6.28-14-14s6.28-14 14-14h88c7.72 0 14 6.28 14 14s-6.28 14-14 14z"/><path id="XMLID_191_" d="m182 448c-2.63 0-5.21 1.07-7.07 2.93s-2.93 4.44-2.93 7.07 1.07 5.21 2.93 7.07 4.44 2.93 7.07 2.93 5.21-1.07 7.07-2.93 2.93-4.44 2.93-7.07-1.07-5.21-2.93-7.07-4.44-2.93-7.07-2.93z"/><path id="XMLID_192_" d="m90 342.08c2.63 0 5.21-1.06 7.07-2.92 1.86-1.87 2.93-4.44 2.93-7.08 0-2.63-1.07-5.21-2.93-7.07s-4.44-2.93-7.07-2.93-5.21 1.07-7.07 2.93-2.93 4.44-2.93 7.07c0 2.64 1.07 5.21 2.93 7.08 1.86 1.86 4.44 2.92 7.07 2.92z"/><path id="XMLID_193_" d="m122 298.09c2.63 0 5.21-1.07 7.07-2.93 1.86-1.87 2.93-4.44 2.93-7.08 0-2.63-1.07-5.2-2.93-7.07-1.86-1.86-4.44-2.93-7.07-2.93s-5.21 1.07-7.07 2.93-2.93 4.44-2.93 7.07c0 2.64 1.07 5.22 2.93 7.08s4.44 2.93 7.07 2.93z"/><path id="XMLID_196_" d="m90 254.17c2.63 0 5.21-1.07 7.07-2.93s2.93-4.44 2.93-7.07-1.07-5.21-2.93-7.07-4.44-2.93-7.07-2.93-5.21 1.07-7.07 2.93-2.93 4.44-2.93 7.07 1.07 5.21 2.93 7.07 4.44 2.93 7.07 2.93z"/></g></g></svg>