<svg id="Capa_1" enable-background="new 0 0 511.985 511.985" height="512" viewBox="0 0 511.985 511.985" width="512" xmlns="http://www.w3.org/2000/svg"><g id="XMLID_381_"><g id="XMLID_1539_"><path id="XMLID_1546_" d="m167.871 10.145v18.411c0 10.69-8.666 19.357-19.357 19.357h-44.57c-51.884 0-93.944 42.06-93.944 93.944v174.812h388.327v-174.812c0-51.884-42.06-93.944-93.944-93.944h-44.57c-10.69 0-19.357-8.666-19.357-19.357v-18.556z" fill="#ffd0c7"/></g><path id="XMLID_487_" d="m242.231 139.531c-9.978 0-18.067-8.089-18.067-18.067v-26.65h-40v26.65c0 9.978-8.089 18.067-18.067 18.067-50.875 0-92.117 41.242-92.117 92.117v85.021h41.56c37.9 0 68.624-30.724 68.624-68.624v-54.378c0-11.046 8.954-20 20-20 11.046 0 20 8.954 20 20v54.378c0 37.9 30.724 68.625 68.624 68.625h41.559v-85.021c.001-50.876-41.242-92.118-92.116-92.118z" fill="#ff5c7d"/><g id="XMLID_382_"><path id="XMLID_1647_" d="m392.021 424.999 70.171 70.171c9.107 9.107 23.871 9.107 32.978 0 9.107-9.107 9.107-23.871 0-32.978l-70.171-70.171z" fill="#8690af"/><circle id="XMLID_1534_" cx="331.735" cy="331.736" fill="#bfdbff" r="108.312"/><g id="XMLID_2458_"><circle id="XMLID_2472_" cx="331.735" cy="331.736" fill="#ff9171" r="36"/><g id="XMLID_519_"><path id="XMLID_836_" d="m502.241 455.121-66.669-66.669c24.495-44.895 17.774-102.424-20.178-140.376-2.28-2.28-4.64-4.449-7.067-6.518v-99.701c0-57.315-46.629-103.944-103.944-103.944h-44.57c-5.159 0-9.356-4.197-9.356-9.357v-18.556c0-5.523-4.478-10-10-10-5.523 0-10 4.477-10 10v18.556c0 16.188 13.169 29.357 29.356 29.357h44.57c46.287 0 83.944 37.657 83.944 83.944v85.925c-13.987-7.64-29.415-12.36-45.528-13.845-3.85-21.999-14.814-42.153-31.442-57.452-18.891-17.382-43.44-26.954-69.127-26.954-4.448 0-8.066-3.619-8.066-8.067v-26.649c0-5.522-4.478-10-10-10h-40c-5.522 0-10 4.478-10 10v26.649c0 4.448-3.619 8.067-8.067 8.067-56.308 0-102.117 45.809-102.117 102.116v75.021h-43.98v-164.811c0-46.287 37.657-83.944 83.944-83.944h44.57c16.188 0 29.356-13.17 29.356-29.357v-18.41c0-5.523-4.477-10-10-10-5.522 0-10 4.477-10 10v18.41c0 5.16-4.197 9.357-9.356 9.357h-44.57c-57.315 0-103.944 46.629-103.944 103.944v174.812c0 5.522 4.477 10 10 10h203.556c-.695 15.918 1.796 32.089 7.718 47.521 1.979 5.156 7.765 7.732 12.919 5.753 5.156-1.979 7.731-7.763 5.753-12.919-13.904-36.232-5.162-77.371 22.273-104.805 38.332-38.332 100.701-38.332 139.033 0s38.332 100.702 0 139.034c-27.435 27.433-68.573 36.174-104.805 22.273-5.155-1.978-10.94.597-12.919 5.753-1.978 5.156.597 10.94 5.753 12.919 13.764 5.281 28.114 7.848 42.349 7.848 19.792-.001 39.357-4.969 56.808-14.487l66.684 66.684c6.496 6.495 15.028 9.743 23.56 9.743s17.064-3.248 23.561-9.743c12.989-12.993 12.989-34.131-.002-47.122zm-334.382-148.452c16.128-14.409 26.305-35.346 26.305-58.624v-54.378c0-5.514 4.486-10 10-10s10 4.486 10 10v54.377c0 12.815 3.124 25.385 9.053 36.635-3.073 7.098-5.448 14.463-7.081 21.99zm80.217-58.593c-4.469 4.469-8.511 9.249-12.144 14.267-1.165-4.649-1.769-9.449-1.769-14.299v-54.377c0-16.542-13.458-30-30-30s-30 13.458-30 30v54.378c0 32.325-26.299 58.624-58.624 58.624h-31.56v-75.021c0-45.279 36.838-82.116 82.117-82.116 15.477 0 28.067-12.591 28.067-28.067v-16.649h20v16.649c0 15.477 12.591 28.067 28.067 28.067 38.559 0 71.89 27.486 80.139 64.261-28.071 2.183-54.169 14.16-74.293 34.283zm240.023 240.023c-5.192 5.192-13.641 5.194-18.835 0l-63.824-63.824c3.455-2.752 6.784-5.708 9.955-8.879 3.184-3.184 6.14-6.51 8.885-9.951l63.819 63.819c5.193 5.192 5.193 13.642 0 18.835z"/><path id="XMLID_839_" d="m255.149 398.319c-2.63 0-5.21 1.07-7.069 2.931-1.86 1.859-2.931 4.44-2.931 7.069 0 2.641 1.07 5.211 2.931 7.08 1.859 1.86 4.439 2.92 7.069 2.92s5.2-1.06 7.07-2.92c1.86-1.869 2.93-4.439 2.93-7.08 0-2.63-1.069-5.21-2.93-7.069-1.86-1.86-4.44-2.931-7.07-2.931z"/><path id="XMLID_842_" d="m285.066 364.263c-3.905 3.905-3.905 10.237 0 14.143 1.953 1.952 4.512 2.929 7.071 2.929s5.118-.977 7.071-2.929l7.868-7.868c4.432 2.826 9.374 4.913 14.659 6.09v11.108c0 5.522 4.477 10 10 10 5.522 0 10-4.478 10-10v-11.108c5.285-1.177 10.227-3.264 14.659-6.09l7.867 7.868c1.953 1.952 4.512 2.929 7.071 2.929s5.118-.977 7.071-2.929c3.905-3.905 3.905-10.236 0-14.143l-7.867-7.868c2.826-4.432 4.914-9.374 6.09-14.659h11.108c5.522 0 10-4.478 10-10s-4.478-10-10-10h-11.108c-1.176-5.285-3.264-10.228-6.09-14.659l7.867-7.868c3.905-3.905 3.905-10.236 0-14.142-3.906-3.904-10.238-3.904-14.143 0l-7.866 7.868c-4.432-2.827-9.375-4.914-14.66-6.091v-11.108c0-5.522-4.478-10-10-10-5.523 0-10 4.478-10 10v11.108c-5.285 1.177-10.228 3.264-14.659 6.091l-7.867-7.867c-3.906-3.904-10.236-3.904-14.143 0-3.905 3.905-3.905 10.237 0 14.143l7.867 7.867c-2.826 4.432-4.914 9.374-6.09 14.659h-11.108c-5.523 0-10 4.478-10 10s4.477 10 10 10h11.108c1.177 5.285 3.264 10.228 6.091 14.66zm46.669-58.527c14.337 0 26 11.663 26 26s-11.663 26-26 26-26-11.663-26-26c0-14.338 11.663-26 26-26z"/></g></g></g></g></svg>