<svg id="Capa_1" enable-background="new 0 0 512.002 512.002" height="512" viewBox="0 0 512.002 512.002" width="512" xmlns="http://www.w3.org/2000/svg"><g id="XMLID_864_"><g id="XMLID_3186_"><path d="m110.684 166.033 9.706-16.318c15.568-26.175 43.772-42.215 74.226-42.215 47.697 0 86.364-38.666 86.364-86.364v-11.136h-137.664c-73.619 0-133.299 59.68-133.299 133.299 0 41.807 18.939 81.364 51.508 107.578l9.159 7.372h2.545c19.346 0 36.687-11.932 43.6-30z" fill="#ffd88e"/></g><g id="XMLID_259_"><path id="XMLID_3_" d="m278.759 218.654-27.075-36.904 1.713-8.765c5.237-26.809.931-54.605-12.174-78.571l-1.055.091c-13.226 8.229-28.828 12.996-45.551 12.996-30.455 0-58.658 16.04-74.226 42.215l-9.706 16.318c-14.785 0-26.771 13.928-26.771 31.109s11.986 31.109 26.771 31.109c-4.685 15.5-17.94 26.871-33.972 29.145l-6.028.855v92.5l105.191 4.126v-54.453h52.642c18.502 0 33.5-14.999 33.5-33.5v-32.925h8.967c7.898 0 12.446-8.977 7.774-15.346z" fill="#ffd0c7"/></g><g id="XMLID_3184_"><path id="XMLID_637_" d="m145.619 263.441 30.255 36.982h52.642c18.501 0 33.5-14.999 33.5-33.5v-32.923h8.967c7.899 0 12.447-8.977 7.774-15.346l-27.075-36.904h-65.12z" fill="#a0c8ff"/></g><g id="XMLID_3182_"><path id="XMLID_613_" d="m116.183 338c-58.643 0-106.182 47.539-106.182 106.182v57.818h309.5c-32.557-68.981-89.033-123.809-158.949-154.308l-1.914-.835c-13.392-5.842-27.845-8.857-42.455-8.857z" fill="#a0c8ff"/></g><g id="XMLID_2545_"><circle id="XMLID_594_" cx="446.001" cy="128" fill="#ff9171" r="36"/></g><g id="XMLID_188_"><g id="XMLID_244_"><circle id="XMLID_160_" cx="390.001" cy="328" fill="#ff9171" r="36"/></g><g id="XMLID_660_"><path id="XMLID_700_" d="m260.01 402.789c-22.304-21.445-47.167-39.476-74.135-53.84v-38.526h42.642c23.986 0 43.5-19.514 43.5-43.5v-22.949c7.028-.362 13.282-4.407 16.49-10.74 3.364-6.641 2.718-14.493-1.686-20.494l-24.483-33.372.873-4.465c5.133-26.275 1.779-53.573-9.422-77.763 22.619-17.65 37.192-45.156 37.192-76.004v-11.136c0-5.523-4.477-10-10-10h-137.665c-25.23 0-50.042 6.65-71.753 19.232-4.778 2.77-6.407 8.888-3.638 13.666 2.77 4.778 8.888 6.406 13.667 3.639 18.668-10.818 40.012-16.537 61.724-16.537h127.664v1.136c0 42.107-34.257 76.364-76.364 76.364-33.805 0-65.54 18.049-82.821 47.102l-7.125 11.98c-17.424 3.219-30.757 20.181-30.757 40.559 0 18.553 11.054 34.268 26.183 39.363-6.621 7.121-15.927 11.454-25.93 11.711l-6.371-5.128c-30.363-24.439-47.778-60.811-47.778-99.788 0-15.31 2.769-30.243 8.229-44.388 1.989-5.152-.576-10.941-5.728-12.931-5.151-1.986-10.941.576-12.93 5.728-6.351 16.451-9.57 33.809-9.57 51.591 0 45.063 20.133 87.113 55.237 115.368l5.429 4.37v79.098c-36.123 19.725-60.683 58.071-60.683 102.047v57.818c0 5.522 4.477 10 10 10s10-4.478 10-10v-57.818c0-53.035 43.147-96.182 96.182-96.182 13.313 0 26.253 2.699 38.458 8.023 67.949 29.641 124.742 84.402 155.817 150.245 1.707 3.615 5.301 5.733 9.05 5.733 1.43 0 2.882-.308 4.261-.959 4.995-2.357 7.132-8.316 4.775-13.312-16.655-35.288-39.713-67.231-68.534-94.941zm10.267-178.789h-8.26c-5.523 0-10 4.477-10 10v32.923c0 12.958-10.542 23.5-23.5 23.5h-47.903l-23.15-28.297 35.273-70.376h53.88zm-141.293-69.173c13.694-23.024 38.843-37.327 65.632-37.327 15.066 0 29.333-3.478 42.046-9.669 8.613 19.807 11.084 41.921 6.92 63.236l-.133.683h-55.861l-61.137-12.663zm-35.071 42.315c0-11.307 7.105-20.539 15.988-21.059l61.892 12.82-28.201 56.266-19.022-23.251c-1.899-2.321-4.74-3.668-7.74-3.668h-6.146c-9.248 0-16.771-9.469-16.771-21.108zm22.27 130.858c-12.376 0-24.304 1.953-35.499 5.554v-65.806c15.003-1.996 28.562-9.935 37.651-21.866l47.541 58.11v35.155c-1.08-.485-2.153-.982-3.238-1.456-14.744-6.43-30.373-9.691-46.455-9.691z"/><path id="XMLID_975_" d="m42.001 66.68c2.63 0 5.21-1.07 7.07-2.93s2.93-4.44 2.93-7.07-1.07-5.21-2.93-7.07c-1.86-1.859-4.44-2.93-7.07-2.93s-5.21 1.07-7.07 2.93-2.93 4.44-2.93 7.07 1.07 5.21 2.93 7.07c1.86 1.859 4.44 2.93 7.07 2.93z"/><path id="XMLID_978_" d="m502.001 118h-11.108c-1.177-5.285-3.264-10.228-6.091-14.66l7.867-7.867c3.905-3.905 3.906-10.236.001-14.143-3.904-3.903-10.236-3.904-14.142 0l-7.868 7.867c-4.432-2.826-9.374-4.914-14.659-6.09v-11.107c0-5.522-4.477-10-10-10s-10 4.478-10 10v11.108c-5.285 1.177-10.228 3.264-14.659 6.091l-7.868-7.867c-3.905-3.904-10.237-3.904-14.142 0-3.905 3.905-3.905 10.237 0 14.143l7.867 7.868c-2.826 4.431-4.914 9.374-6.09 14.659h-11.108c-5.523 0-10 4.478-10 10 0 5.523 4.477 10 10 10h11.108c1.177 5.285 3.264 10.227 6.09 14.659l-7.867 7.867c-3.905 3.905-3.905 10.237 0 14.143 1.953 1.952 4.512 2.929 7.071 2.929s5.119-.977 7.071-2.929l7.868-7.867c4.431 2.826 9.374 4.914 14.659 6.091v11.105c0 5.523 4.477 10 10 10s10-4.477 10-10v-11.108c5.285-1.177 10.228-3.264 14.659-6.09l7.868 7.867c1.953 1.952 4.512 2.929 7.071 2.929s5.119-.977 7.071-2.929c3.905-3.906 3.905-10.237-.001-14.143l-7.867-7.867c2.826-4.432 4.914-9.374 6.091-14.66h11.108c5.523 0 10-4.477 10-10 0-5.521-4.477-9.999-10-9.999zm-56 36c-14.336 0-26-11.663-26-26s11.664-26 26-26 26 11.663 26 26-11.664 26-26 26z"/><path id="XMLID_981_" d="m446.001 318h-11.108c-1.177-5.285-3.264-10.228-6.091-14.66l7.867-7.867c3.905-3.905 3.906-10.236.001-14.143-3.904-3.903-10.236-3.904-14.142 0l-7.868 7.867c-4.432-2.826-9.374-4.914-14.659-6.091v-11.106c0-5.522-4.477-10-10-10s-10 4.478-10 10v11.108c-5.285 1.177-10.228 3.264-14.659 6.091l-7.868-7.867c-3.905-3.904-10.237-3.904-14.142 0-3.905 3.905-3.905 10.237 0 14.143l7.867 7.867c-2.826 4.431-4.914 9.374-6.09 14.659h-11.108c-5.523 0-10 4.478-10 10s4.477 10 10 10h11.108c1.177 5.285 3.264 10.228 6.09 14.659l-7.867 7.867c-3.905 3.905-3.905 10.237 0 14.143 1.953 1.952 4.512 2.929 7.071 2.929s5.119-.977 7.071-2.929l7.868-7.867c4.431 2.826 9.374 4.914 14.659 6.091v11.106c0 5.522 4.477 10 10 10s10-4.478 10-10v-11.108c5.285-1.177 10.228-3.264 14.659-6.091l7.868 7.867c1.953 1.952 4.512 2.929 7.071 2.929s5.119-.977 7.071-2.929c3.905-3.906 3.905-10.237-.001-14.143l-7.867-7.867c2.826-4.432 4.914-9.374 6.091-14.66h11.108c5.523 0 10-4.478 10-10s-4.477-9.998-10-9.998zm-56 36c-14.336 0-26-11.663-26-26s11.664-26 26-26 26 11.663 26 26-11.664 26-26 26z"/></g></g></g></svg>