<svg id="Capa_1" enable-background="new 0 0 512 512" height="512" viewBox="0 0 512 512" width="512" xmlns="http://www.w3.org/2000/svg"><g id="XMLID_289_"><path id="XMLID_2626_" d="m334 250v-150c0-11.046-8.954-20-20-20h-284c-11.046 0-20 8.954-20 20v150z" fill="#fff"/><path id="XMLID_2622_" d="m10 298h324v80h-324z" fill="#fff"/><path id="XMLID_2621_" d="m10 250h324v48h-324z" fill="#ff5c7d"/><path id="XMLID_2618_" d="m502 378v-165.5c-26.751-26.751-41.749-41.749-68.5-68.5h-13.833-85.667v234z" fill="#fff"/><path id="XMLID_407_" d="m419.667 144h-85.667v106h168v-37.5c-26.751-26.751-41.749-41.749-68.5-68.5z" fill="#a0c8ff"/><path id="XMLID_2727_" d="m334 250h168v48h-168z" fill="#ff5c7d"/><path id="XMLID_2617_" d="m394 104c-11.046 0-20 8.954-20 20v20h40v-20c0-11.046-8.954-20-20-20z" fill="#ff5c7d"/><circle id="XMLID_2612_" cx="108" cy="388" fill="#8690af" r="44"/><circle id="XMLID_2609_" cx="418" cy="388" fill="#8690af" r="44"/><g id="XMLID_859_"><path id="XMLID_862_" d="m509.071 205.429-68.5-68.5c-1.876-1.875-4.419-2.929-7.071-2.929h-9.5v-10c0-16.542-13.458-30-30-30s-30 13.458-30 30v10h-20v-34c0-16.542-13.458-30-30-30h-284c-16.542 0-30 13.458-30 30v278c0 5.523 4.477 10 10 10h44c0 29.776 24.225 54 54 54s54-24.224 54-54h202c0 29.776 24.225 54 54 54s54-24.224 54-54h30c5.522 0 10-4.477 10-10v-165.5c0-2.652-1.054-5.196-2.929-7.071zm-165.071 54.571h148v28h-148zm148-43.358v23.358h-148v-86h85.357zm-108-92.642c0-5.514 4.486-10 10-10s10 4.486 10 10v10h-20zm-354-34h284c5.514 0 10 4.486 10 10v140h-107c-5.523 0-10 4.477-10 10s4.477 10 10 10h107v28h-304v-28h107c5.523 0 10-4.477 10-10s-4.477-10-10-10h-107v-140c0-5.514 4.486-10 10-10zm78 332c-18.748 0-34-15.252-34-34s15.252-34 34-34 34 15.252 34 34-15.252 34-34 34zm50.144-54c-7.966-19.9-27.433-34-50.144-34s-42.178 14.1-50.144 34h-37.856v-60h304v60zm259.856 54c-18.748 0-34-15.252-34-34s15.252-34 34-34 34 15.252 34 34-15.252 34-34 34zm50.144-54c-7.966-19.9-27.433-34-50.144-34s-42.178 14.1-50.144 34h-23.856v-60h148v60z"/><path id="XMLID_885_" d="m108 378c-2.641 0-5.21 1.07-7.07 2.93s-2.93 4.44-2.93 7.07 1.069 5.21 2.93 7.07c1.86 1.86 4.44 2.93 7.07 2.93s5.21-1.07 7.069-2.93c1.86-1.86 2.931-4.44 2.931-7.07s-1.07-5.21-2.931-7.07c-1.859-1.86-4.439-2.93-7.069-2.93z"/><path id="XMLID_886_" d="m418 378c-2.63 0-5.21 1.07-7.07 2.93s-2.93 4.44-2.93 7.07 1.069 5.21 2.93 7.07c1.86 1.86 4.44 2.93 7.07 2.93s5.21-1.07 7.069-2.93c1.86-1.86 2.931-4.44 2.931-7.07s-1.07-5.21-2.931-7.07c-1.859-1.86-4.439-2.93-7.069-2.93z"/><path id="XMLID_887_" d="m172 260c2.63 0 5.21-1.07 7.069-2.93 1.86-1.86 2.931-4.44 2.931-7.07s-1.07-5.21-2.931-7.07c-1.859-1.86-4.439-2.93-7.069-2.93s-5.21 1.07-7.07 2.93-2.93 4.43-2.93 7.07c0 2.63 1.069 5.21 2.93 7.07 1.86 1.86 4.44 2.93 7.07 2.93z"/></g></g></svg>