<svg id="Capa_1" enable-background="new 0 0 512.056 512.056" height="512" viewBox="0 0 512.056 512.056" width="512" xmlns="http://www.w3.org/2000/svg"><g id="XMLID_2851_"><g id="XMLID_2585_"><path id="XMLID_62_" d="m65.37 209.431h381.316v292.625h-381.316z" fill="#fff"/><path id="XMLID_1655_" d="m65.37 209.431v173.816l80.575-80.575h58.624 108.928 133.189v-93.241z" fill="#dfedff"/><path id="XMLID_3446_" d="m364.749 364.404h81.937v137.653h-81.937z" fill="#b7eabc"/><path id="XMLID_3324_" d="m171.606 364.404-106.236 106.236v31.416h238.919v-137.652z" fill="#a0c8ff"/><path id="XMLID_60_" d="m363.522 239.06-106.152 125.344-106.152-125.344c-46.77-55.226-43.383-137.087 7.79-188.26 54.324-54.324 142.4-54.324 196.723 0 51.174 51.172 54.561 133.034 7.791 188.26z" fill="#ffd88e"/><circle id="XMLID_1440_" cx="257.497" cy="124.778" fill="#ff9171" r="36"/><g id="XMLID_1751_"><circle id="XMLID_1756_" cx="242.729" cy="247.915" fill="#b7eabc" r="20"/></g></g><g id="XMLID_1237_"><path id="XMLID_1312_" d="m446.686 199.431h-48.931c13.434-37.475 11.571-79.539-6.794-116.554-2.454-4.947-8.454-6.971-13.402-4.514-4.948 2.454-6.968 8.455-4.514 13.402 22.915 46.188 16.182 101.467-17.154 140.83l-98.521 116.335-98.52-116.334c-43.069-50.854-39.893-127.603 7.23-174.725 39.249-39.25 98.998-49.055 148.682-24.398 4.948 2.456 10.948.435 13.403-4.513 2.455-4.947.435-10.948-4.512-13.403-57.383-28.475-126.39-17.152-171.716 28.172-26.528 26.529-41.993 61.783-43.544 99.268-.803 19.411 2.171 38.532 8.583 56.436h-51.606c-5.523 0-10 4.477-10 10v292.625c0 5.523 4.477 10 10 10h381.316c5.523 0 10-4.477 10-10v-292.627c0-5.522-4.477-10-10-10zm-91.937 164.973v127.652h-40.46v-127.652c0-5.522-4.477-10-10-10h-25.345l35.341-41.732h122.401v41.732h-71.938c-5.522 0-9.999 4.478-9.999 10zm-279.379 22.986 74.717-74.717h50.368l35.341 41.732h-64.19c-2.652 0-5.196 1.054-7.071 2.929l-89.165 89.164zm295.783-141.868c6.909-8.158 12.811-16.916 17.721-26.091h47.812v73.241h-105.463zm-245.309-26.091c4.935 9.221 10.865 17.969 17.743 26.091l39.931 47.15h-37.572c-2.652 0-5.196 1.054-7.071 2.929l-63.505 63.504v-139.674zm-50.474 255.351 100.378-100.378h118.54v117.652h-218.918zm299.379 17.274v-117.652h61.938v117.652z"/><path id="XMLID_1321_" d="m323.497 124.778c0-5.523-4.477-10-10-10h-11.108c-1.177-5.285-3.264-10.228-6.091-14.659l7.867-7.867c3.905-3.905 3.906-10.237.001-14.143-3.906-3.903-10.237-3.903-14.142 0l-7.868 7.868c-4.432-2.826-9.374-4.914-14.66-6.091v-11.108c0-5.523-4.477-10-10-10s-10 4.478-10 10v11.108c-5.285 1.177-10.228 3.264-14.659 6.091l-7.867-7.867c-3.905-3.904-10.237-3.904-14.143 0-3.905 3.905-3.905 10.237 0 14.143l7.867 7.867c-2.826 4.432-4.914 9.374-6.091 14.659h-11.108c-5.523 0-10 4.477-10 10 0 5.522 4.477 10 10 10h11.108c1.177 5.285 3.264 10.228 6.091 14.659l-7.867 7.867c-3.905 3.905-3.905 10.237 0 14.143 1.953 1.952 4.512 2.929 7.071 2.929s5.119-.977 7.071-2.929l7.867-7.867c4.432 2.826 9.374 4.914 14.659 6.091v11.108c0 5.522 4.477 10 10 10s10-4.478 10-10v-11.11c5.285-1.177 10.228-3.264 14.66-6.091l7.868 7.867c1.953 1.952 4.512 2.929 7.071 2.929s5.119-.977 7.071-2.929c3.905-3.905 3.905-10.237-.001-14.143l-7.867-7.867c2.826-4.432 4.914-9.374 6.091-14.659h11.108c5.524.001 10.001-4.476 10.001-9.999zm-66 26c-14.337 0-26-11.663-26-26s11.663-26 26-26c14.336 0 26 11.663 26 26s-11.664 26-26 26z"/><path id="XMLID_1322_" d="m182.76 187.318c-3.905 3.905-3.905 10.237 0 14.143l.359.359c1.953 1.952 4.512 2.929 7.071 2.929s5.119-.977 7.071-2.929c3.905-3.905 3.905-10.237 0-14.143l-.359-.359c-3.905-3.904-10.237-3.904-14.142 0z"/><path id="XMLID_1324_" d="m302.278 215.621c-3.908 3.903-3.912 10.234-.009 14.143l.359.359c1.953 1.956 4.514 2.934 7.076 2.934 2.557 0 5.114-.975 7.066-2.924 3.908-3.903 3.912-10.234.009-14.143l-.359-.359c-3.902-3.909-10.234-3.912-14.142-.01z"/><path id="XMLID_1332_" d="m242.729 217.915c-16.542 0-30 13.458-30 30s13.458 30 30 30 30-13.458 30-30-13.458-30-30-30zm0 40c-5.514 0-10-4.486-10-10s4.486-10 10-10 10 4.486 10 10-4.486 10-10 10z"/><path id="XMLID_1342_" d="m355.728 60.797c2.63 0 5.21-1.061 7.08-2.931 1.86-1.859 2.92-4.43 2.92-7.069 0-2.631-1.06-5.21-2.92-7.07-1.87-1.86-4.45-2.93-7.08-2.93s-5.21 1.069-7.07 2.93c-1.86 1.86-2.93 4.439-2.93 7.07 0 2.64 1.07 5.21 2.93 7.069 1.87 1.87 4.44 2.931 7.07 2.931z"/></g></g></svg>