<svg id="Capa_1" enable-background="new 0 0 512 512" height="512" viewBox="0 0 512 512" width="512" xmlns="http://www.w3.org/2000/svg"><g id="XMLID_2624_"><g id="XMLID_3007_"><g id="XMLID_3062_"><path d="m389.374 108.699-40.514 57.971c-34.047 48.717-89.738 77.74-149.173 77.74-59.436 0-115.126-29.023-149.173-77.74l-40.514-57.971z" fill="#ff5c7d"/></g><g id="XMLID_3061_"><path id="XMLID_55_" d="m199.687 98.765c-18.429 6.574-37.85 9.934-57.417 9.934h-57.266c21.416 0 41.966 7.804 58.474 21.447 15.269 12.62 34.852 20.203 56.209 20.203s40.94-7.583 56.209-20.203c16.507-13.644 37.058-21.447 58.474-21.447h-57.267c-19.566 0-38.987-3.36-57.416-9.934z" fill="#ff9c9b"/></g><g id="XMLID_3014_"><path d="m199.687 98.765c18.429 6.574 37.85 9.934 57.417 9.934h132.27l-71.586-71.96c-17.026-17.116-40.173-26.739-64.315-26.739-19.397 0-38.271 6.293-53.786 17.933-15.516-11.64-34.39-17.933-53.787-17.933-24.142 0-47.288 9.623-64.315 26.738l-71.585 71.961h132.27c19.567 0 38.988-3.36 57.417-9.934z" fill="#ff5c7d"/></g></g><g id="XMLID_2342_"><g id="XMLID_2344_"><circle cx="36.916" cy="302" fill="#b7eabc" r="20"/></g></g><g id="XMLID_1966_"><g id="XMLID_1972_"><circle cx="448" cy="44" fill="#b7eabc" r="20"/></g></g><g id="XMLID_2350_"><path d="m227.197 204.564v27.598c0-12.209-9.897-22.106-22.106-22.106-12.209 0-22.106 9.897-22.106 22.106l-.002 121.432c0 3.859-5.518 4.526-6.436.777l-5.995-24.454c-2.84-11.586-14.181-18.983-25.929-16.911-12.494 2.203-20.742 14.238-18.287 26.685l11.603 58.841c4.177 21.182 14.573 40.637 29.861 55.882l23.957 23.889v23.697h120.68v-23.943l15.484-15.44c20.431-20.372 31.913-48.038 31.913-76.89v-105.231c0-12.209-9.897-22.106-22.106-22.106-12.209 0-22.106 9.897-22.106 22.106v-48.334c0-12.209-9.897-22.106-22.106-22.106-12.209 0-22.106 9.897-22.106 22.106v-27.598c0-12.209-9.897-22.106-22.106-22.106-12.21 0-22.107 9.897-22.107 22.106z" fill="#f2b394"/></g><g id="XMLID_2261_"><g id="XMLID_2315_"><circle id="XMLID_4_" cx="402" cy="402" fill="#faf7f5" r="100"/></g><g id="XMLID_2311_"><path id="XMLID_7_" d="m402 302c-55.228 0-100 44.772-100 100s44.772 100 100 100 100-44.772 100-100-44.772-100-100-100zm-42.427 142.427c-18.492-18.492-22.377-46.046-11.682-68.361.052.053.095.11.147.162l79.639 79.639c.085.085.178.155.264.238-22.317 10.7-49.875 6.815-68.368-11.678zm96.595-16.615c-.072-.074-.134-.156-.207-.229l-79.639-79.639c-.041-.041-.087-.075-.128-.116 22.292-10.618 49.776-6.711 68.232 11.746 18.457 18.458 22.364 45.945 11.742 68.238z" fill="#ff5c7d"/></g></g><g id="XMLID_30_"><path id="XMLID_281_" d="m36.916 272c-16.542 0-30 13.458-30 30s13.458 30 30 30 30-13.458 30-30-13.458-30-30-30zm0 40c-5.514 0-10-4.486-10-10s4.486-10 10-10 10 4.486 10 10-4.486 10-10 10z"/><path id="XMLID_307_" d="m448 74c16.542 0 30-13.458 30-30s-13.458-30-30-30-30 13.458-30 30 13.458 30 30 30zm0-40c5.514 0 10 4.486 10 10s-4.486 10-10 10-10-4.486-10-10 4.486-10 10-10z"/><path id="XMLID_310_" d="m402 292c-11.187 0-21.988 1.684-32.167 4.802v-16.306c0-17.703-14.402-32.106-32.105-32.106-4.282 0-8.368.849-12.106 2.378v-18.605c0-7.28-2.439-13.998-6.539-19.39 14.54-11.536 27.281-25.073 37.974-40.374l40.467-57.904c.002-.003.004-.005.005-.008l.042-.06-.002-.001c.407-.583.758-1.214 1.039-1.888 1.551-3.73.705-8.027-2.143-10.892l-71.586-71.961c-18.77-18.865-44.795-29.685-71.405-29.685-18.983 0-37.82 5.561-53.787 15.773-15.967-10.212-34.803-15.773-53.787-15.773-26.61 0-52.637 10.82-71.404 29.685l-71.586 71.961c-2.849 2.864-3.694 7.161-2.144 10.892.281.675.632 1.305 1.039 1.888l-.002.001.042.06c.002.002.003.005.005.008l40.467 57.904c1.944 2.783 5.049 4.272 8.205 4.272 1.978 0 3.975-.586 5.72-1.805 4.526-3.163 5.632-9.397 2.468-13.925l-29.521-42.242h55.815c18.653 0 37.157 6.803 52.102 19.155 17.552 14.506 39.776 22.495 62.58 22.495 22.803 0 45.027-7.989 62.581-22.495 14.944-12.353 33.448-19.155 52.103-19.155h55.815l-29.521 42.242c-10.829 15.494-24.003 28.966-39.196 40.113-2.544-.651-5.209-.999-7.954-.999-4.31 0-8.423.86-12.182 2.407-1.087-16.726-15.034-30.005-32.03-30.005s-30.943 13.279-32.03 30.005c-3.759-1.548-7.871-2.407-12.182-2.407-17.703 0-32.106 14.403-32.106 32.106v.156c-17.514-2.743-34.413-8.147-50.351-16.135-4.939-2.474-10.946-.477-13.421 4.46-2.475 4.938-.478 10.946 4.46 13.421 18.731 9.387 38.651 15.581 59.312 18.473v25.661c0 .013-.002.025-.002.039v35.44c-7.316-8.225-18.6-12.551-30.098-10.518-8.711 1.536-16.262 6.399-21.262 13.696-5 7.296-6.812 16.094-5.101 24.772l11.604 58.841c4.578 23.217 15.855 44.32 32.612 61.028l21.018 20.958v19.547c0 5.522 4.477 10 10 10 5.522 0 10-4.478 10-10v-23.696c0-2.657-1.058-5.205-2.939-7.081l-23.957-23.889c-13.93-13.891-23.305-31.435-27.11-50.735l-11.604-58.841c-.663-3.361.038-6.77 1.976-9.597s4.862-4.711 8.237-5.307c6.536-1.144 12.898 2.997 14.48 9.444l5.995 24.454c1.622 6.618 7.706 10.834 14.475 10.011 6.764-.816 11.674-6.355 11.674-13.169l.002-121.433c0-6.676 5.431-12.106 12.106-12.106s12.105 5.431 12.105 12.106v122.784c0 5.523 4.477 10 10 10 5.522 0 10-4.477 10-10v-150.381c0-6.676 5.431-12.107 12.106-12.107 6.676 0 12.107 5.431 12.107 12.107v150.382c0 5.523 4.477 10 10 10 5.522 0 10-4.477 10-10v-122.784c0-6.676 5.431-12.106 12.105-12.106 6.676 0 12.107 5.431 12.107 12.106v116.868c-8.675 15.722-13.62 33.778-13.62 52.97 0 23.285 7.278 44.898 19.671 62.698l-6.296 6.278c-1.881 1.876-2.939 4.424-2.939 7.081v23.943c0 5.522 4.478 10 10 10 5.523 0 10-4.478 10-10v-19.793l2.147-2.141c19.892 19.728 47.255 31.934 77.417 31.934 60.654 0 110-49.346 110-110s-49.346-110-110-110zm-202.314-151.65c-18.163 0-35.863-6.361-49.838-17.911-1.588-1.313-3.221-2.556-4.873-3.766 18.653-.277 37.029-3.404 54.711-9.327 17.683 5.923 36.06 9.051 54.713 9.327-1.652 1.211-3.285 2.454-4.873 3.766-13.976 11.549-31.676 17.911-49.84 17.911zm57.417-41.651c-18.472 0-36.659-3.147-54.058-9.354-1.086-.388-2.223-.581-3.359-.581-1.137 0-2.273.193-3.36.581-17.398 6.207-35.584 9.354-54.056 9.354h-108.217l54.623-54.908c15.041-15.119 35.898-23.791 57.224-23.791 17.12 0 34.091 5.658 47.785 15.933 3.555 2.668 8.447 2.668 12.002 0 13.695-10.275 30.665-15.933 47.787-15.933 21.326 0 42.184 8.672 57.225 23.791l54.623 54.908zm80.624 169.691c6.675 0 12.105 5.431 12.105 12.107v24.682c-8.873 4.8-17.013 10.786-24.212 17.742v-42.424c.001-6.677 5.432-12.107 12.107-12.107zm64.273 223.61c-49.626 0-90-40.374-90-90s40.374-90 90-90 90 40.374 90 90-40.374 90-90 90z"/><path id="XMLID_377_" d="m451.497 352.503c-20.913-20.913-52.902-26.42-79.604-13.703-2.951 1.406-5.028 4.165-5.565 7.391-.535 3.225.539 6.508 2.878 8.791.075.073.15.146.227.215l79.265 79.265c.1.111.201.221.306.328 1.898 1.949 4.489 3.023 7.164 3.023.542 0 1.087-.044 1.631-.134 3.227-.533 5.99-2.611 7.397-5.564 12.722-26.702 7.217-58.695-13.699-79.612zm.008 56.481-56.49-56.489c15.274-2.135 31.061 2.87 42.34 14.15 11.28 11.281 16.285 27.071 14.15 42.339z"/><path id="XMLID_595_" d="m434.561 448.609-79.275-79.275c-.105-.115-.214-.228-.324-.339-2.294-2.293-5.556-3.332-8.756-2.786-3.197.547-5.931 2.61-7.333 5.535-12.814 26.736-7.338 58.786 13.628 79.754 13.415 13.414 31.365 20.487 49.559 20.487 10.246 0 20.57-2.244 30.204-6.862 2.952-1.416 5.025-4.188 5.548-7.42.523-3.231-.568-6.516-2.924-8.79-.107-.103-.215-.203-.327-.304zm-67.917-11.254c-11.328-11.328-16.326-27.188-14.127-42.507l56.634 56.634c-15.321 2.204-31.179-2.797-42.507-14.127z"/><path id="XMLID_598_" d="m80.74 190.12c-2.631 0-5.21 1.069-7.07 2.93-1.86 1.86-2.93 4.44-2.93 7.07 0 2.64 1.069 5.21 2.93 7.069 1.86 1.87 4.44 2.931 7.07 2.931s5.21-1.061 7.069-2.931c1.86-1.859 2.931-4.439 2.931-7.069s-1.07-5.2-2.931-7.07c-1.859-1.861-4.439-2.93-7.069-2.93z"/></g></g></svg>