<svg id="Capa_1" enable-background="new 0 0 512 512" height="512" viewBox="0 0 512 512" width="512" xmlns="http://www.w3.org/2000/svg"><g id="XMLID_498_"><g id="XMLID_563_"><path id="XMLID_988_" d="m299.923 220.233v30.548c0 11.619 9.419 21.038 21.038 21.038 11.619 0 21.039-9.419 21.039-21.038v-95.198c0-37.555-30.445-68-68-68h-18-18c-37.555 0-68 30.445-68 68v95.275c0 11.577 9.385 20.961 20.961 20.961 11.577 0 20.961-9.385 20.961-20.961v-30.626h88.001z" fill="#ffd88e"/></g><g id="XMLID_1713_"><path d="m368.127 394h-224.254c-29.823 0-54 24.177-54 54 0 29.823 24.177 54 54 54h224.254c29.823 0 54-24.177 54-54 0-29.823-24.177-54-54-54z" fill="#b7eabc"/></g><g id="XMLID_1712_"><path d="m256 87.584c18.9 0 34.222-15.322 34.222-34.222v-8.556c0-18.9-15.322-34.222-34.222-34.222-18.9 0-34.222 15.322-34.222 34.222v8.556c0 18.9 15.322 34.222 34.222 34.222z" fill="#cc9081"/></g><g id="XMLID_1711_"><path id="XMLID_605_" d="m299.717 225.425v-64.971" fill="#a0c8ff"/></g><g id="XMLID_1706_"><g id="XMLID_1707_"><path d="m299.717 220.233h-87.794" fill="#a0c8ff"/></g></g><g id="XMLID_562_"><path d="m299.923 220.233v205.767c0 12.15-9.85 22-22 22-12.15 0-22-9.85-22-22v-121.584-6.95 128.534c0 12.15-9.85 22-22 22-12.15 0-22-9.85-22-22v-205.767z" fill="#a0c8ff"/></g><g id="XMLID_2427_"><circle id="XMLID_583_" cx="446" cy="66" fill="#ff9171" r="36"/></g><g id="XMLID_2117_"><g id="XMLID_2454_"><circle id="XMLID_564_" cx="66" cy="66" fill="#ff9171" r="36"/></g><g id="XMLID_989_"><path id="XMLID_992_" d="m368.127 384h-58.204v-104.215c3.432 1.311 7.152 2.036 11.039 2.036 17.114 0 31.038-13.924 31.038-31.039v-95.198c0-36.967-25.858-67.988-60.432-75.98 5.434-7.346 8.654-16.424 8.654-26.242v-8.555c0-24.384-19.838-44.223-44.223-44.223s-44.223 19.838-44.223 44.223v8.555c0 9.818 3.22 18.896 8.654 26.242-34.572 7.992-60.43 39.012-60.43 75.979v95.275c0 17.072 13.89 30.961 30.962 30.961 3.858 0 7.551-.715 10.961-2.011v104.192h-58.05c-35.29 0-64 28.71-64 64s28.71 64 64 64h67.255c5.523 0 10-4.477 10-10s-4.477-10-10-10h-67.255c-24.262 0-44-19.738-44-44s19.738-44 44-44h58.05v22c0 17.645 14.355 32 32 32 8.517 0 16.26-3.351 22-8.795 5.74 5.444 13.483 8.795 22 8.795 17.645 0 32-14.355 32-32v-22h58.204c24.262 0 44 19.738 44 44s-19.738 44-44 44h-66.994c-5.522 0-10 4.477-10 10s4.478 10 10 10h66.994c35.29 0 64-28.71 64-64s-28.71-64-64-64zm-136.35-339.194c0-13.356 10.866-24.223 24.223-24.223 13.356 0 24.223 10.866 24.223 24.223v8.555c0 13.356-10.866 24.222-24.223 24.222-13.356 0-24.223-10.866-24.223-24.222zm-40.815 217.014c-6.044 0-10.962-4.918-10.962-10.961v-95.275c0-31.981 26.019-58 58-58h36c31.981 0 58 26.019 58 58v95.198c0 6.087-4.951 11.039-11.038 11.039s-11.039-4.952-11.039-11.039v-89.949c0-1.805-.485-3.494-1.322-4.955-1.662-3.219-5.013-5.423-8.884-5.423-5.522 0-10 4.477-10 10v49.779h-67.794v-49.401c0-5.523-4.478-10-10-10s-10 4.477-10 10v90.026c0 6.044-4.917 10.961-10.961 10.961zm98.961 164.18c0 6.617-5.383 12-12 12s-12-5.383-12-12v-128.534c0-5.523-4.478-10-10-10s-10 4.477-10 10v128.534c0 6.617-5.383 12-12 12s-12-5.383-12-12v-195.767h68z"/><path id="XMLID_995_" d="m256.13 492c-2.64 0-5.22 1.07-7.07 2.93-1.859 1.86-2.93 4.44-2.93 7.07s1.07 5.21 2.93 7.07 4.44 2.93 7.07 2.93 5.2-1.07 7.07-2.93c1.859-1.86 2.93-4.44 2.93-7.07s-1.07-5.21-2.93-7.07-4.44-2.93-7.07-2.93z"/><path id="XMLID_998_" d="m502 56h-11.108c-1.177-5.285-3.264-10.228-6.09-14.659l7.867-7.868c3.905-3.905 3.905-10.237 0-14.142-3.906-3.905-10.238-3.905-14.143 0l-7.867 7.867c-4.432-2.826-9.375-4.914-14.66-6.091v-11.107c0-5.523-4.478-10-10-10s-10 4.477-10 10v11.108c-5.285 1.177-10.228 3.264-14.659 6.09l-7.868-7.867c-3.906-3.905-10.236-3.905-14.143 0-3.905 3.905-3.905 10.237 0 14.142l7.867 7.867c-2.826 4.432-4.914 9.374-6.09 14.66h-11.106c-5.522 0-10 4.477-10 10s4.478 10 10 10h11.108c1.177 5.285 3.264 10.228 6.09 14.66l-7.867 7.867c-3.905 3.905-3.905 10.237 0 14.143 1.953 1.953 4.512 2.929 7.071 2.929 2.56 0 5.118-.976 7.071-2.929l7.868-7.868c4.431 2.826 9.374 4.914 14.659 6.09v11.108c0 5.523 4.478 10 10 10s10-4.477 10-10v-11.108c5.285-1.177 10.228-3.264 14.66-6.091l7.867 7.867c1.953 1.953 4.512 2.929 7.071 2.929s5.118-.977 7.071-2.929c3.905-3.905 3.905-10.237 0-14.142l-7.867-7.868c2.826-4.432 4.914-9.374 6.09-14.659h11.108c5.522 0 10-4.477 10-10s-4.478-9.999-10-9.999zm-56 36c-14.337 0-26-11.664-26-26s11.663-26 26-26 26 11.664 26 26-11.663 26-26 26z"/><path id="XMLID_1001_" d="m90.66 104.801 7.867 7.867c1.953 1.953 4.512 2.929 7.071 2.929s5.118-.977 7.071-2.929c3.905-3.905 3.905-10.237 0-14.142l-7.867-7.868c2.826-4.432 4.913-9.374 6.09-14.659h11.108c5.522 0 10-4.477 10-10s-4.478-10-10-10h-11.108c-1.177-5.285-3.264-10.228-6.09-14.659l7.867-7.868c3.905-3.905 3.905-10.237 0-14.142-3.906-3.905-10.238-3.905-14.143 0l-7.867 7.867c-4.432-2.826-9.374-4.914-14.66-6.091v-11.106c0-5.523-4.478-10-10-10s-9.999 4.477-9.999 10v11.108c-5.285 1.177-10.228 3.264-14.659 6.09l-7.868-7.867c-3.906-3.905-10.236-3.905-14.142 0-3.905 3.905-3.905 10.237 0 14.142l7.867 7.867c-2.826 4.432-4.913 9.374-6.09 14.66h-11.108c-5.523 0-10 4.477-10 10s4.477 10 10 10h11.108c1.177 5.285 3.264 10.228 6.09 14.66l-7.867 7.867c-3.905 3.905-3.905 10.237 0 14.143 1.953 1.953 4.512 2.929 7.071 2.929 2.56 0 5.118-.976 7.071-2.929l7.868-7.868c4.431 2.826 9.374 4.914 14.659 6.09v11.108c0 5.523 4.478 10 10 10s10-4.477 10-10v-11.108c5.285-1.177 10.228-3.264 14.66-6.091zm-50.66-38.801c0-14.336 11.663-26 26-26s26 11.664 26 26-11.663 26-26 26-26-11.664-26-26z"/></g></g></g></svg>