<svg id="Capa_1" enable-background="new 0 0 512 512" height="512" viewBox="0 0 512 512" width="512" xmlns="http://www.w3.org/2000/svg"><g id="XMLID_847_"><path id="XMLID_3299_" d="m442 197.423v29.266c0 5.984-4.851 10.836-10.836 10.836h-22.328c-5.984 0-10.836-4.851-10.836-10.836v-29.266z" fill="#fff"/><circle id="XMLID_3297_" cx="181.903" cy="462" fill="#a0c8ff" r="40"/><path id="XMLID_928_" d="m457.777 98.75v16.872c0 20.864-16.913 37.777-37.777 37.777-20.864 0-37.777-16.913-37.777-37.777v-16.872c0-4.971-4.03-9-9-9h-26.223c-4.971 0-9 4.029-9 9v16.673c0 45.287 36.713 82 82 82 45.287 0 82-36.713 82-82v-16.673c0-4.971-4.03-9-9-9h-26.223c-4.97 0-9 4.029-9 9z" fill="#a0c8ff"/><g id="XMLID_849_"><path id="XMLID_926_" d="m245.557 189.404-51.557-51.557v-51.443h-44v51.443l-51.556 51.557 31.113 31.113 42.443-42.443 42.444 42.443z" fill="#f2b394"/><path id="XMLID_923_" d="m112.37 174.739c-56.538 0-102.37 45.832-102.37 102.369v110.223h50.974c46.959 0 85.026-38.068 85.026-85.026v-93.936c0-18.573-15.057-33.63-33.63-33.63z" fill="#ff5c7d"/><path id="XMLID_922_" d="m231.631 174.739c56.537 0 102.37 45.832 102.37 102.37v110.223h-50.974c-46.959 0-85.026-38.068-85.026-85.026v-93.936c0-18.574 15.056-33.631 33.63-33.631z" fill="#ff5c7d"/><g id="XMLID_867_"><g id="XMLID_889_"><circle id="XMLID_919_" cx="71.06" cy="317.832" fill="#ebebf2" r="20"/></g><g id="XMLID_872_"><circle id="XMLID_873_" cx="126" cy="244.981" fill="#ebebf2" r="20"/></g></g><g id="XMLID_850_"><g id="XMLID_865_"><circle id="XMLID_866_" cx="272.94" cy="317.832" fill="#ebebf2" r="20"/></g><g id="XMLID_855_"><circle id="XMLID_856_" cx="218.001" cy="244.981" fill="#ebebf2" r="20"/></g><g id="XMLID_929_"><path id="XMLID_1030_" d="m420 358.118c-5.523 0-10 4.478-10 10v27.382c0 31.154-25.346 56.5-56.5 56.5h-122.604c-4.646-22.795-24.847-40-48.994-40-27.57 0-50 22.43-50 50s22.43 50 50 50c24.146 0 44.348-17.205 48.994-40h122.604c42.182 0 76.5-34.317 76.5-76.5v-27.382c0-5.522-4.477-10-10-10zm-238.098 133.882c-16.542 0-30-13.458-30-30s13.458-30 30-30 30 13.458 30 30-13.458 30-30 30z"/><path id="XMLID_1031_" d="m181.9 452c-2.63 0-5.21 1.069-7.07 2.93-1.86 1.86-2.93 4.44-2.93 7.07s1.07 5.21 2.93 7.069c1.86 1.86 4.44 2.931 7.07 2.931s5.21-1.07 7.07-2.931c1.87-1.859 2.93-4.439 2.93-7.069s-1.06-5.21-2.93-7.07c-1.86-1.861-4.43-2.93-7.07-2.93z"/><path id="XMLID_1066_" d="m420 313.12c-2.63 0-5.21 1.069-7.07 2.93-1.86 1.86-2.93 4.43-2.93 7.07 0 2.63 1.07 5.21 2.93 7.069 1.86 1.86 4.44 2.931 7.07 2.931s5.21-1.07 7.07-2.931c1.86-1.859 2.93-4.44 2.93-7.069 0-2.63-1.07-5.21-2.93-7.07s-4.44-2.93-7.07-2.93z"/><path id="XMLID_1069_" d="m493 79.75h-3v-53.056c0-14.719-11.975-26.694-26.694-26.694-5.523 0-10 4.477-10 10s4.477 10 10 10c3.691 0 6.695 3.003 6.695 6.694v53.056h-3.223c-10.477 0-19 8.523-19 19v16.872c0 15.316-12.461 27.777-27.777 27.777s-27.777-12.461-27.777-27.777v-16.872c0-10.477-8.523-19-19-19h-3.223v-53.056c0-3.691 3.003-6.694 6.695-6.694 5.523 0 10-4.477 10-10s-4.477-10-10-10c-14.72 0-26.695 11.975-26.695 26.694v53.056h-3.001c-10.477 0-19 8.523-19 19v16.673c0 39.481 25 73.229 60 86.256v25.01c0 11.489 9.347 20.836 20.836 20.836h1.164v30.595c0 5.522 4.477 10 10 10s10-4.478 10-10v-30.595h1.164c11.489 0 20.836-9.347 20.836-20.836v-25.01c35-13.027 60-46.775 60-86.256v-16.673c0-10.477-8.523-19-19-19zm-61 146.939c0 .461-.375.836-.836.836h-22.328c-.461 0-.836-.375-.836-.836v-20.049c3.929.514 7.933.783 12 .783s8.071-.269 12-.783zm60-111.266c0 39.701-32.299 72-72 72s-72-32.299-72-72v-15.673h24.223v15.872c0 26.345 21.433 47.777 47.777 47.777 26.345 0 47.777-21.433 47.777-47.777v-15.872h24.223z"/><path id="XMLID_1108_" d="m156 208.369c0-.05-.004-.099-.004-.149l16.004-16.004 16.004 16.004c0 .05-.004.099-.004.149v93.936c0 52.397 42.628 95.026 95.026 95.026h50.974c5.523 0 10-4.478 10-10v-110.223c0-60.802-48.542-110.474-108.907-112.311l-31.093-31.093v-47.301c0-5.522-4.477-10-10-10h-44c-5.523 0-10 4.478-10 10v47.301l-31.093 31.094c-60.365 1.836-108.907 51.508-108.907 112.31v110.223c0 5.522 4.477 10 10 10h50.974c52.398 0 95.026-42.629 95.026-95.026zm168 68.739v100.223h-40.974c-41.37 0-75.026-33.656-75.026-75.026v-29.043c3.13 1.11 6.494 1.72 10 1.72 16.542 0 30-13.458 30-30s-13.458-30-30-30c-3.506 0-6.87.61-10 1.72v-8.333c0-13.029 10.601-23.63 23.63-23.63 50.933 0 92.37 41.437 92.37 92.369zm-116-32.127c0-5.514 4.486-10 10-10s10 4.486 10 10-4.486 10-10 10-10-4.486-10-10zm-50.928-100.063c1.875-1.876 2.929-4.419 2.929-7.071v-41.444h24v41.443c0 2.652 1.054 5.195 2.929 7.071l24.697 24.697c-7.245 3.755-13.311 9.476-17.481 16.461l-15.074-15.074c-1.875-1.875-4.419-2.929-7.071-2.929s-5.196 1.054-7.071 2.929l-15.074 15.074c-4.17-6.984-10.235-12.705-17.481-16.461zm-96.098 232.413h-40.974v-100.223c0-50.933 41.437-92.369 92.37-92.369 13.03 0 23.63 10.6 23.63 23.63v8.333c-3.13-1.11-6.494-1.72-10-1.72-16.542 0-30 13.458-30 30s13.458 30 30 30c3.506 0 6.87-.61 10-1.72v29.043c0 41.37-33.657 75.026-75.026 75.026zm75.026-132.35c0 5.514-4.486 10-10 10s-10-4.486-10-10 4.486-10 10-10 10 4.487 10 10z"/><path id="XMLID_1115_" d="m71.06 287.831c-16.542 0-30 13.458-30 30s13.458 30 30 30 30-13.458 30-30-13.458-30-30-30zm0 40c-5.514 0-10-4.486-10-10s4.486-10 10-10 10 4.486 10 10-4.485 10-10 10z"/><path id="XMLID_1116_" d="m61.21 263.04c2.64 0 5.21-1.07 7.07-2.931 1.87-1.859 2.93-4.439 2.93-7.069s-1.06-5.21-2.93-7.07c-1.86-1.87-4.44-2.93-7.07-2.93s-5.21 1.06-7.07 2.93c-1.86 1.86-2.93 4.441-2.93 7.07 0 2.63 1.07 5.21 2.93 7.069 1.86 1.861 4.44 2.931 7.07 2.931z"/><path id="XMLID_1119_" d="m272.94 347.831c16.542 0 30-13.458 30-30s-13.458-30-30-30-30 13.458-30 30 13.458 30 30 30zm0-40c5.514 0 10 4.486 10 10s-4.486 10-10 10-10-4.486-10-10 4.486-10 10-10z"/><path id="XMLID_1120_" d="m282.79 263.04c2.63 0 5.21-1.07 7.07-2.931 1.86-1.859 2.93-4.439 2.93-7.069s-1.07-5.21-2.93-7.07c-1.86-1.87-4.44-2.93-7.07-2.93s-5.21 1.06-7.07 2.93c-1.86 1.86-2.93 4.43-2.93 7.07 0 2.63 1.07 5.21 2.93 7.069 1.86 1.861 4.43 2.931 7.07 2.931z"/></g></g></g></g></svg>