<svg id="Capa_1" enable-background="new 0 0 512 512" height="512" viewBox="0 0 512 512" width="512" xmlns="http://www.w3.org/2000/svg"><g id="XMLID_1580_"><g id="XMLID_2_"><path id="XMLID_2503_" d="m256 10c-49.912 0-90.374 40.462-90.374 90.374v24.376h180.748v-24.376c0-49.912-40.462-90.374-90.374-90.374z" fill="#8690af"/><g id="XMLID_2501_"><path id="XMLID_2502_" d="m211.465 279.679v27.145c0 13.817-11.201 25.017-25.017 25.017h-47.9c-61.856 0-112 50.144-112 112v58.159h458.906v-58.159c0-61.856-50.144-112-112-112h-47.854c-13.817 0-25.017-11.201-25.017-25.017v-27.324z" fill="#d0a084"/></g><path id="XMLID_2498_" d="m346.374 124.75v75.68c0 49.912-40.462 90.374-90.374 90.374-49.912 0-90.374-40.462-90.374-90.374v-75.68" fill="#f2ccac"/><path id="XMLID_2497_" d="m346.374 124.75v75.68c0 49.912-40.462 90.374-90.374 90.374-49.912 0-90.374-40.462-90.374-90.374v-75.68z" fill="#d0a084"/><path id="XMLID_2520_" d="m244.705 406.731c.345-9.325-8.182-16.481-17.306-14.521 6.259-6.921 4.326-17.884-3.923-22.248 9.243-1.279 14.809-10.92 11.295-19.564 7.903 4.962 18.364 1.154 21.228-7.727 2.865 8.881 13.326 12.688 21.228 7.727-3.514 8.644 2.052 18.285 11.296 19.564-8.248 4.363-10.181 15.326-3.923 22.248-9.123-1.959-17.651 5.196-17.306 14.521-5.728-7.366-16.86-7.366-22.589 0z" fill="#ff5c7d"/></g><g id="XMLID_1155_"><path id="XMLID_1198_" d="m417.897 330.192c-14.16-5.541-29.113-8.351-44.443-8.351h-47.854c-8.28 0-15.017-6.737-15.017-15.018v-22.197c27.541-17.915 45.792-48.962 45.792-84.196v-100.056c-.001-55.347-45.028-100.374-100.375-100.374s-100.374 45.027-100.374 100.374v100.057c0 35.254 18.271 66.316 45.839 84.227v22.166c0 8.28-6.737 15.018-15.018 15.018h-47.9c-67.272 0-122 54.729-122 122v58.158c0 5.522 4.478 10 10 10s10-4.478 10-10v-58.158c0-56.243 45.757-102 102-102h47.9c19.309 0 35.018-15.709 35.018-35.018v-12.142c10.773 3.96 22.406 6.123 34.535 6.123 12.147 0 23.796-2.17 34.582-6.141v12.16c0 19.309 15.708 35.018 35.017 35.018h47.854c12.826 0 25.326 2.347 37.154 6.976 1.197.469 2.43.69 3.642.69 3.997 0 7.772-2.413 9.316-6.358 2.012-5.144-.526-10.945-5.668-12.958zm-242.271-229.818c0-44.318 36.056-80.374 80.374-80.374s80.374 36.056 80.374 80.374v14.376h-44.665c6.173-8.271 9.833-18.524 9.833-29.615 0-5.523-4.477-10-10-10-5.522 0-10 4.477-10 10 0 16.33-13.285 29.615-29.615 29.615h-76.301zm0 100.057v-65.681h160.748v65.681c0 44.318-36.056 80.374-80.374 80.374s-80.374-36.056-80.374-80.374z"/><path id="XMLID_1200_" d="m486.361 397.552c-2.097-5.109-7.939-7.55-13.048-5.454-5.109 2.097-7.551 7.938-5.454 13.048 5.039 12.277 7.594 25.297 7.594 38.696v58.158c0 5.522 4.478 10 10 10s10-4.478 10-10v-58.158c0-16.017-3.058-31.591-9.092-46.29z"/><path id="XMLID_1203_" d="m289.895 360.057c-1.816-.252-2.748-1.433-3.142-2.114-.393-.683-.951-2.08-.261-3.779 1.635-4.02.489-8.637-2.836-11.426-3.325-2.79-8.067-3.117-11.745-.809-1.554.975-3.027.669-3.767.399-.739-.27-2.064-.981-2.627-2.726-1.333-4.131-5.178-6.931-9.518-6.931s-8.185 2.8-9.518 6.931c-.562 1.744-1.888 2.456-2.627 2.726-.74.27-2.213.575-3.767-.399-3.677-2.31-8.421-1.981-11.745.809-3.325 2.789-4.471 7.405-2.836 11.426.69 1.699.133 3.097-.261 3.779s-1.325 1.862-3.142 2.114c-4.299.595-7.724 3.895-8.477 8.169-.754 4.274 1.335 8.546 5.172 10.576 1.621.857 2.092 2.285 2.229 3.061s.183 2.28-1.048 3.642c-2.91 3.219-3.412 7.948-1.242 11.707 2.17 3.758 6.518 5.688 10.761 4.776 1.795-.385 3.071.406 3.675.911.602.507 1.604 1.629 1.537 3.463-.16 4.337 2.495 8.282 6.573 9.767 4.078 1.484 8.648.169 11.313-3.258 1.126-1.447 2.614-1.664 3.401-1.664s2.275.217 3.401 1.664c1.934 2.486 4.871 3.861 7.896 3.861 1.143 0 2.299-.197 3.418-.604 4.078-1.484 6.733-5.43 6.573-9.767-.067-1.834.935-2.956 1.537-3.463.604-.506 1.884-1.297 3.675-.911 4.245.91 8.59-1.018 10.761-4.776 2.17-3.759 1.668-8.488-1.242-11.707-1.23-1.361-1.185-2.866-1.048-3.642s.607-2.203 2.228-3.061c3.837-2.03 5.926-6.302 5.172-10.576-.75-4.274-4.175-7.574-8.473-8.168zm-18.621 18.332c-.351 1.99-.454 3.983-.319 5.942-1.764.863-3.437 1.948-4.984 3.246-1.548 1.299-2.908 2.759-4.064 4.347-1.906-.473-3.886-.718-5.906-.718s-4 .245-5.906.718c-1.156-1.588-2.517-3.048-4.064-4.347-1.548-1.298-3.221-2.384-4.984-3.246.135-1.959.031-3.952-.319-5.942-.351-1.989-.936-3.897-1.732-5.69 1.362-1.414 2.564-3.007 3.573-4.756 1.011-1.75 1.789-3.587 2.333-5.474 1.952-.208 3.897-.655 5.796-1.347 1.897-.69 3.675-1.598 5.304-2.693 1.629 1.096 3.406 2.003 5.304 2.693 1.899.691 3.844 1.139 5.796 1.347.544 1.887 1.322 3.724 2.333 5.474 1.01 1.749 2.211 3.342 3.573 4.756-.798 1.793-1.383 3.7-1.734 5.69z"/><path id="XMLID_1204_" d="m230.391 227.915c-3.905 3.905-3.905 10.237 0 14.143 3.906 3.904 10.236 3.904 14.143 0 3.097-3.098 7.214-4.803 11.594-4.803s8.497 1.705 11.594 4.803c1.953 1.952 4.512 2.929 7.071 2.929s5.118-.977 7.071-2.929c3.905-3.905 3.905-10.237 0-14.143-14.192-14.191-37.282-14.191-51.473 0z"/><path id="XMLID_1205_" d="m301.667 161.667h-14.667c-5.522 0-10 4.477-10 10 0 5.522 4.478 10 10 10h14.667c5.523 0 10-4.478 10-10s-4.477-10-10-10z"/><path id="XMLID_1206_" d="m235 171.667c0-5.523-4.477-10-10-10h-14.666c-5.523 0-10 4.477-10 10 0 5.522 4.477 10 10 10h14.666c5.523 0 10-4.478 10-10z"/><path id="XMLID_1207_" d="m349.81 296.542c1.945 2.777 5.047 4.264 8.199 4.264 1.981 0 3.982-.588 5.729-1.811l21.136-14.805c4.524-3.168 5.622-9.404 2.453-13.928-3.168-4.522-9.402-5.621-13.928-2.453l-21.136 14.805c-4.524 3.168-5.622 9.405-2.453 13.928z"/><path id="XMLID_1208_" d="m127.127 284.19 21.136 14.805c1.746 1.223 3.747 1.811 5.729 1.811 3.152 0 6.254-1.486 8.199-4.264 3.169-4.523 2.07-10.76-2.453-13.928l-21.136-14.805c-4.522-3.168-10.76-2.069-13.928 2.453-3.169 4.524-2.07 10.76 2.453 13.928z"/><path id="XMLID_1209_" d="m362.333 377.667h-21.333c-5.522 0-10 4.478-10 10 0 5.523 4.478 10 10 10h21.333c5.522 0 10-4.477 10-10 0-5.522-4.478-10-10-10z"/><path id="XMLID_1210_" d="m330.738 419.929c-3.906-3.904-10.236-3.904-14.143 0-3.905 3.905-3.905 10.237 0 14.143l17.333 17.333c1.953 1.952 4.512 2.929 7.071 2.929s5.118-.977 7.071-2.929c3.905-3.905 3.905-10.237 0-14.143z"/><path id="XMLID_1211_" d="m181 387.667c0-5.522-4.477-10-10-10h-21.333c-5.523 0-10 4.478-10 10 0 5.523 4.477 10 10 10h21.333c5.523 0 10-4.477 10-10z"/><path id="XMLID_1212_" d="m181.262 419.929-17.333 17.333c-3.905 3.905-3.905 10.237 0 14.143 1.953 1.952 4.512 2.929 7.071 2.929s5.118-.977 7.071-2.929l17.333-17.333c3.905-3.905 3.905-10.237 0-14.143-3.906-3.905-10.236-3.905-14.142 0z"/><path id="XMLID_1213_" d="m444.855 357.002c-3.905 3.905-3.905 10.237 0 14.142 1.953 1.952 4.512 2.929 7.071 2.929 2.56 0 5.118-.977 7.071-2.929l.067-.067c3.905-3.905 3.871-10.203-.034-14.108-3.905-3.907-10.27-3.873-14.175.033z"/></g></g></svg>