<svg id="Capa_1" enable-background="new 0 0 512 512" height="512" viewBox="0 0 512 512" width="512" xmlns="http://www.w3.org/2000/svg"><g id="XMLID_3350_"><path id="XMLID_3359_" d="m10 438.041h492v44h-492z" fill="#ffd88e"/><path id="XMLID_3358_" d="m475 438.041h-438v-176c0-35.346 28.654-64 64-64h310c35.346 0 64 28.654 64 64z" fill="#a0c8ff"/><path id="XMLID_3357_" d="m398.066 198.041 56.626-143.197s-37.154-40.353-99.346-18.118c-46.64 16.676-68.654 26.256-99.346 26.256s-52.706-9.581-99.346-26.256c-62.192-22.235-99.346 18.118-99.346 18.118l56.626 143.197z" fill="#fff"/><path id="XMLID_3356_" d="m120 273.041h272v90h-272z" fill="#dfedff"/><g id="XMLID_623_"><path id="XMLID_1474_" d="m502 428.041h-17v-166c0-40.215-32.25-73.016-72.244-73.956l51.235-129.564c1.411-3.568.656-7.629-1.942-10.451-1.699-1.847-42.416-44.951-110.068-20.76-5.886 2.104-11.38 4.096-16.55 5.969-35.05 12.705-54.359 19.703-79.431 19.703s-44.381-6.998-79.431-19.703c-5.17-1.873-10.664-3.865-16.55-5.969-67.647-24.187-108.368 18.913-110.068 20.76-2.599 2.822-3.354 6.883-1.942 10.451l51.235 129.564c-39.994.94-72.244 33.741-72.244 73.956v166h-17c-5.523 0-10 4.478-10 10v44c0 5.523 4.477 10 10 10h492c5.522 0 10-4.477 10-10v-44c0-5.523-4.478-10-10-10zm-348.713-381.898c5.855 2.094 11.322 4.075 16.467 5.94 35.957 13.032 57.66 20.899 86.246 20.899s50.289-7.867 86.246-20.899c5.145-1.865 10.611-3.847 16.467-5.94 43.849-15.678 73.392 2.712 84.147 11.431l-51.593 130.468h-270.534l-51.591-130.466c10.789-8.744 40.322-27.1 84.145-11.433zm338.713 425.898h-472v-24h191.127c5.522 0 10-4.477 10-10 0-5.522-4.478-10-10-10h-164.127v-166c0-29.775 24.225-54 54-54h310c29.775 0 54 24.225 54 54v166h-163.873c-5.523 0-10 4.478-10 10 0 5.523 4.477 10 10 10h190.873z"/><path id="XMLID_1478_" d="m402 363.041v-90c0-5.522-4.478-10-10-10h-272c-5.522 0-10 4.478-10 10v90c0 5.523 4.478 10 10 10h272c5.522 0 10-4.478 10-10zm-20-10h-252v-70h252z"/><path id="XMLID_1480_" d="m256.13 428.041c-2.64 0-5.21 1.069-7.07 2.93-1.87 1.86-2.93 4.44-2.93 7.07s1.06 5.21 2.93 7.069c1.86 1.86 4.44 2.931 7.07 2.931s5.21-1.07 7.07-2.931c1.859-1.869 2.93-4.439 2.93-7.069s-1.07-5.21-2.93-7.07c-1.86-1.861-4.44-2.93-7.07-2.93z"/></g></g></svg>