<svg id="Layer_1" data-name="Layer 1" xmlns="http://www.w3.org/2000/svg" viewBox="0 0 429.01 407.99"><defs><style>.cls-1,.cls-13,.cls-20{fill:none;stroke-miterlimit:10;}.cls-1{stroke:#000;}.cls-2{font-size:16px;font-family:BasisGrotesquePro-Medium, Basis Grotesque Pro;font-weight:500;}.cls-3{letter-spacing:-0.01em;}.cls-4{letter-spacing:-0.01em;}.cls-5{letter-spacing:-0.05em;}.cls-6{letter-spacing:-0.03em;}.cls-7{letter-spacing:-0.02em;}.cls-8{letter-spacing:-0.04em;}.cls-9{letter-spacing:-0.02em;}.cls-10{letter-spacing:-0.01em;}.cls-11{letter-spacing:-0.11em;}.cls-12{letter-spacing:-0.02em;}.cls-13{stroke:#1e1e1e;stroke-width:6px;}.cls-14{letter-spacing:-0.02em;}.cls-15{letter-spacing:0.01em;}.cls-16{letter-spacing:-0.03em;}.cls-17{letter-spacing:-0.01em;}.cls-18{letter-spacing:-0.02em;}.cls-19{letter-spacing:0em;}.cls-20{stroke:#ed163c;stroke-width:12px;}.cls-21{fill:#ed163c;}.cls-22{letter-spacing:-0.01em;}.cls-23{letter-spacing:-0.01em;}.cls-24{letter-spacing:-0.02em;}.cls-25{letter-spacing:-0.01em;}.cls-26{letter-spacing:-0.01em;}.cls-27{letter-spacing:-0.1em;}.cls-28{letter-spacing:-0.02em;}.cls-29{letter-spacing:0em;}.cls-30{letter-spacing:-0.01em;}.cls-31{letter-spacing:-0.03em;}</style></defs><g id="Mask"><path class="cls-1" d="M343.53,91c-398.13-29.08-172,140.27-172,140.27" transform="translate(-48.39 -42.54)"/><path class="cls-1" d="M379.13,309.21c-359.19,25.2-162.93,150.1-172,140.27" transform="translate(-48.39 -42.54)"/>
<line class="cls-1" x1="123.17" y1="188.77" x2="158.77" y2="406.94"/>
<line class="cls-1" x1="295.14" y1="48.5" x2="330.74" y2="266.67"/>
<line class="cls-1" x1="59.2" y1="110.21" x2="113.3" y2="355.22"/>
<text class="cls-2" transform="translate(178.14 321.73)"><tspan class="cls-3">P</tspan><tspan class="cls-4" x="10.83" y="0">R</tspan><tspan class="cls-5" x="21.1" y="0">O</tspan><tspan x="33.14" y="0">T</tspan><tspan class="cls-6" x="42.35" y="0">E</tspan><tspan class="cls-7" x="51.57" y="0">Ç</tspan><tspan class="cls-8" x="63.3" y="0">Ã</tspan><tspan x="73.5" y="0">O</tspan><tspan class="cls-9" x="0" y="19.2">F</tspan><tspan class="cls-4" x="9.42" y="19.2">R</tspan><tspan class="cls-10" x="19.7" y="19.2">O</tspan><tspan x="32.29" y="19.2">N</tspan><tspan class="cls-11" x="43.81" y="19.2">T</tspan><tspan class="cls-12" x="51.23" y="19.2">A</tspan><tspan x="61.84" y="19.2">L</tspan>
</text></g><g id="Band"><path id="RubberBand" class="cls-13" d="M171.56,231.31c448.38,96.57,165.5-152,172-140.27" transform="translate(-48.39 -42.54)"/
><text class="cls-2" transform="translate(351.46 87.74)"><tspan class="cls-14">E</tspan><tspan class="cls-15" x="9.42" y="0">L</tspan><tspan class="cls-10" x="18.93" y="0">Á</tspan><tspan class="cls-16" x="29.6" y="0">S</tspan><tspan x="39.55" y="0">T</tspan><tspan class="cls-17" x="48.77" y="0">I</tspan><tspan class="cls-18" x="52.88" y="0">C</tspan><tspan class="cls-19" x="64.75" y="0">O</tspan>
</text></g><g id="Support"><path class="cls-20" d="M343.26,91c-399.87-35.25-168,137.5-176.07,140.27" transform="translate(-48.39 -42.54)"/><ellipse class="cls-21" cx="121.84" cy="188.77" rx="9.51" ry="9.29"/><ellipse class="cls-21" cx="294.88" cy="49.44" rx="8.21" ry="8.02"/>
<text class="cls-2" transform="translate(0 13.6)"><tspan class="cls-22">S</tspan><tspan class="cls-23" x="10.29" y="0">U</tspan><tspan class="cls-24" x="21.12" y="0">P</tspan><tspan class="cls-25" x="31.84" y="0">O</tspan><tspan class="cls-26" x="44.43" y="0">R</tspan><tspan x="54.82" y="0">TE</tspan><tspan class="cls-27" x="0" y="19.2">P</tspan><tspan class="cls-28" x="9.47" y="19.2">A</tspan><tspan class="cls-29" x="20.08" y="19.2">RA </tspan><tspan class="cls-7" x="45.87" y="19.2">C</tspan><tspan class="cls-28" x="57.6" y="19.2">A</tspan><tspan class="cls-30" x="68.21" y="19.2">B</tspan><tspan class="cls-31" x="78.43" y="19.2">E</tspan><tspan class="cls-7" x="87.65" y="19.2">Ç</tspan><tspan x="99.38" y="19.2">A</tspan>
</text></g></svg>