<svg id="Layer_1" data-name="Layer 1" xmlns="http://www.w3.org/2000/svg" viewBox="0 0 477.08 468.34"><defs><style>.cls-1,.cls-18,.cls-2,.cls-27,.cls-3,.cls-4{fill:none;stroke-miterlimit:10;}.cls-1,.cls-2,.cls-3,.cls-4{stroke:#000;}.cls-2{stroke-dasharray:2.05 4.09;}.cls-3{stroke-dasharray:2.02 4.03;}.cls-4{stroke-dasharray:2.03 4.07;}.cls-5{font-size:14.37px;}.cls-19,.cls-5{font-family:BasisGrotesquePro-Medium, Basis Grotesque Pro;font-weight:500;}.cls-6{letter-spacing:-0.01em;}.cls-7{letter-spacing:-0.01em;}.cls-8{letter-spacing:-0.05em;}.cls-9{letter-spacing:-0.03em;}.cls-10{letter-spacing:-0.02em;}.cls-11{letter-spacing:-0.04em;}.cls-12{letter-spacing:-0.02em;}.cls-13{letter-spacing:-0.01em;}.cls-14{letter-spacing:-0.01em;}.cls-15{letter-spacing:0em;}.cls-16{letter-spacing:-0.11em;}.cls-17{letter-spacing:-0.02em;}.cls-18{stroke:#1e1e1e;stroke-width:6px;}.cls-19{font-size:16px;}.cls-20{letter-spacing:-0.02em;}.cls-21{letter-spacing:0.01em;}.cls-22{letter-spacing:-0.01em;}.cls-23{letter-spacing:-0.03em;}.cls-24{letter-spacing:-0.01em;}.cls-25{letter-spacing:-0.02em;}.cls-26{letter-spacing:0em;}.cls-27{stroke:#ed163c;stroke-width:12px;}.cls-28{fill:#ed163c;}.cls-29{letter-spacing:-0.01em;}.cls-30{letter-spacing:-0.01em;}.cls-31{letter-spacing:-0.02em;}.cls-32{letter-spacing:-0.01em;}.cls-33{letter-spacing:-0.01em;}.cls-34{letter-spacing:-0.1em;}.cls-35{letter-spacing:-0.02em;}.cls-36{letter-spacing:0em;}.cls-37{letter-spacing:-0.02em;}.cls-38{letter-spacing:-0.01em;}.cls-39{letter-spacing:-0.03em;}</style></defs><line class="cls-1" x1="273.94" y1="150.42" x2="273.94" y2="149.42"/><line class="cls-2" x1="273.94" y1="145.33" x2="273.94" y2="67.56"/><line class="cls-1" x1="273.94" y1="65.51" x2="273.94" y2="64.51"/><line class="cls-1" x1="208.27" y1="188.77" x2="207.27" y2="188.77"/><line class="cls-3" x1="203.24" y1="188.77" x2="126.64" y2="188.77"/><line class="cls-1" x1="124.62" y1="188.77" x2="123.62" y2="188.77"/><line class="cls-1" x1="371.61" y1="54.44" x2="370.61" y2="54.44"/><line class="cls-4" x1="366.54" y1="54.44" x2="283.16" y2="54.44"/><line class="cls-1" x1="281.13" y1="54.44" x2="280.13" y2="54.44"/><line class="cls-1" x1="119.49" y1="271.4" x2="119.49" y2="270.4"/><line class="cls-2" x1="119.49" y1="266.3" x2="119.49" y2="188.54"/><line class="cls-1" x1="119.49" y1="186.49" x2="119.49" y2="185.49"/><g id="Mask"><path class="cls-1" d="M290,172.54c-357.58-26.12-154.45,126-154.45,126" transform="translate(-16.07 -27.12)"/><path class="cls-1" d="M322,368.49c-322.6,22.63-146.33,134.81-154.45,126" transform="translate(-16.07 -27.12)"/><line class="cls-1" x1="119.49" y1="271.4" x2="151.46" y2="467.35"/><line class="cls-1" x1="273.94" y1="145.42" x2="305.92" y2="341.37"/><line class="cls-1" x1="62.03" y1="200.84" x2="110.62" y2="420.9"/><text class="cls-5" transform="translate(168.86 390.82)"><tspan class="cls-6">P</tspan><tspan class="cls-7" x="9.73" y="0">R</tspan><tspan class="cls-8" x="18.95" y="0">O</tspan><tspan x="29.76" y="0">T</tspan><tspan class="cls-9" x="38.04" y="0">E</tspan><tspan class="cls-10" x="46.32" y="0">Ç</tspan><tspan class="cls-11" x="56.85" y="0">Ã</tspan><tspan x="66.02" y="0">O</tspan><tspan class="cls-12" x="0" y="17.24">F</tspan><tspan class="cls-13" x="8.46" y="17.24">R</tspan><tspan class="cls-14" x="17.69" y="17.24">O</tspan><tspan class="cls-15" x="29" y="17.24">N</tspan><tspan class="cls-16" x="39.35" y="17.24">T</tspan><tspan class="cls-17" x="46.01" y="17.24">A</tspan><tspan x="55.54" y="17.24">L</tspan></text></g><g id="Band"><path id="RubberBand" class="cls-18" d="M224.34,215.53C672.72,312.1,393,63.77,391.05,84.22" transform="translate(-16.07 -27.12)"/><text class="cls-19" transform="translate(399.53 238.07)"><tspan class="cls-20">E</tspan><tspan class="cls-21" x="9.42" y="0">L</tspan><tspan class="cls-22" x="18.93" y="0">Á</tspan><tspan class="cls-23" x="29.6" y="0">S</tspan><tspan x="39.55" y="0">T</tspan><tspan class="cls-24" x="48.77" y="0">I</tspan><tspan class="cls-25" x="52.88" y="0">C</tspan><tspan class="cls-26" x="64.75" y="0">O</tspan></text></g><g id="Support"><path class="cls-27" d="M296.19,79.76c-381.9-22.25-159.28,131-166.94,133.58" transform="translate(-16.07 -27.12)"/><ellipse class="cls-28" cx="117.03" cy="188.77" rx="9.51" ry="9.29"/><ellipse class="cls-28" cx="274.92" cy="51.44" rx="8.21" ry="8.02"/><text class="cls-19" transform="translate(0 13.6)"><tspan class="cls-29">S</tspan><tspan class="cls-30" x="10.29" y="0">U</tspan><tspan class="cls-31" x="21.12" y="0">P</tspan><tspan class="cls-32" x="31.84" y="0">O</tspan><tspan class="cls-33" x="44.43" y="0">R</tspan><tspan x="54.82" y="0">TE</tspan><tspan class="cls-34" x="0" y="19.2">P</tspan><tspan class="cls-35" x="9.47" y="19.2">A</tspan><tspan class="cls-36" x="20.08" y="19.2">RA </tspan><tspan class="cls-37" x="45.87" y="19.2">C</tspan><tspan class="cls-35" x="57.6" y="19.2">A</tspan><tspan class="cls-38" x="68.21" y="19.2">B</tspan><tspan class="cls-39" x="78.43" y="19.2">E</tspan><tspan class="cls-37" x="87.65" y="19.2">Ç</tspan><tspan x="99.38" y="19.2">A</tspan></text></g></svg>