<svg id="Layer_1" data-name="Layer 1" xmlns="http://www.w3.org/2000/svg" viewBox="0 0 1428.71 1112.1"><defs><style>.cls-1{fill:#fff;}</style></defs><polygon class="cls-1" points="351.9 134.51 351.9 0 0 0 0 547.6 283.05 547.6 318.99 547.6 351.9 547.6 351.9 233.96 216.11 233.96 216.11 295.17 283.05 295.17 283.05 478.76 68.85 478.76 68.85 68.22 283.05 68.22 283.05 134.51 351.9 134.51"/><path class="cls-1" d="M589.23,440.19H521v-364L433.68,296.12H388.42L306.18,81.29v358.9H237.33v-547.6h68.85L411.37,194.75,521-107.41h68.22Z" transform="translate(-237.33 671.91)"/><path class="cls-1" d="M1528.27-671.91v509.84H1145.88V-671.91H1008.12V-38.45h66.95V434.06h524V-38.45h67V-671.91Zm-66.94,968.19h-248.5V-38.45h248.5Z" transform="translate(-237.33 671.91)"/><path class="cls-1" d="M687-124.3V-376.74H876.38V-124.3h68.21V-437.95H911.44v-234H652v234H618.83V-124.3Zm33.15-479.39h123v165.74h-123Z" transform="translate(-237.33 671.91)"/><path class="cls-1" d="M687,440.19V187.75H876.38V440.19h68.21V126.54H911.44V-107.41H652v234H618.83V440.19ZM720.19-39.19h123V126.54h-123Z" transform="translate(-237.33 671.91)"/></svg>