<svg id="Layer_1" data-name="Layer 1" xmlns="http://www.w3.org/2000/svg" viewBox="0 0 1106.76 1047.59"><defs><style>.cls-1{fill:#fff;}</style></defs><polygon class="cls-1" points="272.25 104.07 272.25 0 0 0 0 423.67 218.99 423.67 246.79 423.67 272.25 423.67 272.25 181.01 167.2 181.01 167.2 228.36 218.99 228.36 218.99 370.4 53.27 370.4 53.27 52.78 218.99 52.78 218.99 104.07 272.25 104.07"/><path class="cls-1" d="M510.38,311.93H457.61V30.3L390,200.46H355L291.39,34.25V311.93H238.13V-111.74h53.26L372.78,122l84.83-233.78h52.77Z" transform="translate(-238.13 548.48)"/><path class="cls-1" d="M1237.71-548.43v396.62H940.24V-548.43H833.08V-55.65h52.08V311.93h407.65V-55.65h52.08V-548.43Zm-52.07,753.18H992.32V-55.65h193.32Z" transform="translate(-238.13 548.48)"/><path class="cls-1" d="M586.06-124.81v-195.3H732.54v195.3h52.78V-367.47H759.67v-181H558.93v181H533.29v242.66ZM611.71-495.7H706.9v128.23H611.71Z" transform="translate(-238.13 548.48)"/><path class="cls-1" d="M586.06,311.93V116.62H732.54V311.93h52.78V69.27H759.67v-181H558.93v181H533.29V311.93ZM611.71-59H706.9V69.27H611.71Z" transform="translate(-238.13 548.48)"/><path class="cls-1" d="M1107.18,348.75" transform="translate(-238.13 548.48)"/><path class="cls-1" d="M280.39,421.86H273l-.7-5a13.27,13.27,0,0,1-5.65,4.6,18.51,18.51,0,0,1-6.59,1.33q-10.11-.13-16-6.94t-6-16.78q.06-10.2,6-16.83t16-6.88a23,23,0,0,1,13,3.9q5.83,4,6.9,12.57H268.46a6.15,6.15,0,0,0-2.71-4.69,10.57,10.57,0,0,0-6-1.6q-5.52.14-7.84,4.21a17,17,0,0,0-2.41,9.32,16.75,16.75,0,0,0,2.41,9.27q2.33,4.14,7.84,4.27,8.88-.13,10.09-6.86h-8V397h18.52Z" transform="translate(-238.13 548.48)"/><path class="cls-1" d="M289.25,376.49h22.38a19.36,19.36,0,0,1,10.67,2.92q4.59,3,4.72,9.83a13.68,13.68,0,0,1-1.71,6.77,10.68,10.68,0,0,1-5.41,4.62v.13a6.4,6.4,0,0,1,3.05,1.46,9.65,9.65,0,0,1,2,2.73,19.4,19.4,0,0,1,1.58,6.68c0,1.16.18,2.87.42,5.14a23.71,23.71,0,0,0,.58,3,6.62,6.62,0,0,0,.85,2.1H317.08a3.93,3.93,0,0,1-.58-1.64c-.11-.68-.24-1.39-.36-2.11q-.24-2.36-.36-3.48a26.61,26.61,0,0,0-.32-3.44,10,10,0,0,0-.91-3,4.93,4.93,0,0,0-1.87-2.1,6.51,6.51,0,0,0-3.31-.75h-8.71v16.51H289.25Zm11.41,19.74h9.61c3.48,0,5.26-1.83,5.32-5.38a4.67,4.67,0,0,0-1.68-3.77,7.06,7.06,0,0,0-4.13-1.16h-9.12Z" transform="translate(-238.13 548.48)"/><path class="cls-1" d="M373.11,403.11q.18,19.72-19.13,19.72t-19.14-19.71V376.49h11.42v27.32q-.19,8.83,7.72,8.84c5.26,0,7.84-2.95,7.71-8.84V376.49h11.42Z" transform="translate(-238.13 548.48)"/><path class="cls-1" d="M382.24,376.49h20.84a18.48,18.48,0,0,1,11.09,3.22c3.13,2.26,4.72,6.06,4.81,11.39q-.39,16-15.91,15.65h-9.41v15.11H382.24Zm11.42,21.14h7.72a6.6,6.6,0,0,0,4.44-1.34,5.19,5.19,0,0,0,1.74-4.38c0-2.15-.58-3.71-1.74-4.65a7,7,0,0,0-4.44-1.34h-7.72Z" transform="translate(-238.13 548.48)"/><path class="cls-1" d="M424.11,399.11q0-10.2,5.65-16.83t16-6.88q10.45.12,16,6.88t5.59,16.83q0,10.06-5.59,16.78t-16,6.94q-10.41-.13-16-6.94T424.11,399.11Zm11.41,0a16.76,16.76,0,0,0,2.42,9.27q2.31,4.14,7.83,4.27,5.49-.13,8-4.27a18.16,18.16,0,0,0,2.29-9.27,18.48,18.48,0,0,0-2.29-9.32q-2.46-4.08-8-4.21-5.52.14-7.83,4.21A17,17,0,0,0,435.52,399.11Z" transform="translate(-238.13 548.48)"/><path class="cls-1" d="M495.25,376.49h18.9q21.14.38,21.54,22.5-.41,22.75-21.54,22.87h-18.9Zm11.41,35.2h5.43q12.36.29,12.18-12.74-.12-12.29-12.18-12.29h-5.43Z" transform="translate(-238.13 548.48)"/><path class="cls-1" d="M543.48,376.49h35v9.43H554.9v8h21.56v9.13H554.9v8.63h24.21v10.17H543.48Z" transform="translate(-238.13 548.48)"/><path class="cls-1" d="M619,376.49h11.64l16.44,45.37H635.11l-2.7-8.12H617.07l-2.77,8.12H602.55Zm.75,28.49h10l-4.87-15.93h-.12Z" transform="translate(-238.13 548.48)"/><path class="cls-1" d="M651.8,376.49h20.85a18.5,18.5,0,0,1,11.09,3.22q4.69,3.39,4.81,11.39-.39,16-15.92,15.65h-9.41v15.11H651.8Zm11.42,21.14H671a6.55,6.55,0,0,0,4.43-1.34,5.19,5.19,0,0,0,1.75-4.38c0-2.15-.59-3.71-1.75-4.65a7,7,0,0,0-4.43-1.34h-7.73Z" transform="translate(-238.13 548.48)"/><path class="cls-1" d="M693.67,399.11q0-10.2,5.66-16.83t16-6.88q10.46.12,16,6.88T737,399.11q0,10.06-5.59,16.78t-16,6.94q-10.41-.13-16-6.94T693.67,399.11Zm11.42,0a16.75,16.75,0,0,0,2.41,9.27q2.32,4.14,7.84,4.27,5.49-.13,7.95-4.27a18.16,18.16,0,0,0,2.29-9.27,18.48,18.48,0,0,0-2.29-9.32q-2.46-4.08-7.95-4.21-5.52.14-7.84,4.21A17,17,0,0,0,705.09,399.11Z" transform="translate(-238.13 548.48)"/><path class="cls-1" d="M744.79,376.49h11.42v45.37H744.79Z" transform="translate(-238.13 548.48)"/><path class="cls-1" d="M763.14,399.11q0-10.2,5.65-16.83t16-6.88q10.47.12,16.06,6.88t5.59,16.83q0,10.06-5.59,16.78t-16.06,6.94q-10.39-.13-16-6.94T763.14,399.11Zm11.41,0a16.67,16.67,0,0,0,2.42,9.27q2.31,4.14,7.83,4.27,5.49-.13,8-4.27a18.26,18.26,0,0,0,2.29-9.27,18.58,18.58,0,0,0-2.29-9.32q-2.47-4.08-8-4.21-5.52.14-7.83,4.21A17,17,0,0,0,774.55,399.11Z" transform="translate(-238.13 548.48)"/><path class="cls-1" d="M846.19,376.49h11.64l16.45,45.37H862.34l-2.7-8.12H844.3l-2.76,8.12H829.78Zm.75,28.49h10l-4.87-15.93h-.12Z" transform="translate(-238.13 548.48)"/><path class="cls-1" d="M877.36,399.11q0-10.2,5.65-16.83t16-6.88q10.47.12,16.05,6.88t5.59,16.83q0,10.06-5.59,16.78T899,422.83q-10.41-.13-16-6.94T877.36,399.11Zm11.41,0a16.76,16.76,0,0,0,2.42,9.27q2.31,4.14,7.83,4.27,5.49-.13,8-4.27a18.26,18.26,0,0,0,2.29-9.27,18.58,18.58,0,0,0-2.29-9.32q-2.47-4.08-8-4.21-5.52.14-7.83,4.21A17,17,0,0,0,888.77,399.11Z" transform="translate(-238.13 548.48)"/><path class="cls-1" d="M937.32,406.66c.16,2.6,1,4.43,2.48,5.46a9.38,9.38,0,0,0,5.89,1.58,11.47,11.47,0,0,0,2.7-.31,6.76,6.76,0,0,0,2.21-.78,3.92,3.92,0,0,0,2.18-3.58,3.46,3.46,0,0,0-1-2.56,8.28,8.28,0,0,0-2.84-1.65c-2.5-.81-5.43-1.62-8.76-2.43a24.22,24.22,0,0,1-8.76-4.2q-4-2.88-4.13-8.95a12,12,0,0,1,1.65-6.42,12.64,12.64,0,0,1,4.27-4.3,23.72,23.72,0,0,1,12-3.12,21.63,21.63,0,0,1,12.1,3.44,12.39,12.39,0,0,1,4,4.49,14.89,14.89,0,0,1,1.47,6.66H951.32q.06-3.11-2.11-4.31a10.41,10.41,0,0,0-5-1.15,8.55,8.55,0,0,0-3.64.77,3.28,3.28,0,0,0-1.91,3.12,2.62,2.62,0,0,0,1.18,2.12,10.54,10.54,0,0,0,2.84,1.46c1.28.37,2.66.75,4.13,1.13l2.35.59c.74.21,1.5.43,2.3.68a23.25,23.25,0,0,1,8.81,4.18,10.86,10.86,0,0,1,4,9q-.12,8.52-5.94,11.94A24.83,24.83,0,0,1,945,422.83a22.71,22.71,0,0,1-13.25-3.75q-5.5-3.87-5.87-12.42Z" transform="translate(-238.13 548.48)"/><path class="cls-1" d="M991,376.49h16.86l7.56,30.29h.13l7.57-30.29h16.85v45.37h-10.74V387.41h-.11l-9.24,34.45h-8.76l-9.24-34.45h-.15v34.45H991Z" transform="translate(-238.13 548.48)"/><path class="cls-1" d="M1049.74,376.49h35v9.43h-23.58v8h21.57v9.13h-21.57v8.63h24.22v10.17h-35.64Zm28.62-12.35-9.66,9.43h-7.41l6-9.43Z" transform="translate(-238.13 548.48)"/><path class="cls-1" d="M1093.29,376.49h18.9q21.15.38,21.54,22.5-.39,22.75-21.54,22.87h-18.9Zm11.42,35.2h5.43q12.36.29,12.17-12.74-.12-12.29-12.17-12.29h-5.43Z" transform="translate(-238.13 548.48)"/><path class="cls-1" d="M1141.52,376.49h11.42v45.37h-11.42Z" transform="translate(-238.13 548.48)"/><path class="cls-1" d="M1190.71,392.6a8,8,0,0,0-2.83-5.31,10,10,0,0,0-6-1.71q-5.47.14-7.84,4.21a17,17,0,0,0-2.4,9.32,16.75,16.75,0,0,0,2.4,9.27q2.36,4.14,7.83,4.27,8.13-.13,8.87-8.42h11.47q-.63,8.83-6,13.69t-14,4.91q-10.11-.13-15.93-6.94t-6-16.78q.06-10.2,6-16.83t15.93-6.88a22.53,22.53,0,0,1,13.56,4.45q5.94,4.48,6.52,12.75Z" transform="translate(-238.13 548.48)"/><path class="cls-1" d="M1208.1,399.11q0-10.2,5.65-16.83t16-6.88q10.47.12,16,6.88t5.59,16.83q0,10.06-5.59,16.78t-16,6.94q-10.4-.13-16-6.94T1208.1,399.11Zm11.42,0a16.75,16.75,0,0,0,2.41,9.27q2.33,4.14,7.83,4.27,5.49-.13,8-4.27a18.26,18.26,0,0,0,2.29-9.27,18.58,18.58,0,0,0-2.29-9.32q-2.48-4.08-8-4.21-5.51.14-7.83,4.21A17,17,0,0,0,1219.52,399.11Z" transform="translate(-238.13 548.48)"/><path class="cls-1" d="M1268.06,406.66c.16,2.6,1,4.43,2.49,5.46a9.33,9.33,0,0,0,5.88,1.58,11.47,11.47,0,0,0,2.7-.31,6.68,6.68,0,0,0,2.21-.78,3.93,3.93,0,0,0,2.19-3.58,3.47,3.47,0,0,0-1.06-2.56,8.23,8.23,0,0,0-2.83-1.65q-3.77-1.21-8.76-2.43a24.19,24.19,0,0,1-8.77-4.2q-4-2.88-4.13-8.95a12,12,0,0,1,1.65-6.42,12.82,12.82,0,0,1,4.27-4.3,23.73,23.73,0,0,1,12-3.12,21.65,21.65,0,0,1,12.1,3.44,12.45,12.45,0,0,1,4,4.49,14.75,14.75,0,0,1,1.47,6.66h-11.41q.06-3.11-2.11-4.31a10.44,10.44,0,0,0-5-1.15,8.6,8.6,0,0,0-3.65.77,3.27,3.27,0,0,0-1.9,3.12,2.62,2.62,0,0,0,1.18,2.12,10.46,10.46,0,0,0,2.83,1.46c1.29.37,2.66.75,4.13,1.13l2.35.59c.75.21,1.51.43,2.3.68a23.11,23.11,0,0,1,8.81,4.18,10.86,10.86,0,0,1,4,9q-.12,8.52-5.94,11.94a24.77,24.77,0,0,1-13.24,3.34,22.72,22.72,0,0,1-13.26-3.75q-5.51-3.87-5.87-12.42Z" transform="translate(-238.13 548.48)"/><path class="cls-1" d="M239.8,452.77h35v9.43H251.22v8h21.57v9.13H251.22V488h24.21v10.18H239.8Z" transform="translate(-238.13 548.48)"/><path class="cls-1" d="M315.29,452.77h11.63l16.45,45.38H331.43l-2.7-8.14H313.39l-2.76,8.14H298.87Zm.75,28.49h10l-4.88-15.92H321Z" transform="translate(-238.13 548.48)"/><path class="cls-1" d="M388.72,498.15h-7.4l-.69-5a13.36,13.36,0,0,1-5.66,4.6,18.51,18.51,0,0,1-6.59,1.33q-10.11-.12-16-6.94t-5.95-16.77q.06-10.22,5.95-16.84t16-6.88a23,23,0,0,1,13,3.9q5.83,4,6.89,12.57H376.79a6.16,6.16,0,0,0-2.71-4.68,10.48,10.48,0,0,0-6-1.61c-3.67.08-6.29,1.49-7.83,4.21a17.07,17.07,0,0,0-2.41,9.33,16.74,16.74,0,0,0,2.41,9.26c1.54,2.77,4.16,4.19,7.83,4.27q8.89-.12,10.09-6.86h-8v-8.76h18.53Z" transform="translate(-238.13 548.48)"/><path class="cls-1" d="M397.57,452.77h35v9.43H409v8h21.56v9.13H409V488H433.2v10.18H397.57Z" transform="translate(-238.13 548.48)"/><path class="cls-1" d="M441,452.77h11.76l15.28,28h.12v-28h10.74v45.38H467.13l-15.28-28.29h-.13v28.29H441Z" transform="translate(-238.13 548.48)"/><path class="cls-1" d="M523,463H509.89v35.2H498.48V463H485.37V452.77H523Z" transform="translate(-238.13 548.48)"/><path class="cls-1" d="M529.39,452.77h35v9.43H540.81v8h21.56v9.13H540.81V488H565v10.18H529.39Z" transform="translate(-238.13 548.48)"/><path class="cls-1" d="M581.78,482.94q.24,3.92,2.48,5.46a9.44,9.44,0,0,0,5.89,1.59,11.38,11.38,0,0,0,2.69-.32,6.68,6.68,0,0,0,2.21-.78,3.92,3.92,0,0,0,2.19-3.58,3.43,3.43,0,0,0-1.06-2.56,8.06,8.06,0,0,0-2.83-1.64c-2.51-.81-5.43-1.63-8.76-2.44a24,24,0,0,1-8.77-4.21q-4-2.86-4.13-8.94a12,12,0,0,1,1.66-6.42,12.7,12.7,0,0,1,4.26-4.3,23.78,23.78,0,0,1,12-3.12,21.63,21.63,0,0,1,12.1,3.44,12.49,12.49,0,0,1,4,4.49,15.13,15.13,0,0,1,1.47,6.66H595.78q.06-3.11-2.11-4.32a10.52,10.52,0,0,0-5-1.15,8.64,8.64,0,0,0-3.65.78,3.29,3.29,0,0,0-1.9,3.12,2.62,2.62,0,0,0,1.18,2.12,10.61,10.61,0,0,0,2.83,1.46c1.29.38,2.66.75,4.14,1.12l2.35.6,2.29.68a23.23,23.23,0,0,1,8.82,4.18,12.32,12.32,0,0,1,2.89,3.68,12.13,12.13,0,0,1,1,5.3q-.12,8.51-5.93,11.93a24.83,24.83,0,0,1-13.25,3.34,22.71,22.71,0,0,1-13.25-3.75q-5.52-3.87-5.88-12.42Z" transform="translate(-238.13 548.48)"/><path class="cls-1" d="M635.35,452.77h18.9q21.16.36,21.54,22.5-.39,22.75-21.54,22.88h-18.9ZM646.77,488h5.42q12.38.27,12.18-12.75Q664.25,463,652.19,463h-5.42Z" transform="translate(-238.13 548.48)"/><path class="cls-1" d="M683.59,452.77h35v9.43H695v8h21.56v9.13H695V488h24.21v10.18H683.59Z" transform="translate(-238.13 548.48)"/><path class="cls-1" d="M756,482.94c.15,2.61,1,4.43,2.48,5.46a9.41,9.41,0,0,0,5.88,1.59,11.47,11.47,0,0,0,2.7-.32,6.81,6.81,0,0,0,2.22-.78,3.92,3.92,0,0,0,2.18-3.58,3.43,3.43,0,0,0-1.06-2.56,8.06,8.06,0,0,0-2.83-1.64c-2.51-.81-5.43-1.63-8.77-2.44a24.08,24.08,0,0,1-8.76-4.21q-4-2.86-4.13-8.94a11.91,11.91,0,0,1,1.66-6.42,12.61,12.61,0,0,1,4.26-4.3,23.77,23.77,0,0,1,12-3.12,21.66,21.66,0,0,1,12.11,3.44,12.37,12.37,0,0,1,4,4.49,14.72,14.72,0,0,1,1.47,6.66H770c0-2.07-.67-3.51-2.11-4.32a10.52,10.52,0,0,0-5-1.15,8.6,8.6,0,0,0-3.65.78,3.27,3.27,0,0,0-1.9,3.12,2.62,2.62,0,0,0,1.18,2.12,10.46,10.46,0,0,0,2.83,1.46c1.29.38,2.66.75,4.13,1.12l2.36.6,2.29.68a23.23,23.23,0,0,1,8.82,4.18,12.32,12.32,0,0,1,2.89,3.68,12.13,12.13,0,0,1,1,5.3q-.12,8.51-5.93,11.93a24.86,24.86,0,0,1-13.26,3.34,22.75,22.75,0,0,1-13.25-3.75q-5.51-3.87-5.87-12.42Z" transform="translate(-238.13 548.48)"/><path class="cls-1" d="M801.47,452.77h11.64l16.44,45.38H817.62L814.91,490H799.57l-2.76,8.14H785.05Zm.75,28.49h10l-4.87-15.92h-.11Z" transform="translate(-238.13 548.48)"/><path class="cls-1" d="M872.26,479.39q.19,19.73-19.13,19.72T834,479.4V452.77h11.42v27.32q-.2,8.84,7.71,8.84t7.72-8.84V452.77h11.41Zm-7.66-39-9.67,9.43h-7.4l6-9.43Z" transform="translate(-238.13 548.48)"/><path class="cls-1" d="M881.39,452.77h18.9q21.15.36,21.54,22.5-.39,22.75-21.54,22.88h-18.9ZM892.81,488h5.42q12.38.27,12.18-12.75Q910.29,463,898.23,463h-5.42Z" transform="translate(-238.13 548.48)"/><path class="cls-1" d="M929.63,452.77h35v9.43H941v8h21.57v9.13H941V488h24.22v10.18H929.63Z" transform="translate(-238.13 548.48)"/></svg>