<svg id="Layer_1" data-name="Layer 1" xmlns="http://www.w3.org/2000/svg" viewBox="0 0 512 512"><defs><style>.cls-1{fill:#ffd88e;}.cls-2{fill:#ffd0c7;}.cls-3{fill:#a0c8ff;}.cls-4{fill:#ed163c;}</style></defs><path class="cls-1" d="M110.68,166l9.71-16.32a86.37,86.37,0,0,1,74.22-42.21A86.37,86.37,0,0,0,281,21.14V10H143.31A133.3,133.3,0,0,0,10,143.3a138.09,138.09,0,0,0,51.5,107.58l9.16,7.37h2.55a46.69,46.69,0,0,0,43.6-30Z" transform="translate(0 0)"/><path class="cls-2" d="M278.76,218.65l-27.08-36.9L253.4,173a117,117,0,0,0-12.18-78.57l-1.05.09a85.94,85.94,0,0,1-45.55,13,86.36,86.36,0,0,0-74.23,42.22L110.68,166C95.9,166,83.91,180,83.91,197.14s12,31.11,26.77,31.11a41.6,41.6,0,0,1-34,29.15l-6,.85v92.5l105.19,4.13V300.42h52.65a33.5,33.5,0,0,0,33.5-33.5V234h9a9.65,9.65,0,0,0,7.78-15.35Z" transform="translate(0 0)"/><path class="cls-3" d="M145.62,263.44l30.25,37h52.64a33.5,33.5,0,0,0,33.5-33.5V234h9a9.65,9.65,0,0,0,7.78-15.35l-27.08-36.9H186.56Z" transform="translate(0 0)"/><path class="cls-3" d="M116.18,338A106.18,106.18,0,0,0,10,444.18V502H319.5A315.07,315.07,0,0,0,160.55,347.69l-1.91-.83A106.1,106.1,0,0,0,116.18,338Z" transform="translate(0 0)"/><circle class="cls-4" cx="446" cy="128" r="36"/><circle class="cls-4" cx="390" cy="328" r="36"/><path d="M260,402.79A331.79,331.79,0,0,0,185.87,349V310.42h42.65a43.55,43.55,0,0,0,43.5-43.5V244a19.64,19.64,0,0,0,14.8-31.23l-24.48-33.37.87-4.47a127.32,127.32,0,0,0-9.42-77.76,96.25,96.25,0,0,0,37.19-76V10A10,10,0,0,0,281,0H143.31A143.26,143.26,0,0,0,71.56,19.23a10,10,0,0,0,10,17.31A123.21,123.21,0,0,1,143.31,20H271v1.14A76.46,76.46,0,0,1,194.61,97.5a96.81,96.81,0,0,0-82.82,47.1l-7.12,12c-17.43,3.22-30.76,20.18-30.76,40.56,0,18.55,11.06,34.27,26.18,39.36a36.68,36.68,0,0,1-25.93,11.71l-6.37-5.12A127.52,127.52,0,0,1,20,143.3a122.79,122.79,0,0,1,8.22-44.39,10,10,0,1,0-18.65-7.2A142.7,142.7,0,0,0,0,143.3,147.44,147.44,0,0,0,55.25,258.67L60.68,263v79.09A116.3,116.3,0,0,0,0,444.18V502a10,10,0,0,0,20,0V444.18A96.19,96.19,0,0,1,154.64,356c68,29.64,124.74,84.4,155.82,150.25a10,10,0,0,0,18.08-8.54A322.15,322.15,0,0,0,260,402.79ZM270.28,224H262a10,10,0,0,0-10,10v32.92a23.53,23.53,0,0,1-23.5,23.5H180.61l-23.15-28.29,35.28-70.38h53.88ZM129,154.83a76.71,76.71,0,0,1,65.63-37.33,95.79,95.79,0,0,0,42-9.67,107.33,107.33,0,0,1,6.92,63.24l-.13.68H187.59l-61.14-12.66ZM93.91,197.14c0-11.31,7.11-20.54,16-21.06l61.89,12.82-28.2,56.27-19-23.25a10,10,0,0,0-7.74-3.67h-6.15c-9.25,0-16.77-9.47-16.77-21.11ZM116.18,328a115.83,115.83,0,0,0-35.5,5.55v-65.8a56.83,56.83,0,0,0,37.65-21.87L165.87,304v35.16c-1.08-.49-2.15-1-3.23-1.46A115.58,115.58,0,0,0,116.18,328Z" transform="translate(0 0)"/><path d="M42,66.68a10,10,0,1,0-7.07-2.93A10.08,10.08,0,0,0,42,66.68Z" transform="translate(0 0)"/><path d="M502,118H490.89a45.66,45.66,0,0,0-6.09-14.66l7.87-7.87a10,10,0,1,0-14.14-14.14l-7.87,7.87A45.53,45.53,0,0,0,456,83.11V72a10,10,0,0,0-20,0V83.11a45.44,45.44,0,0,0-14.66,6.09l-7.87-7.87a10,10,0,1,0-14.14,14.14l7.87,7.87A45.53,45.53,0,0,0,401.11,118H390a10,10,0,0,0,0,20h11.11a45.44,45.44,0,0,0,6.09,14.66l-7.87,7.87a10,10,0,1,0,14.14,14.14l7.87-7.87A45.44,45.44,0,0,0,436,172.89V184a10,10,0,0,0,20,0V172.89a45.66,45.66,0,0,0,14.66-6.09l7.87,7.87a10,10,0,1,0,14.14-14.14l-7.87-7.87A45.53,45.53,0,0,0,490.89,138H502a10,10,0,0,0,0-20Zm-56,36a26,26,0,1,1,26-26A26,26,0,0,1,446,154Z" transform="translate(0 0)"/><path d="M446,318H434.89a45.66,45.66,0,0,0-6.09-14.66l7.87-7.87a10,10,0,1,0-14.14-14.14l-7.87,7.87A45.53,45.53,0,0,0,400,283.11V272a10,10,0,0,0-20,0v11.11a45.44,45.44,0,0,0-14.66,6.09l-7.87-7.87a10,10,0,1,0-14.14,14.14l7.87,7.87A45.53,45.53,0,0,0,345.11,318H334a10,10,0,0,0,0,20h11.11a45.44,45.44,0,0,0,6.09,14.66l-7.87,7.87a10,10,0,1,0,14.14,14.14l7.87-7.87A45.44,45.44,0,0,0,380,372.89V384a10,10,0,0,0,20,0V372.89a45.66,45.66,0,0,0,14.66-6.09l7.87,7.87a10,10,0,1,0,14.14-14.15l-7.87-7.86A45.53,45.53,0,0,0,434.89,338H446a10,10,0,0,0,0-20Zm-56,36a26,26,0,1,1,26-26A26,26,0,0,1,390,354Z" transform="translate(0 0)"/><path class="cls-3" d="M298.23,122.72c4.6,18.29,9.08,36.66,11.61,55.37l-.38-2.79c2.16,16.2,2.8,32.64.63,48.87l.37-2.79A152.33,152.33,0,0,1,299.84,260l1.06-2.51a155.85,155.85,0,0,1-20,34.27l1.64-2.13a150.19,150.19,0,0,1-21.38,22.42c-1.95,1.66-3.08,4.95-3.08,7.43a10.69,10.69,0,0,0,3.08,7.42,10.58,10.58,0,0,0,7.42,3.08,11.76,11.76,0,0,0,7.43-3.08c21.13-18,36.95-41.67,46.61-67.6a160.29,160.29,0,0,0,9.1-40.28c1.63-16.51.37-33-2-49.41-2.57-17.72-6.84-35.14-11.2-52.49-1.34-5.32-7.6-9-12.91-7.33a10.72,10.72,0,0,0-7.34,12.92Z" transform="translate(0 0)"/><path class="cls-4" d="M23.27,127h283a12,12,0,0,0,12-12c-.29-6.51-5.27-12-12-12h-283a12.37,12.37,0,0,0-8.49,3.51A12.18,12.18,0,0,0,11.27,115c.29,6.5,5.27,12,12,12Z" transform="translate(0 0)"/><path d="M52,112H307.36a12.36,12.36,0,0,0,8.48-3.52,12.21,12.21,0,0,0,3.52-8.48c-.29-6.5-5.28-12-12-12H52a12.42,12.42,0,0,0-8.49,3.51A12.24,12.24,0,0,0,40,100c.29,6.5,5.27,12,12,12Z" transform="translate(0 0)"/></svg>