<svg id="Layer_1" data-name="Layer 1" xmlns="http://www.w3.org/2000/svg" viewBox="0 0 100.18 127.72"><defs><style>.cls-1{fill:none;stroke:#000;stroke-linecap:round;stroke-linejoin:round;stroke-width:0.71px;}</style></defs><path class="cls-1" d="M363.5,339.33c0,14.83-22.27,26.86-49.74,26.86S264,354.16,264,339.33" transform="translate(-263.68 -238.82)"/><polyline class="cls-1" points="0.35 100.51 0.35 0.86 99.82 0.35 99.82 100.51"/><path d="M279.74,249.65a3.08,3.08,0,1,1-3.08-3.08A3.08,3.08,0,0,1,279.74,249.65Z" transform="translate(-263.68 -238.82)"/><path d="M304.48,249.65a3.08,3.08,0,1,1-3.08-3.08A3.08,3.08,0,0,1,304.48,249.65Z" transform="translate(-263.68 -238.82)"/><path d="M329.21,249.65a3.08,3.08,0,1,1-3.08-3.08A3.08,3.08,0,0,1,329.21,249.65Z" transform="translate(-263.68 -238.82)"/><path d="M354,249.65a3.08,3.08,0,1,1-3.08-3.08A3.08,3.08,0,0,1,354,249.65Z" transform="translate(-263.68 -238.82)"/></svg>